EncodeSans-SemiBold.ufo
<glyph name="exclam" format="2">
  <advance width="561.9663838383839"/>
  <unicode hex="0021"/>
  <outline>
    <contour>
      <point x="201.70949494949494" y="433.05018181818184" type="line"/>
      <point x="362.9663838383839" y="433.05018181818184" type="line"/>
      <point x="419.944" y="947.4412929292929" type="line"/>
      <point x="419.944" y="1480.0" type="line"/>
      <point x="142.02238383838383" y="1480.0" type="line"/>
      <point x="142.02238383838383" y="947.4412929292929" type="line"/>
    </contour>
    <contour>
      <point x="280.98319191919194" y="-15.4189898989899" type="curve" smooth="yes"/>
      <point x="385.80436363636363" y="-15.4189898989899"/>
      <point x="454.6143838383839" y="47.05583838383839"/>
      <point x="454.6143838383839" y="140.87143434343437" type="curve" smooth="yes"/>
      <point x="454.6143838383839" y="234.68703030303033"/>
      <point x="387.97195959595956" y="298.0780606060606"/>
      <point x="280.98319191919194" y="298.0780606060606" type="curve" smooth="yes"/>
      <point x="173.99442424242423" y="298.0780606060606"/>
      <point x="107.35199999999999" y="236.85462626262628"/>
      <point x="107.35199999999999" y="140.87143434343437" type="curve" smooth="yes"/>
      <point x="107.35199999999999" y="44.888242424242435"/>
      <point x="176.1620202020202" y="-15.4189898989899"/>
    </contour>
  </outline>
</glyph>
<glyph name="numbersign" format="2">
  <advance width="1219.2177777777779"/>
  <unicode hex="0023"/>
  <outline>
    <contour>
      <point x="633.2569696969697" y="0.0" type="line"/>
      <point x="837.4412121212122" y="0.0" type="line"/>
      <point x="991.4412121212122" y="1480.0" type="line"/>
      <point x="787.2569696969697" y="1480.0" type="line"/>
    </contour>
    <contour>
      <point x="100.0" y="415.96654545454544" type="line"/>
      <point x="1119.2177777777779" y="415.96654545454544" type="line"/>
      <point x="1119.2177777777779" y="617.4412929292929" type="line"/>
      <point x="100.0" y="617.4412929292929" type="line"/>
    </contour>
    <contour>
      <point x="227.77656565656565" y="0.0" type="line"/>
      <point x="431.9608080808081" y="0.0" type="line"/>
      <point x="585.9608080808081" y="1480.0" type="line"/>
      <point x="381.77656565656565" y="1480.0" type="line"/>
    </contour>
    <contour>
      <point x="100.0" y="862.5587070707071" type="line"/>
      <point x="1119.2177777777779" y="862.5587070707071" type="line"/>
      <point x="1119.2177777777779" y="1064.0334545454546" type="line"/>
      <point x="100.0" y="1064.0334545454546" type="line"/>
    </contour>
  </outline>
</glyph>
<glyph name="dollar" format="2">
  <advance width="1120.547393939394"/>
  <unicode hex="0024"/>
  <outline>
    <contour>
      <point x="482.4357171717172" y="-19.08379797979798" type="curve" smooth="yes"/>
      <point x="848.6256161616161" y="-19.08379797979798"/>
      <point x="1058.8490505050504" y="146.30165656565657"/>
      <point x="1058.8490505050504" y="423.8938181818182" type="curve" smooth="yes"/>
      <point x="1058.8490505050504" y="646.6088888888889"/>
      <point x="929.6367676767677" y="776.4468686868687"/>
      <point x="647.379797979798" y="846.6144646464646" type="curve" smooth="yes"/>
      <point x="547.4468686868687" y="872.3686464646464" type="line" smooth="yes"/>
      <point x="381.01664646464644" y="916.5697777777777"/>
      <point x="327.69818181818187" y="969.5139393939394"/>
      <point x="327.69818181818187" y="1077.5251717171718" type="curve" smooth="yes"/>
      <point x="327.69818181818187" y="1203.0336161616162"/>
      <point x="418.43006060606064" y="1281.8939797979797"/>
      <point x="668.6311919191919" y="1281.8939797979797" type="curve" smooth="yes"/>
      <point x="772.6311919191919" y="1281.8939797979797"/>
      <point x="889.8881616161616" y="1266.8101818181817"/>
      <point x="986.7596767676768" y="1238.6872727272728" type="curve"/>
      <point x="986.7596767676768" y="1457.8770909090908" type="line"/>
      <point x="893.5920808080808" y="1483.541898989899"/>
      <point x="773.005494949495" y="1499.083797979798"/>
      <point x="653.6647272727273" y="1499.083797979798" type="curve" smooth="yes"/>
      <point x="256.2122828282828" y="1499.083797979798"/>
      <point x="61.69834343434343" y="1335.3687272727273"/>
      <point x="61.69834343434343" y="1063.229090909091" type="curve" smooth="yes"/>
      <point x="61.69834343434343" y="840.9721212121212"/>
      <point x="191.99442424242423" y="710.1341414141414"/>
      <point x="449.29050505050503" y="645.5922424242424" type="curve" smooth="yes"/>
      <point x="549.2234343434343" y="619.8380606060606" type="line" smooth="yes"/>
      <point x="731.7821414141414" y="572.0112323232323"/>
      <point x="792.8492121212121" y="519.2737777777778"/>
      <point x="792.8492121212121" y="406.2625454545455" type="curve" smooth="yes"/>
      <point x="792.8492121212121" y="272.7149898989899"/>
      <point x="703.1620202020202" y="198.10602020202023"/>
      <point x="479.9329292929293" y="198.10602020202023" type="curve" smooth="yes"/>
      <point x="367.17874747474747" y="198.10602020202023"/>
      <point x="217.41341414141414" y="219.44121212121215"/>
      <point x="92.87151515151515" y="259.2736161616162" type="curve"/>
      <point x="92.87151515151515" y="40.08379797979798" type="line"/>
      <point x="211.45810101010102" y="1.6256969696969703"/>
      <point x="353.96646464646466" y="-19.08379797979798"/>
    </contour>
    <contour>
      <point x="437.6927676767677" y="-240.0" type="line"/>
      <point x="683.7708282828283" y="-240.0" type="line"/>
      <point x="683.7708282828283" y="47.9329292929293" type="line"/>
      <point x="437.6927676767677" y="43.3519191919192" type="line"/>
    </contour>
    <contour>
      <point x="437.6927676767677" y="1447.4860606060606" type="line"/>
      <point x="683.7708282828283" y="1447.4860606060606" type="line"/>
      <point x="683.7708282828283" y="1720.0" type="line"/>
      <point x="437.6927676767677" y="1720.0" type="line"/>
    </contour>
  </outline>
</glyph>
<glyph name="percent" format="2">
  <advance width="2004.8377373737374"/>
  <unicode hex="0025"/>
  <note>
450
</note>
  <outline>
    <contour>
      <point x="564.3630707070707" y="0.0" type="line"/>
      <point x="781.6757979797981" y="0.0" type="line"/>
      <point x="1440.4746666666667" y="1480.0" type="line"/>
      <point x="1223.1619393939395" y="1480.0" type="line"/>
    </contour>
    <contour>
      <point x="470.31280808080805" y="571.4972121212121" type="curve" smooth="yes"/>
      <point x="694.3742222222222" y="571.4972121212121"/>
      <point x="849.5529696969697" y="715.1731717171717"/>
      <point x="849.5529696969697" y="1035.290505050505" type="curve" smooth="yes"/>
      <point x="849.5529696969697" y="1355.4078383838385"/>
      <point x="695.7485252525253" y="1499.083797979798"/>
      <point x="470.31280808080805" y="1499.083797979798" type="curve" smooth="yes"/>
      <point x="244.8770909090909" y="1499.083797979798"/>
      <point x="91.07264646464645" y="1355.4078383838385"/>
      <point x="91.07264646464645" y="1035.290505050505" type="curve" smooth="yes"/>
      <point x="91.07264646464645" y="715.1731717171717"/>
      <point x="246.25139393939395" y="571.4972121212121"/>
    </contour>
    <contour>
      <point x="470.31280808080805" y="740.1675151515152" type="curve" smooth="yes"/>
      <point x="370.0390303030303" y="740.1675151515152"/>
      <point x="300.05018181818184" y="813.6144646464646"/>
      <point x="300.05018181818184" y="1036.2067070707071" type="curve" smooth="yes"/>
      <point x="300.05018181818184" y="1257.8827474747475"/>
      <point x="370.0390303030303" y="1330.4134949494949"/>
      <point x="470.31280808080805" y="1330.4134949494949" type="curve" smooth="yes"/>
      <point x="570.1284848484848" y="1330.4134949494949"/>
      <point x="640.5754343434344" y="1257.8827474747475"/>
      <point x="640.5754343434344" y="1034.374303030303" type="curve" smooth="yes"/>
      <point x="640.5754343434344" y="811.7820606060607"/>
      <point x="570.1284848484848" y="740.1675151515152"/>
    </contour>
    <contour>
      <point x="1534.5249292929293" y="-18.0" type="curve" smooth="yes"/>
      <point x="1759.0444444444445" y="-18.0"/>
      <point x="1913.765090909091" y="125.6759595959596"/>
      <point x="1913.765090909091" y="445.79329292929293" type="curve" smooth="yes"/>
      <point x="1913.765090909091" y="765.9106262626262"/>
      <point x="1759.5025454545455" y="909.5865858585859"/>
      <point x="1534.5249292929293" y="909.5865858585859" type="curve" smooth="yes"/>
      <point x="1309.547313131313" y="909.5865858585859"/>
      <point x="1155.2847676767678" y="765.9106262626262"/>
      <point x="1155.2847676767678" y="445.79329292929293" type="curve" smooth="yes"/>
      <point x="1155.2847676767678" y="125.6759595959596"/>
      <point x="1310.0054141414141" y="-18.0"/>
    </contour>
    <contour>
      <point x="1534.5249292929293" y="150.67030303030305" type="curve" smooth="yes"/>
      <point x="1434.7092525252526" y="150.67030303030305"/>
      <point x="1364.262303030303" y="224.11725252525252"/>
      <point x="1364.262303030303" y="446.70949494949497" type="curve" smooth="yes"/>
      <point x="1364.262303030303" y="668.3855353535354"/>
      <point x="1434.7092525252526" y="740.9162828282829"/>
      <point x="1534.5249292929293" y="740.9162828282829" type="curve" smooth="yes"/>
      <point x="1634.3406060606062" y="740.9162828282829"/>
      <point x="1704.7875555555556" y="668.3855353535354"/>
      <point x="1704.7875555555556" y="444.8770909090909" type="curve" smooth="yes"/>
      <point x="1704.7875555555556" y="222.2848484848485"/>
      <point x="1634.3406060606062" y="150.67030303030305"/>
    </contour>
  </outline>
</glyph>
<glyph name="ampersand" format="2">
  <advance width="1564.0557575757575"/>
  <unicode hex="0026"/>
  <outline>
    <contour>
      <point x="1440.687111111111" y="-20.0" type="line"/>
      <point x="1564.0557575757575" y="174.51943434343437" type="line"/>
      <point x="717.5977373737373" y="768.5529696969697" type="line" smooth="yes"/>
      <point x="568.8434747474748" y="881.4357171717172"/>
      <point x="526.3071515151515" y="950.2960808080808"/>
      <point x="526.3071515151515" y="1051.1061818181818" type="curve" smooth="yes"/>
      <point x="526.3071515151515" y="1196.4917171717173"/>
      <point x="616.2513131313132" y="1281.8939797979797"/>
      <point x="864.1563636363636" y="1281.8939797979797" type="curve" smooth="yes"/>
      <point x="945.4468686868687" y="1281.8939797979797"/>
      <point x="1030.2848484848485" y="1271.8101818181817"/>
      <point x="1102.4077575757576" y="1254.6872727272728" type="curve"/>
      <point x="1102.4077575757576" y="1473.8770909090908" type="line"/>
      <point x="1027.7373737373737" y="1489.167595959596"/>
      <point x="943.8602828282828" y="1499.083797979798"/>
      <point x="846.5642020202021" y="1499.083797979798" type="curve" smooth="yes"/>
      <point x="450.4469494949495" y="1499.083797979798"/>
      <point x="260.3073131313131" y="1333.5754343434344"/>
      <point x="260.3073131313131" y="1056.0670707070708" type="curve" smooth="yes"/>
      <point x="260.3073131313131" y="892.6983434343434"/>
      <point x="331.34642424242423" y="757.7765656565657"/>
      <point x="594.2290909090909" y="574.0335353535354" type="curve" smooth="yes"/>
    </contour>
    <contour>
      <point x="688.5083636363636" y="-18.0" type="curve" smooth="yes"/>
      <point x="1086.2848484848485" y="-18.0"/>
      <point x="1324.6367676767677" y="185.88824242424243"/>
      <point x="1324.6367676767677" y="581.2513131313132" type="curve" smooth="yes"/>
      <point x="1324.6367676767677" y="661.9552323232324"/>
      <point x="1312.7205656565657" y="754.5362424242425"/>
      <point x="1289.1395555555555" y="839.1172525252525" type="curve"/>
      <point x="1074.9944242424242" y="839.1172525252525" type="line"/>
      <point x="1099.0335353535354" y="754.5362424242425"/>
      <point x="1112.8659393939395" y="659.9552323232324"/>
      <point x="1112.8659393939395" y="579.0837171717172" type="curve" smooth="yes"/>
      <point x="1112.8659393939395" y="285.25131313131317"/>
      <point x="954.1620202020201" y="173.72056565656567"/>
      <point x="717.0614141414142" y="173.72056565656567" type="curve" smooth="yes"/>
      <point x="493.5138585858586" y="173.72056565656567"/>
      <point x="381.81551515151517" y="274.6591515151515"/>
      <point x="381.81551515151517" y="432.9273535353535" type="curve" smooth="yes"/>
      <point x="381.81551515151517" y="548.9497373737373"/>
      <point x="435.5138585858586" y="633.184404040404"/>
      <point x="536.2792727272728" y="692.0112323232323" type="curve"/>
      <point x="399.11175757575757" y="801.5754343434344" type="line"/>
      <point x="232.49163636363636" y="737.7094949494949"/>
      <point x="116.89947474747474" y="596.5027878787879"/>
      <point x="116.89947474747474" y="404.167595959596" type="curve" smooth="yes"/>
      <point x="116.89947474747474" y="150.74860606060605"/>
      <point x="309.49163636363636" y="-18.0"/>
    </contour>
  </outline>
</glyph>
<glyph name="quotesingle" format="2">
  <advance width="455.36307070707073"/>
  <unicode hex="0027"/>
  <outline>
    <contour>
      <point x="148.07264646464645" y="870.3799595959596" type="line"/>
      <point x="307.29042424242425" y="870.3799595959596" type="line"/>
      <point x="358.1786666666667" y="1616.0" type="line"/>
      <point x="97.18440404040403" y="1616.0" type="line"/>
    </contour>
  </outline>
</glyph>
<glyph name="parenleft" format="2">
  <advance width="695.3630707070707"/>
  <unicode hex="0028"/>
  <outline>
    <contour>
      <point x="453.5307474747475" y="-440.0" type="curve"/>
      <point x="728.6981818181819" y="-440.0" type="line"/>
      <point x="482.1562828282829" y="-133.9608888888889"/>
      <point x="380.1562828282829" y="200.11733333333333"/>
      <point x="380.1562828282829" y="588.0" type="curve" smooth="yes"/>
      <point x="380.1562828282829" y="975.8826666666666"/>
      <point x="482.1562828282829" y="1309.9608888888888"/>
      <point x="728.6981818181819" y="1616.0" type="curve"/>
      <point x="453.5307474747475" y="1616.0" type="line"/>
      <point x="212.19555555555556" y="1332.9664646464646"/>
      <point x="111.4469494949495" y="980.7988686868687"/>
      <point x="111.4469494949495" y="588.0" type="curve" smooth="yes"/>
      <point x="111.4469494949495" y="195.20113131313133"/>
      <point x="212.19555555555556" y="-156.96646464646466"/>
    </contour>
  </outline>
</glyph>
<glyph name="parenright" format="2">
  <advance width="695.3630707070707"/>
  <unicode hex="0029"/>
  <outline>
    <contour>
      <point x="-33.33511111111113" y="-440.0" type="curve"/>
      <point x="241.83232323232323" y="-440.0" type="line"/>
      <point x="483.16751515151515" y="-156.96646464646466"/>
      <point x="583.9161212121212" y="195.20113131313133"/>
      <point x="583.9161212121212" y="588.0" type="curve" smooth="yes"/>
      <point x="583.9161212121212" y="980.7988686868687"/>
      <point x="483.16751515151515" y="1332.9664646464646"/>
      <point x="241.83232323232323" y="1616.0" type="curve"/>
      <point x="-33.33511111111113" y="1616.0" type="line"/>
      <point x="213.20678787878785" y="1309.9608888888888"/>
      <point x="315.20678787878785" y="975.8826666666666"/>
      <point x="315.20678787878785" y="588.0" type="curve" smooth="yes"/>
      <point x="315.20678787878785" y="200.11733333333333"/>
      <point x="213.20678787878785" y="-133.9608888888889"/>
    </contour>
  </outline>
</glyph>
<glyph name="asterisk" format="2">
  <advance width="974.2122020202021"/>
  <unicode hex="002A"/>
  <outline>
    <contour>
      <point x="584.6367676767677" y="1154.352" type="line"/>
      <point x="774.5082828282829" y="1185.0112323232324" type="line"/>
      <point x="944.2122020202021" y="1239.7598383838383" type="line"/>
      <point x="888.9887676767677" y="1408.6815353535353" type="line"/>
      <point x="720.2010505050505" y="1353.3910303030302" type="line"/>
      <point x="544.8323232323232" y="1263.4692525252526" type="line"/>
      <point x="576.005494949495" y="1458.2569696969697" type="line"/>
      <point x="576.005494949495" y="1616.0" type="line"/>
      <point x="398.20670707070707" y="1616.0" type="line"/>
      <point x="398.20670707070707" y="1458.2569696969697" type="line"/>
      <point x="429.3798787878788" y="1263.4692525252526" type="line"/>
      <point x="254.0111515151515" y="1353.3910303030302" type="line"/>
      <point x="85.22343434343435" y="1408.6815353535353" type="line"/>
      <point x="30.0" y="1239.7598383838383" type="line"/>
      <point x="199.7039191919192" y="1185.0112323232324" type="line"/>
      <point x="389.5754343434343" y="1154.352" type="line"/>
      <point x="252.15644444444445" y="1016.7765656565657" type="line"/>
      <point x="156.53632323232324" y="885.3240404040404" type="line"/>
      <point x="300.6591515151515" y="780.6704646464647" type="line"/>
      <point x="396.27927272727277" y="911.5810909090909" type="line"/>
      <point x="487.10610101010104" y="1093.1676767676768" type="line"/>
      <point x="577.9329292929293" y="911.5810909090909" type="line"/>
      <point x="673.5530505050505" y="780.6704646464647" type="line"/>
      <point x="817.6758787878788" y="885.3240404040404" type="line"/>
      <point x="722.0557575757575" y="1016.7765656565657" type="line"/>
    </contour>
  </outline>
</glyph>
<glyph name="plus" format="2">
  <advance width="1091.2625454545455"/>
  <unicode hex="002B"/>
  <outline>
    <contour>
      <point x="439.55870707070704" y="332.4804848484848" type="line"/>
      <point x="651.7038383838384" y="332.4804848484848" type="line"/>
      <point x="651.7038383838384" y="658.6369292929293" type="line"/>
      <point x="962.7373737373738" y="658.6369292929293" type="line"/>
      <point x="962.7373737373738" y="861.3630707070707" type="line"/>
      <point x="651.7038383838384" y="861.3630707070707" type="line"/>
      <point x="651.7038383838384" y="1187.5195151515152" type="line"/>
      <point x="439.55870707070704" y="1187.5195151515152" type="line"/>
      <point x="439.55870707070704" y="861.3630707070707" type="line"/>
      <point x="128.5251717171717" y="861.3630707070707" type="line"/>
      <point x="128.5251717171717" y="658.6369292929293" type="line"/>
      <point x="439.55870707070704" y="658.6369292929293" type="line"/>
    </contour>
  </outline>
</glyph>
<glyph name="hyphen" format="2">
  <advance width="883.6200404040404"/>
  <unicode hex="002D"/>
  <outline>
    <contour>
      <point x="128.5251717171717" y="458.0950303030303" type="line"/>
      <point x="755.0948686868687" y="458.0950303030303" type="line"/>
      <point x="755.0948686868687" y="672.7429494949495" type="line"/>
      <point x="128.5251717171717" y="672.7429494949495" type="line"/>
    </contour>
  </outline>
</glyph>
<glyph name="period" format="2">
  <advance width="521.9663838383839"/>
  <unicode hex="002E"/>
  <outline>
    <contour>
      <point x="260.98319191919194" y="-15.4189898989899" type="curve" smooth="yes"/>
      <point x="365.80436363636363" y="-15.4189898989899"/>
      <point x="434.6143838383839" y="49.22343434343435"/>
      <point x="434.6143838383839" y="147.91612121212123" type="curve" smooth="yes"/>
      <point x="434.6143838383839" y="246.6088080808081"/>
      <point x="367.97195959595956" y="312.16743434343437"/>
      <point x="260.98319191919194" y="312.16743434343437" type="curve" smooth="yes"/>
      <point x="153.99442424242423" y="312.16743434343437"/>
      <point x="87.35199999999999" y="248.77640404040406"/>
      <point x="87.35199999999999" y="147.91612121212123" type="curve" smooth="yes"/>
      <point x="87.35199999999999" y="47.05583838383839"/>
      <point x="156.1620202020202" y="-15.4189898989899"/>
    </contour>
  </outline>
</glyph>
<glyph name="slash" format="2">
  <advance width="726.1730101010102"/>
  <unicode hex="002F"/>
  <outline>
    <contour>
      <point x="0.0" y="-240.0" type="line"/>
      <point x="258.1227474747475" y="-240.0" type="line"/>
      <point x="726.1730101010102" y="1616.0" type="line"/>
      <point x="468.0502626262626" y="1616.0" type="line"/>
    </contour>
  </outline>
</glyph>
<glyph name="zero" format="2">
  <advance width="1305.837898989899"/>
  <unicode hex="0030"/>
  <note>
600
</note>
  <outline>
    <contour>
      <point x="652.648" y="-19.08379797979798" type="curve" smooth="yes"/>
      <point x="993.463595959596" y="-19.08379797979798"/>
      <point x="1204.3909494949496" y="202.92735353535355"/>
      <point x="1204.3909494949496" y="740.0" type="curve" smooth="yes"/>
      <point x="1204.3909494949496" y="1277.0726464646464"/>
      <point x="995.296" y="1499.083797979798"/>
      <point x="652.648" y="1499.083797979798" type="curve" smooth="yes"/>
      <point x="310.0" y="1499.083797979798"/>
      <point x="101.4469494949495" y="1277.0726464646464"/>
      <point x="101.4469494949495" y="740.0" type="curve" smooth="yes"/>
      <point x="101.4469494949495" y="202.92735353535355"/>
      <point x="311.83240404040407" y="-19.08379797979798"/>
    </contour>
    <contour>
      <point x="653.189898989899" y="201.35741414141415" type="curve" smooth="yes"/>
      <point x="472.7987878787879" y="201.35741414141415"/>
      <point x="364.19539393939397" y="326.3015757575758"/>
      <point x="364.19539393939397" y="741.8324040404041" type="curve" smooth="yes"/>
      <point x="364.19539393939397" y="1153.6984242424242"/>
      <point x="473.8825858585859" y="1278.6425858585858"/>
      <point x="653.189898989899" y="1278.6425858585858" type="curve" smooth="yes"/>
      <point x="831.9553131313131" y="1278.6425858585858"/>
      <point x="941.6425050505051" y="1153.6984242424242"/>
      <point x="941.6425050505051" y="738.1675959595959" type="curve" smooth="yes"/>
      <point x="941.6425050505051" y="326.3015757575758"/>
      <point x="831.9553131313131" y="201.35741414141415"/>
    </contour>
  </outline>
</glyph>
<glyph name="one" format="2">
  <advance width="794.9272727272728"/>
  <unicode hex="0031"/>
  <outline>
    <contour>
      <point x="372.4860606060606" y="0.0" type="line"/>
      <point x="638.821090909091" y="0.0" type="line"/>
      <point x="638.821090909091" y="1485.083797979798" type="line"/>
      <point x="467.84913131313135" y="1485.083797979798" type="line"/>
      <point x="26.251393939393942" y="1174.8715151515153" type="line"/>
      <point x="26.251393939393942" y="922.8381414141413" type="line"/>
      <point x="467.84913131313135" y="1232.1342222222222" type="line"/>
      <point x="372.4860606060606" y="1316.3799595959597" type="line"/>
    </contour>
  </outline>
</glyph>
<glyph name="two" format="2">
  <advance width="1042.212202020202"/>
  <unicode hex="0032"/>
  <outline>
    <contour>
      <point x="52.36872727272727" y="0.0" type="line"/>
      <point x="985.2177777777779" y="0.0" type="line"/>
      <point x="985.2177777777779" y="221.6926060606061" type="line"/>
      <point x="338.08921212121214" y="221.6926060606061" type="line"/>
      <point x="348.1283232323233" y="152.71498989898993" type="line"/>
      <point x="694.7708282828282" y="588.8324040404041" type="line" smooth="yes"/>
      <point x="856.3909494949495" y="790.3184646464647"/>
      <point x="910.5976565656566" y="930.1955555555555"/>
      <point x="911.0557575757576" y="1082.8994747474746" type="curve" smooth="yes"/>
      <point x="911.9719595959596" y="1372.0782222222222"/>
      <point x="728.7932121212122" y="1499.083797979798"/>
      <point x="386.96646464646466" y="1499.083797979798" type="curve" smooth="yes"/>
      <point x="264.7150707070707" y="1499.083797979798"/>
      <point x="122.6201212121212" y="1475.916202020202"/>
      <point x="34.28492929292929" y="1443.167595959596" type="curve"/>
      <point x="34.28492929292929" y="1223.9777777777776" type="line"/>
      <point x="127.7821414141414" y="1260.1844848484848"/>
      <point x="243.32961616161617" y="1281.8939797979797"/>
      <point x="360.41341414141414" y="1281.8939797979797" type="curve" smooth="yes"/>
      <point x="559.0279595959596" y="1281.8939797979797"/>
      <point x="647.5978181818182" y="1213.4023434343435"/>
      <point x="647.5978181818182" y="1058.1397171717172" type="curve" smooth="yes"/>
      <point x="647.5978181818182" y="950.8212525252525"/>
      <point x="599.268202020202" y="843.374303030303"/>
      <point x="466.4860606060606" y="672.9329292929293" type="curve" smooth="yes"/>
      <point x="52.36872727272727" y="143.5027070707071" type="line"/>
    </contour>
  </outline>
</glyph>
<glyph name="three" format="2">
  <advance width="1060.0390303030304"/>
  <unicode hex="0033"/>
  <outline>
    <contour>
      <point x="421.3016565656566" y="-19.08379797979798" type="curve" smooth="yes"/>
      <point x="804.9943434343435" y="-19.08379797979798"/>
      <point x="995.5865050505051" y="140.04468686868688"/>
      <point x="995.5865050505051" y="407.08937373737376" type="curve" smooth="yes"/>
      <point x="995.5865050505051" y="615.2513939393939"/>
      <point x="871.0501818181818" y="742.3296161616162"/>
      <point x="646.5641212121212" y="774.4134141414141" type="curve"/>
      <point x="646.1060202020202" y="756.0" type="line"/>
      <point x="832.9272727272728" y="795.7486060606061"/>
      <point x="947.1284040404041" y="926.7039191919192"/>
      <point x="947.1284040404041" y="1110.0726464646464" type="curve" smooth="yes"/>
      <point x="947.1284040404041" y="1357.4134141414143"/>
      <point x="772.4524444444445" y="1499.083797979798"/>
      <point x="432.7988686868687" y="1499.083797979798" type="curve" smooth="yes"/>
      <point x="310.0446868686869" y="1499.083797979798"/>
      <point x="170.57543434343435" y="1477.916202020202"/>
      <point x="75.3240404040404" y="1444.541898989899" type="curve"/>
      <point x="75.3240404040404" y="1241.6090505050504" type="line"/>
      <point x="176.9888484848485" y="1277.8995555555555"/>
      <point x="295.1620202020202" y="1297.0671515151514"/>
      <point x="405.70391919191917" y="1297.0671515151514" type="curve" smooth="yes"/>
      <point x="599.8547878787879" y="1297.0671515151514"/>
      <point x="691.2570505050505" y="1223.9553939393938"/>
      <point x="691.2570505050505" y="1087.8547878787879" type="curve" smooth="yes"/>
      <point x="691.2570505050505" y="943.1787474747475"/>
      <point x="587.2402424242424" y="860.1116767676767"/>
      <point x="355.72622222222225" y="860.1116767676767" type="curve" smooth="yes"/>
      <point x="213.48048484848485" y="860.1116767676767" type="line"/>
      <point x="213.48048484848485" y="655.3855353535354" type="line"/>
      <point x="415.70949494949497" y="655.3855353535354" type="line" smooth="yes"/>
      <point x="648.8156767676768" y="655.3855353535354"/>
      <point x="743.5084444444444" y="570.5698585858586"/>
      <point x="743.5084444444444" y="422.2625454545455" type="curve" smooth="yes"/>
      <point x="743.5084444444444" y="266.0837171717172"/>
      <point x="639.1508686868686" y="182.9328484848485"/>
      <point x="411.46367676767676" y="182.9328484848485" type="curve" smooth="yes"/>
      <point x="294.79329292929293" y="182.9328484848485"/>
      <point x="160.07822222222222" y="202.9328484848485"/>
      <point x="46.1620202020202" y="236.88816161616163" type="curve"/>
      <point x="46.1620202020202" y="33.95531313131313" type="line"/>
      <point x="159.83240404040404" y="-0.16759595959595974"/>
      <point x="288.5027878787879" y="-19.08379797979798"/>
    </contour>
  </outline>
</glyph>
<glyph name="four" format="2">
  <advance width="1239.631191919192"/>
  <unicode hex="0034"/>
  <outline>
    <contour>
      <point x="40.994424242424245" y="322.7654141414141" type="line"/>
      <point x="1203.9272727272728" y="322.7654141414141" type="line"/>
      <point x="1203.9272727272728" y="530.9105454545455" type="line"/>
      <point x="271.86020202020205" y="530.9105454545455" type="line"/>
      <point x="303.0333737373738" y="467.5195151515152" type="line"/>
      <point x="836.0837171717171" y="1480.0" type="line"/>
      <point x="578.0056565656565" y="1480.0" type="line"/>
      <point x="40.994424242424245" y="468.43571717171716" type="line"/>
    </contour>
    <contour>
      <point x="765.8212525252525" y="0.0" type="line"/>
      <point x="1006.1451313131313" y="0.0" type="line"/>
      <point x="1006.1451313131313" y="980.0" type="line"/>
      <point x="793.9106262626262" y="980.0" type="line"/>
      <point x="765.8212525252525" y="530.9105454545455" type="line"/>
    </contour>
  </outline>
</glyph>
<glyph name="five" format="2">
  <advance width="1071.7485252525253"/>
  <unicode hex="0035"/>
  <outline>
    <contour>
      <point x="448.3016565656566" y="-19.08379797979798" type="curve" smooth="yes"/>
      <point x="825.1172525252525" y="-19.08379797979798"/>
      <point x="1020.5027070707071" y="138.67038383838383"/>
      <point x="1021.044606060606" y="433.17874747474747" type="curve" smooth="yes"/>
      <point x="1021.5865050505051" y="711.8100202020203"/>
      <point x="844.0837171717172" y="856.106101010101"/>
      <point x="406.2345858585859" y="881.189898989899" type="curve" smooth="yes"/>
      <point x="219.0669898989899" y="891.648" type="line"/>
      <point x="377.8210909090909" y="793.083797979798" type="line"/>
      <point x="417.944" y="1385.810101010101" type="line"/>
      <point x="301.1172525252525" y="1272.3967676767677" type="line"/>
      <point x="960.6703030303031" y="1272.3967676767677" type="line"/>
      <point x="960.6703030303031" y="1480.0" type="line"/>
      <point x="173.03353535353534" y="1480.0" type="line"/>
      <point x="122.40783838383838" y="692.3408484848485" type="line"/>
      <point x="309.5754343434343" y="681.8827474747475" type="line" smooth="yes"/>
      <point x="667.1508686868686" y="660.9665454545454"/>
      <point x="768.4246464646465" y="584.8547878787879"/>
      <point x="768.4246464646465" y="427.3016565656566" type="curve" smooth="yes"/>
      <point x="768.4246464646465" y="267.79321212121215"/>
      <point x="665.4413737373737" y="185.10044444444446"/>
      <point x="438.9217777777778" y="185.10044444444446" type="curve" smooth="yes"/>
      <point x="319.9608888888889" y="185.10044444444446"/>
      <point x="185.24581818181818" y="206.10044444444446"/>
      <point x="72.7039191919192" y="240.13955555555557" type="curve"/>
      <point x="72.7039191919192" y="37.20670707070707" type="line"/>
      <point x="185.0" y="1.91620202020202"/>
      <point x="314.58658585858586" y="-19.08379797979798"/>
    </contour>
  </outline>
</glyph>
<glyph name="six" format="2">
  <advance width="1214.3853737373738"/>
  <unicode hex="0036"/>
  <outline>
    <contour>
      <point x="666.7709090909091" y="-19.08379797979798" type="curve" smooth="yes"/>
      <point x="963.1730909090909" y="-19.08379797979798"/>
      <point x="1158.5138585858585" y="145.55305050505052"/>
      <point x="1158.5138585858585" y="435.34634343434345" type="curve" smooth="yes"/>
      <point x="1158.5138585858585" y="738.312808080808"/>
      <point x="961.1730909090909" y="875.6871111111111"/>
      <point x="691.463595959596" y="875.6871111111111" type="curve" smooth="yes"/>
      <point x="549.3015757575757" y="875.6871111111111"/>
      <point x="405.05575757575764" y="826.731797979798"/>
      <point x="325.72614141414147" y="744.4859797979798" type="curve"/>
      <point x="325.72614141414147" y="550.9385858585858" type="line"/>
      <point x="406.26246464646465" y="642.3855353535354"/>
      <point x="531.0781414141414" y="680.7151515151515"/>
      <point x="641.4021818181818" y="680.7151515151515" type="curve" smooth="yes"/>
      <point x="807.916202020202" y="680.7151515151515"/>
      <point x="915.6480808080807" y="603.687191919192"/>
      <point x="915.6480808080807" y="427.4692525252525" type="curve" smooth="yes"/>
      <point x="915.6480808080807" y="253.79321212121215"/>
      <point x="811.458101010101" y="176.97195959595962"/>
      <point x="668.312808080808" y="176.97195959595962" type="curve" smooth="yes"/>
      <point x="487.4244848484849" y="176.97195959595962"/>
      <point x="371.02779797979804" y="284.91054545454546"/>
      <point x="371.02779797979804" y="654.0670707070707" type="curve" smooth="yes"/>
      <point x="371.02779797979804" y="760.3574949494949" type="line" smooth="yes"/>
      <point x="371.02779797979804" y="1129.2514747474747"/>
      <point x="515.1395555555556" y="1292.7319595959596"/>
      <point x="806.7485252525253" y="1292.7319595959596" type="curve" smooth="yes"/>
      <point x="902.296" y="1292.7319595959596"/>
      <point x="1000.005494949495" y="1278.6481616161616"/>
      <point x="1085.3015757575758" y="1247.1900606060606" type="curve"/>
      <point x="1085.3015757575758" y="1454.458101010101" type="line"/>
      <point x="1001.005494949495" y="1487.083797979798"/>
      <point x="899.7932121212122" y="1499.083797979798"/>
      <point x="794.7429494949495" y="1499.083797979798" type="curve" smooth="yes"/>
      <point x="357.1731717171717" y="1499.083797979798"/>
      <point x="111.36315151515151" y="1241.7430303030303"/>
      <point x="111.36315151515151" y="692.0" type="curve" smooth="yes"/>
      <point x="111.36315151515151" y="182.42456565656568"/>
      <point x="335.79329292929293" y="-19.08379797979798"/>
    </contour>
  </outline>
</glyph>
<glyph name="seven" format="2">
  <advance width="992.7932121212122"/>
  <unicode hex="0037"/>
  <outline>
    <contour>
      <point x="159.94973737373738" y="0.0" type="line"/>
      <point x="433.99426262626264" y="0.0" type="line"/>
      <point x="934.8770101010101" y="1336.4972929292928" type="line"/>
      <point x="934.8770101010101" y="1480.0" type="line"/>
      <point x="11.45810101010101" y="1480.0" type="line"/>
      <point x="11.45810101010101" y="1258.307393939394" type="line"/>
      <point x="765.2458181818182" y="1258.307393939394" type="line"/>
      <point x="679.6313535353535" y="1337.4134949494949" type="line"/>
    </contour>
  </outline>
</glyph>
<glyph name="eight" format="2">
  <advance width="1305.837898989899"/>
  <unicode hex="0038"/>
  <outline>
    <contour>
      <point x="658.7709090909091" y="-19.08379797979798" type="curve" smooth="yes"/>
      <point x="1026.3406868686868" y="-19.08379797979798"/>
      <point x="1216.4300606060606" y="154.7597575757576"/>
      <point x="1216.4300606060606" y="396.80444444444447" type="curve" smooth="yes"/>
      <point x="1216.4300606060606" y="611.0558383838384"/>
      <point x="1098.1004444444445" y="741.4357171717172"/>
      <point x="737.2122020202021" y="836.3183838383839" type="curve" smooth="yes"/>
      <point x="451.8434747474748" y="909.6535757575758"/>
      <point x="383.6479191919192" y="977.6815353535353"/>
      <point x="383.6479191919192" y="1106.7821414141415" type="curve" smooth="yes"/>
      <point x="383.6479191919192" y="1228.6704646464646"/>
      <point x="473.4244848484849" y="1311.1565252525252"/>
      <point x="662.3630707070707" y="1311.1565252525252" type="curve" smooth="yes"/>
      <point x="842.0893737373738" y="1311.1565252525252"/>
      <point x="940.9050505050504" y="1236.6704646464646"/>
      <point x="940.9050505050504" y="1100.6145454545454" type="curve" smooth="yes"/>
      <point x="940.9050505050504" y="974.7206464646465"/>
      <point x="875.2067070707071" y="889.7709090909091"/>
      <point x="715.2681212121212" y="816.5250909090909" type="curve"/>
      <point x="880.8099393939394" y="745.9664646464646" type="line"/>
      <point x="1086.150707070707" y="826.3854545454545"/>
      <point x="1172.5585454545455" y="961.3854545454545"/>
      <point x="1172.5585454545455" y="1124.916202020202" type="curve" smooth="yes"/>
      <point x="1172.5585454545455" y="1357.083797979798"/>
      <point x="984.4244848484849" y="1499.083797979798"/>
      <point x="665.5306666666667" y="1499.083797979798" type="curve" smooth="yes"/>
      <point x="316.2458181818182" y="1499.083797979798"/>
      <point x="130.65365656565658" y="1338.1173333333334"/>
      <point x="130.65365656565658" y="1097.1955555555555" type="curve" smooth="yes"/>
      <point x="130.65365656565658" y="882.9050505050504"/>
      <point x="254.86036363636362" y="735.2290909090909"/>
      <point x="615.122909090909" y="646.3073131313131" type="curve" smooth="yes"/>
      <point x="887.6145454545455" y="579.474909090909"/>
      <point x="966.687191919192" y="514.2346666666666"/>
      <point x="966.687191919192" y="381.50836363636364" type="curve" smooth="yes"/>
      <point x="966.687191919192" y="247.1619393939394"/>
      <point x="865.2067070707071" y="168.84347474747477"/>
      <point x="659.7709090909091" y="168.84347474747477" type="curve" smooth="yes"/>
      <point x="443.4244848484849" y="168.84347474747477"/>
      <point x="337.6088080808081" y="251.32953535353536"/>
      <point x="337.6088080808081" y="398.38545454545454" type="curve" smooth="yes"/>
      <point x="337.6088080808081" y="523.4022626262627"/>
      <point x="418.4691717171717" y="634.7654141414141"/>
      <point x="586.7038383838384" y="686.3464242424242" type="curve"/>
      <point x="407.3240404040404" y="756.1955555555555" type="line"/>
      <point x="202.73745454545454" y="689.6536565656565"/>
      <point x="87.24024242424242" y="550.3240404040404"/>
      <point x="87.24024242424242" y="369.832404040404" type="curve" smooth="yes"/>
      <point x="87.24024242424242" y="135.63127272727272"/>
      <point x="270.49163636363636" y="-19.08379797979798"/>
    </contour>
  </outline>
</glyph>
<glyph name="less" format="2">
  <advance width="1091.2625454545455"/>
  <unicode hex="003C"/>
  <outline>
    <contour>
      <point x="962.7373737373738" y="308.4581818181818" type="line"/>
      <point x="962.7373737373738" y="514.8491313131314" type="line"/>
      <point x="280.8547070707071" y="777.9608888888889" type="line"/>
      <point x="280.8547070707071" y="744.7486060606061" type="line"/>
      <point x="962.7373737373738" y="1005.1508686868686" type="line"/>
      <point x="962.7373737373738" y="1211.5418181818181" type="line"/>
      <point x="128.5251717171717" y="882.4580202020202" type="line"/>
      <point x="128.5251717171717" y="637.5419797979798" type="line"/>
    </contour>
  </outline>
</glyph>
<glyph name="equal" format="2">
  <advance width="1091.2625454545455"/>
  <unicode hex="003D"/>
  <outline>
    <contour>
      <point x="128.5251717171717" y="872.0670707070707" type="line"/>
      <point x="962.7373737373738" y="872.0670707070707" type="line"/>
      <point x="962.7373737373738" y="1074.793212121212" type="line"/>
      <point x="128.5251717171717" y="1074.793212121212" type="line"/>
    </contour>
    <contour>
      <point x="128.5251717171717" y="445.20678787878785" type="line"/>
      <point x="962.7373737373738" y="445.20678787878785" type="line"/>
      <point x="962.7373737373738" y="647.9329292929293" type="line"/>
      <point x="128.5251717171717" y="647.9329292929293" type="line"/>
    </contour>
  </outline>
</glyph>
<glyph name="question" format="2">
  <advance width="959.7541010101011"/>
  <unicode hex="003F"/>
  <outline>
    <contour>
      <point x="349.1620202020202" y="425.72056565656567" type="line"/>
      <point x="510.4189090909091" y="425.72056565656567" type="line"/>
      <point x="530.7149898989899" y="679.5810101010101" type="line"/>
      <point x="783.5362424242425" y="764.2346666666666"/>
      <point x="906.0501818181818" y="894.1117575757576"/>
      <point x="906.0501818181818" y="1107.3631515151515" type="curve" smooth="yes"/>
      <point x="906.0501818181818" y="1357.4134141414143"/>
      <point x="731.3742222222222" y="1499.083797979798"/>
      <point x="391.72064646464645" y="1499.083797979798" type="curve" smooth="yes"/>
      <point x="268.96646464646466" y="1499.083797979798"/>
      <point x="129.49721212121213" y="1477.916202020202"/>
      <point x="34.24581818181818" y="1444.541898989899" type="curve"/>
      <point x="34.24581818181818" y="1236.1900606060606" type="line"/>
      <point x="135.91062626262627" y="1272.4805656565657"/>
      <point x="253.0" y="1291.6481616161616"/>
      <point x="363.08379797979796" y="1291.6481616161616" type="curve" smooth="yes"/>
      <point x="558.7765656565657" y="1291.6481616161616"/>
      <point x="650.1788282828282" y="1220.162101010101"/>
      <point x="650.1788282828282" y="1086.77098989899" type="curve" smooth="yes"/>
      <point x="650.1788282828282" y="957.0055757575758"/>
      <point x="571.810101010101" y="872.7262222222222"/>
      <point x="304.1061818181818" y="807.4915555555556" type="curve"/>
    </contour>
    <contour>
      <point x="430.06141414141416" y="-15.4189898989899" type="curve" smooth="yes"/>
      <point x="535.7987878787878" y="-15.4189898989899"/>
      <point x="603.6926060606061" y="47.97204040404041"/>
      <point x="603.6926060606061" y="140.87143434343437" type="curve" smooth="yes"/>
      <point x="603.6926060606061" y="234.68703030303033"/>
      <point x="537.0501818181818" y="298.0780606060606"/>
      <point x="430.06141414141416" y="298.0780606060606" type="curve" smooth="yes"/>
      <point x="323.0726464646465" y="298.0780606060606"/>
      <point x="256.4302222222222" y="236.85462626262628"/>
      <point x="256.4302222222222" y="140.87143434343437" type="curve" smooth="yes"/>
      <point x="256.4302222222222" y="45.80444444444445"/>
      <point x="325.2402424242424" y="-15.4189898989899"/>
    </contour>
  </outline>
</glyph>
<glyph name="at" format="2">
  <advance width="2027.9663030303032"/>
  <unicode hex="0040"/>
  <outline>
    <contour>
      <point x="1060.670303030303" y="-460.0" type="curve" smooth="yes"/>
      <point x="1211.2624646464647" y="-460.0"/>
      <point x="1358.2289292929293" y="-440.167595959596"/>
      <point x="1493.5752727272727" y="-405.08379797979796" type="curve"/>
      <point x="1493.5752727272727" y="-229.78779797979797" type="line"/>
      <point x="1347.5250101010101" y="-267.16210101010097"/>
      <point x="1208.9719595959596" y="-285.620202020202"/>
      <point x="1060.670303030303" y="-285.620202020202" type="curve" smooth="yes"/>
      <point x="536.8267474747474" y="-285.620202020202"/>
      <point x="293.50270707070706" y="-63.843636363636364"/>
      <point x="293.50270707070706" y="521.8324040404041" type="curve" smooth="yes"/>
      <point x="293.50270707070706" y="1101.0950303030304"/>
      <point x="535.9105454545454" y="1323.620202020202"/>
      <point x="1021.379797979798" y="1323.620202020202" type="curve" smooth="yes"/>
      <point x="1506.9328484848486" y="1323.620202020202"/>
      <point x="1747.13397979798" y="1107.2626262626263"/>
      <point x="1749.3015757575758" y="568.0893737373738" type="curve" smooth="yes"/>
      <point x="1750.9272727272728" y="245.4859797979798"/>
      <point x="1670.3574141414142" y="155.29600000000002"/>
      <point x="1572.9495757575758" y="155.29600000000002" type="curve" smooth="yes"/>
      <point x="1503.2512323232322" y="155.29600000000002"/>
      <point x="1466.2121212121212" y="193.83232323232323"/>
      <point x="1466.2121212121212" y="289.9440808080808" type="curve" smooth="yes"/>
      <point x="1466.2121212121212" y="670.9665454545454" type="line" smooth="yes"/>
      <point x="1466.2121212121212" y="989.2402424242424"/>
      <point x="1315.9551515151516" y="1097.083797979798"/>
      <point x="1000.7932121212122" y="1097.083797979798" type="curve" smooth="yes"/>
      <point x="892.5362424242425" y="1097.083797979798"/>
      <point x="765.4468686868687" y="1078.458101010101"/>
      <point x="665.648" y="1044.290505050505" type="curve"/>
      <point x="664.5642020202021" y="843.5252525252524" type="line"/>
      <point x="762.0614141414142" y="878.3576565656565"/>
      <point x="872.480404040404" y="895.0671515151515"/>
      <point x="957.4412929292929" y="895.0671515151515" type="curve" smooth="yes"/>
      <point x="1133.6033131313131" y="895.0671515151515"/>
      <point x="1210.7150707070707" y="844.6537373737374"/>
      <point x="1210.7150707070707" y="681.2626262626262" type="curve" smooth="yes"/>
      <point x="1210.7150707070707" y="261.1843232323232" type="line"/>
      <point x="1153.854707070707" y="195.5418181818182"/>
      <point x="1069.2457373737375" y="169.2177777777778"/>
      <point x="1001.0166464646466" y="169.2177777777778" type="curve" smooth="yes"/>
      <point x="896.9998383838383" y="169.2177777777778"/>
      <point x="833.8825050505051" y="217.49713131313132"/>
      <point x="833.8825050505051" y="316.8938181818182" type="curve" smooth="yes"/>
      <point x="833.8825050505051" y="414.3351919191919"/>
      <point x="893.5808484848485" y="463.9497373737374"/>
      <point x="1026.0557575757575" y="477.19555555555553" type="curve" smooth="yes"/>
      <point x="1285.480404040404" y="501.93858585858584" type="line"/>
      <point x="1259.4692525252526" y="649.2234343434343" type="line"/>
      <point x="1002.6703030303031" y="624.4804040404041" type="line" smooth="yes"/>
      <point x="703.0614141414142" y="599.815595959596"/>
      <point x="574.5530505050506" y="489.26812121212123"/>
      <point x="574.5530505050506" y="289.7597575757576" type="curve" smooth="yes"/>
      <point x="574.5530505050506" y="100.17317171717173"/>
      <point x="703.5977373737373" y="-19.25139393939394"/>
      <point x="919.9831919191919" y="-19.25139393939394" type="curve" smooth="yes"/>
      <point x="1044.854707070707" y="-19.25139393939394"/>
      <point x="1161.4357171717172" y="24.99442424242424"/>
      <point x="1217.8435555555557" y="129.25139393939395" type="curve"/>
      <point x="1233.3463434343435" y="129.25139393939395" type="line"/>
      <point x="1282.150787878788" y="32.87151515151515"/>
      <point x="1376.5809292929293" y="-19.25139393939394"/>
      <point x="1517.4691717171718" y="-19.25139393939394" type="curve" smooth="yes"/>
      <point x="1760.5026262626263" y="-19.25139393939394"/>
      <point x="1936.0612525252527" y="143.6648080808081"/>
      <point x="1936.5193535353535" y="575.1731717171717" type="curve" smooth="yes"/>
      <point x="1936.9774545454545" y="1197.2067070707071"/>
      <point x="1609.3741414141414" y="1498.0"/>
      <point x="1021.379797979798" y="1498.0" type="curve" smooth="yes"/>
      <point x="433.9273535353535" y="1498.0"/>
      <point x="91.4469494949495" y="1197.2067070707071"/>
      <point x="91.4469494949495" y="520.0" type="curve" smooth="yes"/>
      <point x="91.4469494949495" y="-159.95531313131312"/>
      <point x="435.3016565656566" y="-459.541898989899"/>
    </contour>
  </outline>
</glyph>
<glyph name="A" format="2">
  <advance width="1418.2233535353535"/>
  <unicode hex="0041"/>
  <note>
520
</note>
  <anchor x="709.5697777777777" y="0.0" name="bottom"/>
  <anchor x="1399.1060202020203" y="0.0" name="ogonek"/>
  <anchor x="709.0278787878788" y="1520.0" name="top"/>
  <outline>
    <contour>
      <point x="19.11733333333333" y="0.0" type="line"/>
      <point x="280.1562828282829" y="0.0" type="line"/>
      <point x="722.8211717171718" y="1361.4246464646465" type="line"/>
      <point x="691.2345858585859" y="1361.4246464646465" type="line"/>
      <point x="1134.9832727272728" y="0.0" type="line"/>
      <point x="1399.1060202020203" y="0.0" type="line"/>
      <point x="901.6757979797981" y="1480.0" type="line"/>
      <point x="516.5475555555555" y="1480.0" type="line"/>
    </contour>
    <contour>
      <point x="332.2290101010101" y="425.5810909090909" type="line"/>
      <point x="1084.3686464646464" y="425.5810909090909" type="line"/>
      <point x="1026.4357171717172" y="640.0614141414142" type="line"/>
      <point x="390.7038383838384" y="640.0614141414142" type="line"/>
    </contour>
  </outline>
</glyph>
<glyph name="B" format="2">
  <advance width="1305.9552323232324"/>
  <unicode hex="0042"/>
  <anchor x="667.8938181818182" y="0.0" name="bottom"/>
  <anchor x="667.8938181818182" y="1480.0" name="top"/>
  <outline>
    <contour>
      <point x="544.5083636363636" y="-15.4189898989899" type="curve" smooth="yes"/>
      <point x="1055.8323232323232" y="-15.4189898989899"/>
      <point x="1245.7987878787878" y="136.58658585858586"/>
      <point x="1245.7987878787878" y="410.7150707070707" type="curve" smooth="yes"/>
      <point x="1245.7987878787878" y="617.0502626262627"/>
      <point x="1128.5865050505051" y="741.8324040404041"/>
      <point x="924.6088080808081" y="769.374303030303" type="curve"/>
      <point x="923.234505050505" y="756.0" type="line"/>
      <point x="1110.670303030303" y="789.541898989899"/>
      <point x="1204.4244848484848" y="924.1620202020202"/>
      <point x="1204.4244848484848" y="1091.5754343434344" type="curve" smooth="yes"/>
      <point x="1204.4244848484848" y="1363.5810101010102"/>
      <point x="1022.0390303030304" y="1497.251393939394"/>
      <point x="596.0167272727273" y="1497.251393939394" type="curve" smooth="yes"/>
      <point x="437.80444444444447" y="1497.251393939394"/>
      <point x="277.5307474747475" y="1478.2067070707071"/>
      <point x="146.10618181818182" y="1449.703919191919" type="curve"/>
      <point x="146.10618181818182" y="11.62569696969697" type="line"/>
      <point x="273.3575757575758" y="-5.54189898989899"/>
      <point x="423.08937373737376" y="-15.4189898989899"/>
    </contour>
    <contour>
      <point x="611.5362424242425" y="182.80436363636366" type="curve" smooth="yes"/>
      <point x="539.7987878787878" y="182.80436363636366"/>
      <point x="477.47474747474746" y="185.1786666666667"/>
      <point x="406.48032323232326" y="193.38537373737375" type="curve"/>
      <point x="406.48032323232326" y="1280.3632323232323" type="line"/>
      <point x="471.59765656565656" y="1292.1118383838384"/>
      <point x="540.1730909090909" y="1299.0280404040404"/>
      <point x="628.0725656565656" y="1299.0280404040404" type="curve" smooth="yes"/>
      <point x="865.0726464646465" y="1299.0280404040404"/>
      <point x="953.3464242424243" y="1234.0391919191918"/>
      <point x="953.3464242424243" y="1078.5698585858586" type="curve" smooth="yes"/>
      <point x="953.3464242424243" y="931.5139393939394"/>
      <point x="870.2793535353535" y="859.0278787878788"/>
      <point x="646.648" y="859.0278787878788" type="curve" smooth="yes"/>
      <point x="376.3909494949495" y="859.0278787878788" type="line"/>
      <point x="376.3909494949495" y="655.9274343434344" type="line"/>
      <point x="676.8993939393939" y="655.9274343434344" type="line" smooth="yes"/>
      <point x="902.4916363636364" y="655.9274343434344"/>
      <point x="998.0559191919192" y="581.9832727272727"/>
      <point x="998.0559191919192" y="421.01115151515154" type="curve" smooth="yes"/>
      <point x="998.0559191919192" y="260.2066262626263"/>
      <point x="904.6145454545455" y="182.80436363636366"/>
    </contour>
  </outline>
</glyph>
<glyph name="D" format="2">
  <advance width="1463.8434747474748"/>
  <unicode hex="0044"/>
  <anchor x="667.8993939393939" y="0.0" name="bottom"/>
  <anchor x="724.106101010101" y="740.0" name="center"/>
  <anchor x="146.10618181818182" y="762.0" name="stroke"/>
  <anchor x="657.0614141414142" y="1520.0" name="top"/>
  <outline>
    <contour>
      <point x="531.8435555555556" y="-13.79329292929293" type="curve" smooth="yes"/>
      <point x="1092.2568888888889" y="-13.79329292929293"/>
      <point x="1372.3965252525252" y="212.78771717171716"/>
      <point x="1372.3965252525252" y="740.0" type="curve" smooth="yes"/>
      <point x="1372.3965252525252" y="1255.9608888888888"/>
      <point x="1105.050181818182" y="1495.625696969697"/>
      <point x="585.3574949494949" y="1495.625696969697" type="curve" smooth="yes"/>
      <point x="439.4245656565657" y="1495.625696969697"/>
      <point x="277.2402424242424" y="1478.2067070707071"/>
      <point x="146.10618181818182" y="1450.1620202020201" type="curve"/>
      <point x="146.10618181818182" y="8.91620202020202" type="line"/>
      <point x="281.0670707070707" y="-7.1675959595959595"/>
      <point x="412.7541818181818" y="-13.79329292929293"/>
    </contour>
    <contour>
      <point x="597.2457373737374" y="205.02222222222224" type="curve" smooth="yes"/>
      <point x="529.3015757575757" y="205.02222222222224"/>
      <point x="472.1842424242424" y="207.3127272727273"/>
      <point x="412.4412121212122" y="213.9775353535354" type="curve"/>
      <point x="412.4412121212122" y="1261.3129696969697" type="line"/>
      <point x="473.92727272727274" y="1271.5196767676766"/>
      <point x="543.5027070707071" y="1277.8939797979797"/>
      <point x="602.0334545454546" y="1277.8939797979797" type="curve" smooth="yes"/>
      <point x="932.2849292929293" y="1277.8939797979797"/>
      <point x="1098.810101010101" y="1122.7933737373737"/>
      <point x="1098.810101010101" y="741.083797979798" type="curve" smooth="yes"/>
      <point x="1098.810101010101" y="355.45802020202024"/>
      <point x="933.0391111111111" y="205.02222222222224"/>
    </contour>
  </outline>
</glyph>
<glyph name="E" format="2">
  <advance width="1222.296"/>
  <unicode hex="0045"/>
  <anchor x="666.3463434343435" y="0.0" name="bottom"/>
  <anchor x="1065.335111111111" y="0.0" name="ogonek"/>
  <anchor x="665.4301414141414" y="1520.0" name="top"/>
  <anchor x="39.37430303030303" y="1480.0" name="topleft"/>
  <outline>
    <contour>
      <point x="146.10618181818182" y="0.0" type="line"/>
      <point x="1150.754101010101" y="0.0" type="line"/>
      <point x="1150.754101010101" y="215.56412121212122" type="line"/>
      <point x="409.18981818181817" y="215.56412121212122" type="line"/>
      <point x="409.18981818181817" y="1264.4358787878787" type="line"/>
      <point x="1140.754101010101" y="1264.4358787878787" type="line"/>
      <point x="1140.754101010101" y="1480.0" type="line"/>
      <point x="146.10618181818182" y="1480.0" type="line"/>
    </contour>
    <contour>
      <point x="306.1116767676768" y="649.9665454545454" type="line"/>
      <point x="1040.335111111111" y="649.9665454545454" type="line"/>
      <point x="1040.335111111111" y="865.5306666666667" type="line"/>
      <point x="306.1116767676768" y="865.5306666666667" type="line"/>
    </contour>
  </outline>
</glyph>
<glyph name="F" format="2">
  <advance width="1181.296"/>
  <unicode hex="0046"/>
  <outline>
    <contour>
      <point x="146.10618181818182" y="0.0" type="line"/>
      <point x="412.4412121212122" y="0.0" type="line"/>
      <point x="412.4412121212122" y="1260.6425858585858" type="line"/>
      <point x="1136.173090909091" y="1260.6425858585858" type="line"/>
      <point x="1136.173090909091" y="1480.0" type="line"/>
      <point x="146.10618181818182" y="1480.0" type="line"/>
    </contour>
    <contour>
      <point x="319.36307070707073" y="621.7877979797979" type="line"/>
      <point x="1035.754101010101" y="621.7877979797979" type="line"/>
      <point x="1035.754101010101" y="841.1452121212121" type="line"/>
      <point x="319.36307070707073" y="841.1452121212121" type="line"/>
    </contour>
  </outline>
</glyph>
<glyph name="H" format="2">
  <advance width="1496.625616161616"/>
  <unicode hex="0048"/>
  <anchor x="748.854707070707" y="0.0" name="bottom"/>
  <anchor x="748.854707070707" y="1178.4748282828282" name="center"/>
  <anchor x="748.854707070707" y="1520.0" name="top"/>
  <anchor x="38.29050505050505" y="1480.0" name="topleft"/>
  <outline>
    <contour>
      <point x="146.10618181818182" y="0.0" type="line"/>
      <point x="412.4412121212122" y="0.0" type="line"/>
      <point x="412.4412121212122" y="639.6704646464647" type="line"/>
      <point x="1084.184404040404" y="639.6704646464647" type="line"/>
      <point x="1084.184404040404" y="0.0" type="line"/>
      <point x="1350.5194343434343" y="0.0" type="line"/>
      <point x="1350.5194343434343" y="1480.0" type="line"/>
      <point x="1084.184404040404" y="1480.0" type="line"/>
      <point x="1084.184404040404" y="875.8267474747474" type="line"/>
      <point x="412.4412121212122" y="875.8267474747474" type="line"/>
      <point x="412.4412121212122" y="1480.0" type="line"/>
      <point x="146.10618181818182" y="1480.0" type="line"/>
    </contour>
  </outline>
</glyph>
<glyph name="I" format="2">
  <advance width="558.5473939393939"/>
  <unicode hex="0049"/>
  <anchor x="278.731797979798" y="0.0" name="bottom"/>
  <anchor x="412.4412121212122" y="0.0" name="ogonek"/>
  <anchor x="279.27369696969697" y="1520.0" name="top"/>
  <outline>
    <contour>
      <point x="146.10618181818182" y="0.0" type="line"/>
      <point x="412.4412121212122" y="0.0" type="line"/>
      <point x="412.4412121212122" y="1480.0" type="line"/>
      <point x="146.10618181818182" y="1480.0" type="line"/>
    </contour>
  </outline>
</glyph>
<glyph name="J" format="2">
  <advance width="558.5473939393939"/>
  <unicode hex="004A"/>
  <anchor x="436.26246464646465" y="0.0" name="bottom"/>
  <anchor x="279.81559595959595" y="1520.0" name="top"/>
  <outline>
    <contour>
      <point x="153.67030303030305" y="-347.58658585858586" type="line"/>
      <point x="341.48032323232326" y="-138.74860606060605"/>
      <point x="407.40210101010103" y="48.011151515151525"/>
      <point x="412.4412121212122" y="289.3072323232323" type="curve"/>
      <point x="412.4412121212122" y="1480.0" type="line"/>
      <point x="147.1899797979798" y="1480.0" type="line"/>
      <point x="147.1899797979798" y="295.7541818181818" type="line" smooth="yes"/>
      <point x="147.1899797979798" y="74.17874747474748"/>
      <point x="102.73745454545454" y="-71.06149494949494"/>
      <point x="-17.2569696969697" y="-232.92743434343433" type="curve"/>
    </contour>
  </outline>
</glyph>
<glyph name="K" format="2">
  <advance width="1296.2568888888889"/>
  <unicode hex="004B"/>
  <anchor x="678.3183838383839" y="0.0" name="bottom"/>
  <anchor x="673.441292929293" y="1480.0" name="top"/>
  <outline>
    <contour>
      <point x="1041.8883232323233" y="0.0" type="line"/>
      <point x="1333.8937373737374" y="0.0" type="line"/>
      <point x="768.0054141414141" y="795.6759595959596" type="line"/>
      <point x="763.6702222222223" y="725.0726464646465" type="line"/>
      <point x="1291.3518383838384" y="1480.0" type="line"/>
      <point x="1008.3911111111111" y="1480.0" type="line"/>
      <point x="501.5474747474748" y="754.7486060606061" type="line"/>
    </contour>
    <contour>
      <point x="146.10618181818182" y="0.0" type="line"/>
      <point x="412.4412121212122" y="0.0" type="line"/>
      <point x="412.4412121212122" y="1480.0" type="line"/>
      <point x="146.10618181818182" y="1480.0" type="line"/>
    </contour>
    <contour>
      <point x="373.6814545454546" y="639.6704646464647" type="line"/>
      <point x="610.5753535353535" y="639.6704646464647" type="line"/>
      <point x="610.5753535353535" y="875.3686464646465" type="line"/>
      <point x="373.6814545454546" y="875.3686464646465" type="line"/>
    </contour>
  </outline>
</glyph>
<glyph name="L" format="2">
  <advance width="1120.2066262626263"/>
  <unicode hex="004C"/>
  <anchor x="628.4692525252525" y="0.0" name="bottom"/>
  <anchor x="736.4468686868687" y="1616.0" name="caronalt"/>
  <anchor x="829.9608080808081" y="848.7820606060607" name="periodcentered"/>
  <anchor x="281.44129292929296" y="817.3519191919193" name="slash"/>
  <anchor x="281.44129292929296" y="1520.0" name="top"/>
  <outline>
    <contour>
      <point x="146.10618181818182" y="0.0" type="line"/>
      <point x="1109.9161212121212" y="0.0" type="line"/>
      <point x="1109.9161212121212" y="223.6926060606061" type="line"/>
      <point x="412.4412121212122" y="223.6926060606061" type="line"/>
      <point x="412.4412121212122" y="1480.0" type="line"/>
      <point x="146.10618181818182" y="1480.0" type="line"/>
    </contour>
  </outline>
</glyph>
<glyph name="M" format="2">
  <advance width="1835.0613333333333"/>
  <unicode hex="004D"/>
  <anchor x="933.2457373737374" y="0.0" name="bottom"/>
  <anchor x="933.2457373737374" y="1480.0" name="top"/>
  <outline>
    <contour>
      <point x="150.10618181818182" y="0.0" type="line"/>
      <point x="399.26804040404045" y="0.0" type="line"/>
      <point x="399.26804040404045" y="1247.5085252525253" type="line"/>
      <point x="330.379797979798" y="1247.5085252525253" type="line"/>
      <point x="805.8324040404041" y="210.8379797979798" type="line"/>
      <point x="1029.2289292929293" y="210.8379797979798" type="line"/>
      <point x="1493.4692525252526" y="1247.5085252525253" type="line"/>
      <point x="1435.7932929292929" y="1247.5085252525253" type="line"/>
      <point x="1435.7932929292929" y="0.0" type="line"/>
      <point x="1684.9551515151516" y="0.0" type="line"/>
      <point x="1684.9551515151516" y="1480.0" type="line"/>
      <point x="1362.849212121212" y="1480.0" type="line"/>
      <point x="903.5306666666667" y="440.08921212121214" type="line"/>
      <point x="940.9496565656566" y="440.08921212121214" type="line"/>
      <point x="472.21212121212125" y="1480.0" type="line"/>
      <point x="150.10618181818182" y="1480.0" type="line"/>
    </contour>
  </outline>
</glyph>
<glyph name="N" format="2">
  <advance width="1516.4133333333334"/>
  <unicode hex="004E"/>
  <anchor x="758.4357171717172" y="0.0" name="bottom"/>
  <anchor x="758.4357171717172" y="1520.0" name="top"/>
  <outline>
    <contour>
      <point x="146.10618181818182" y="0.0" type="line"/>
      <point x="396.8937373737374" y="0.0" type="line"/>
      <point x="396.8937373737374" y="1155.5532929292929" type="line"/>
      <point x="346.92727272727274" y="1155.5532929292929" type="line"/>
      <point x="1101.307313131313" y="0.0" type="line"/>
      <point x="1370.3071515151514" y="0.0" type="line"/>
      <point x="1370.3071515151514" y="1480.0" type="line"/>
      <point x="1119.519595959596" y="1480.0" type="line"/>
      <point x="1119.519595959596" y="324.44670707070713" type="line"/>
      <point x="1169.4860606060606" y="324.44670707070713" type="line"/>
      <point x="415.1060202020202" y="1480.0" type="line"/>
      <point x="146.10618181818182" y="1480.0" type="line"/>
    </contour>
  </outline>
</glyph>
<glyph name="O" format="2">
  <advance width="1517.5641212121213"/>
  <unicode hex="004F"/>
  <anchor x="758.7820606060607" y="0.0" name="bottom"/>
  <anchor x="758.7820606060607" y="740.0" name="center"/>
  <anchor x="926.9105454545454" y="0.0" name="ogonek"/>
  <anchor x="758.7820606060607" y="1520.0" name="top"/>
  <anchor x="47.79329292929293" y="1480.0" name="topleft"/>
  <anchor x="943.7932121212122" y="1480.0" name="topright"/>
  <outline>
    <contour>
      <point x="758.7820606060607" y="-19.08379797979798" type="curve" smooth="yes"/>
      <point x="1160.3518383838384" y="-19.08379797979798"/>
      <point x="1426.1171717171717" y="218.84355555555555"/>
      <point x="1426.1171717171717" y="740.0" type="curve" smooth="yes"/>
      <point x="1426.1171717171717" y="1261.1564444444443"/>
      <point x="1162.2680404040404" y="1499.083797979798"/>
      <point x="758.7820606060607" y="1499.083797979798" type="curve" smooth="yes"/>
      <point x="356.6703838383838" y="1499.083797979798"/>
      <point x="91.4469494949495" y="1262.2402424242425"/>
      <point x="91.4469494949495" y="740.0" type="curve" smooth="yes"/>
      <point x="91.4469494949495" y="217.7597575757576"/>
      <point x="355.8379797979798" y="-19.08379797979798"/>
    </contour>
    <contour>
      <point x="758.7820606060607" y="199.10602020202023" type="curve" smooth="yes"/>
      <point x="515.7205656565657" y="199.10602020202023"/>
      <point x="365.0333737373738" y="344.8434747474748"/>
      <point x="365.0333737373738" y="746.1675959595959" type="curve" smooth="yes"/>
      <point x="365.0333737373738" y="1135.1565252525252"/>
      <point x="517.3462626262626" y="1280.8939797979797"/>
      <point x="758.7820606060607" y="1280.8939797979797" type="curve" smooth="yes"/>
      <point x="1000.2178585858586" y="1280.8939797979797"/>
      <point x="1152.5307474747474" y="1133.5308282828282"/>
      <point x="1152.5307474747474" y="733.8324040404041" type="curve" smooth="yes"/>
      <point x="1152.5307474747474" y="346.4691717171718"/>
      <point x="1001.8435555555556" y="199.10602020202023"/>
    </contour>
  </outline>
</glyph>
<glyph name="P" format="2">
  <advance width="1286.4189090909092"/>
  <unicode hex="0050"/>
  <outline>
    <contour>
      <point x="146.10618181818182" y="0.0" type="line"/>
      <point x="412.4412121212122" y="0.0" type="line"/>
      <point x="412.4412121212122" y="455.30173737373735" type="line"/>
      <point x="468.1395555555556" y="451.63692929292927"/>
      <point x="516.2568888888889" y="449.17882828282825"/>
      <point x="574.1228282828283" y="449.17882828282825" type="curve" smooth="yes"/>
      <point x="998.8323232323232" y="449.17882828282825"/>
      <point x="1207.4691717171718" y="630.3073131313131"/>
      <point x="1207.4691717171718" y="973.4022626262627" type="curve" smooth="yes"/>
      <point x="1207.4691717171718" y="1335.9553131313132"/>
      <point x="991.7094141414142" y="1497.251393939394"/>
      <point x="569.5586262626263" y="1497.251393939394" type="curve" smooth="yes"/>
      <point x="415.0446868686869" y="1497.251393939394"/>
      <point x="279.15644444444445" y="1480.916202020202"/>
      <point x="146.10618181818182" y="1455.0391111111112" type="curve"/>
    </contour>
    <contour>
      <point x="577.6647272727273" y="652.8211717171718" type="curve" smooth="yes"/>
      <point x="515.798787878788" y="652.8211717171718"/>
      <point x="466.47474747474746" y="655.7373737373738"/>
      <point x="412.4412121212122" y="663.0278787878788" type="curve"/>
      <point x="412.4412121212122" y="1279.1956363636364" type="line"/>
      <point x="467.80436363636363" y="1288.8604444444445"/>
      <point x="522.8323232323232" y="1293.6090505050504"/>
      <point x="592.3183838383839" y="1293.6090505050504" type="curve" smooth="yes"/>
      <point x="832.8659393939394" y="1293.6090505050504"/>
      <point x="947.4302222222223" y="1197.0391919191918"/>
      <point x="947.4302222222223" y="970.9441616161616" type="curve" smooth="yes"/>
      <point x="947.4302222222223" y="749.4692525252525"/>
      <point x="834.6983434343434" y="652.8211717171718"/>
    </contour>
  </outline>
</glyph>
<glyph name="Q" format="2">
  <advance width="1517.5641212121213"/>
  <unicode hex="0051"/>
  <outline>
    <contour>
      <point x="1361.4803232323234" y="-285.12840404040406" type="curve"/>
      <point x="1405.0780606060607" y="-73.89947474747473" type="line"/>
      <point x="1177.530585858586" y="-49.312888888888885"/>
      <point x="942.6199595959597" y="-4.810101010101"/>
      <point x="728.3071515151515" y="80.48597979797981" type="curve"/>
      <point x="652.0223030303031" y="13.134060606060608" type="line"/>
      <point x="1164.8099393939394" y="-52.03911111111111"/>
      <point x="1426.1171717171717" y="226.0949494949495"/>
      <point x="1426.1171717171717" y="740.0" type="curve" smooth="yes"/>
      <point x="1426.1171717171717" y="1263.9050505050504"/>
      <point x="1160.8937373737374" y="1499.083797979798"/>
      <point x="758.7820606060607" y="1499.083797979798" type="curve" smooth="yes"/>
      <point x="356.6703838383838" y="1499.083797979798"/>
      <point x="91.4469494949495" y="1262.2402424242425"/>
      <point x="91.4469494949495" y="734.5810101010101" type="curve" smooth="yes"/>
      <point x="91.4469494949495" y="168.72622222222222"/>
      <point x="376.0446868686869" y="-147.106101010101"/>
    </contour>
    <contour>
      <point x="758.7820606060607" y="199.10602020202023" type="curve" smooth="yes"/>
      <point x="514.6367676767677" y="199.10602020202023"/>
      <point x="365.0333737373738" y="343.7596767676768"/>
      <point x="365.0333737373738" y="746.1675959595959" type="curve" smooth="yes"/>
      <point x="365.0333737373738" y="1135.1565252525252"/>
      <point x="517.3462626262626" y="1280.8939797979797"/>
      <point x="758.7820606060607" y="1280.8939797979797" type="curve" smooth="yes"/>
      <point x="1000.2178585858586" y="1280.8939797979797"/>
      <point x="1152.5307474747474" y="1133.5308282828282"/>
      <point x="1152.5307474747474" y="733.8324040404041" type="curve" smooth="yes"/>
      <point x="1152.5307474747474" y="346.4691717171718"/>
      <point x="1001.8435555555556" y="199.10602020202023"/>
    </contour>
  </outline>
</glyph>
<glyph name="R" format="2">
  <advance width="1352.1619393939395"/>
  <unicode hex="0052"/>
  <anchor x="708.7709090909091" y="0.0" name="bottom"/>
  <anchor x="659.9831919191919" y="1520.0" name="top"/>
  <outline>
    <contour>
      <point x="146.10618181818182" y="0.0" type="line"/>
      <point x="408.1060202020202" y="0.0" type="line"/>
      <point x="408.1060202020202" y="573.7542626262626" type="line"/>
      <point x="464.76525252525255" y="570.4637575757575"/>
      <point x="514.2177777777778" y="567.5475555555555"/>
      <point x="582.0390303030304" y="567.5475555555555" type="curve" smooth="yes"/>
      <point x="974.3686464646465" y="567.5475555555555"/>
      <point x="1203.3406868686868" y="726.2626262626262"/>
      <point x="1202.4244848484848" y="1035.1899797979797" type="curve" smooth="yes"/>
      <point x="1202.4244848484848" y="1351.5363232323232"/>
      <point x="996.3686464646464" y="1497.251393939394"/>
      <point x="584.0167272727273" y="1497.251393939394" type="curve" smooth="yes"/>
      <point x="424.0949494949495" y="1497.251393939394"/>
      <point x="272.03353535353534" y="1476.832404040404"/>
      <point x="146.10618181818182" y="1450.1620202020201" type="curve"/>
    </contour>
    <contour>
      <point x="1030.0056565656566" y="0.0" type="line"/>
      <point x="1322.1786666666667" y="0.0" type="line"/>
      <point x="823.2009696969697" y="688.3687272727273" type="line"/>
      <point x="537.3631515151515" y="688.3687272727273" type="line"/>
    </contour>
    <contour>
      <point x="586.5418181818181" y="769.106101010101" type="curve" smooth="yes"/>
      <point x="518.0110707070708" y="769.106101010101"/>
      <point x="471.72056565656567" y="772.106101010101"/>
      <point x="408.1060202020202" y="778.0223030303031" type="curve"/>
      <point x="408.1060202020202" y="1279.9051313131313" type="line"/>
      <point x="469.01107070707076" y="1290.5699393939394"/>
      <point x="528.7541010101011" y="1297.4023434343435"/>
      <point x="609.2792727272728" y="1297.4023434343435" type="curve" smooth="yes"/>
      <point x="844.7765656565657" y="1297.4023434343435"/>
      <point x="951.8045252525252" y="1219.162101010101"/>
      <point x="951.8045252525252" y="1033.8156767676767" type="curve" smooth="yes"/>
      <point x="951.8045252525252" y="849.7150707070707"/>
      <point x="837.9050505050506" y="769.106101010101"/>
    </contour>
  </outline>
</glyph>
<glyph name="S" format="2">
  <advance width="1120.547393939394"/>
  <unicode hex="0053"/>
  <anchor x="570.525090909091" y="0.0" name="bottom"/>
  <anchor x="570.525090909091" y="1520.0" name="top"/>
  <outline>
    <contour>
      <point x="488.3966060606061" y="-19.08379797979798" type="curve" smooth="yes"/>
      <point x="848.6256161616161" y="-19.08379797979798"/>
      <point x="1058.8490505050504" y="146.30165656565657"/>
      <point x="1058.8490505050504" y="423.8938181818182" type="curve" smooth="yes"/>
      <point x="1058.8490505050504" y="646.6088888888889"/>
      <point x="929.6367676767677" y="776.4468686868687"/>
      <point x="647.379797979798" y="846.6144646464646" type="curve" smooth="yes"/>
      <point x="547.4468686868687" y="872.3686464646464" type="line" smooth="yes"/>
      <point x="381.01664646464644" y="916.5697777777777"/>
      <point x="327.69818181818187" y="969.5139393939394"/>
      <point x="327.69818181818187" y="1077.5251717171718" type="curve" smooth="yes"/>
      <point x="327.69818181818187" y="1203.0336161616162"/>
      <point x="418.43006060606064" y="1281.8939797979797"/>
      <point x="658.8770101010101" y="1281.8939797979797" type="curve" smooth="yes"/>
      <point x="772.6311919191919" y="1281.8939797979797"/>
      <point x="889.8881616161616" y="1265.7263838383838"/>
      <point x="986.7596767676768" y="1235.9777777777776" type="curve"/>
      <point x="986.7596767676768" y="1455.167595959596" type="line"/>
      <point x="893.5920808080808" y="1482.458101010101"/>
      <point x="771.921696969697" y="1499.083797979798"/>
      <point x="645.5362424242425" y="1499.083797979798" type="curve" smooth="yes"/>
      <point x="256.2122828282828" y="1499.083797979798"/>
      <point x="61.69834343434343" y="1335.3687272727273"/>
      <point x="61.69834343434343" y="1063.229090909091" type="curve" smooth="yes"/>
      <point x="61.69834343434343" y="840.9721212121212"/>
      <point x="191.99442424242423" y="710.1341414141414"/>
      <point x="449.29050505050503" y="645.5922424242424" type="curve" smooth="yes"/>
      <point x="549.2234343434343" y="619.8380606060606" type="line" smooth="yes"/>
      <point x="731.7821414141414" y="572.0112323232323"/>
      <point x="792.8492121212121" y="519.2737777777778"/>
      <point x="792.8492121212121" y="406.2625454545455" type="curve" smooth="yes"/>
      <point x="792.8492121212121" y="272.7149898989899"/>
      <point x="703.1620202020202" y="198.10602020202023"/>
      <point x="488.60331313131314" y="198.10602020202023" type="curve" smooth="yes"/>
      <point x="366.0949494949495" y="198.10602020202023"/>
      <point x="217.41341414141414" y="220.52501010101014"/>
      <point x="92.87151515151515" y="261.98311111111116" type="curve"/>
      <point x="92.87151515151515" y="42.79329292929293" type="line"/>
      <point x="211.45810101010102" y="2.7094949494949505"/>
      <point x="353.96646464646466" y="-19.08379797979798"/>
    </contour>
  </outline>
</glyph>
<glyph name="T" format="2">
  <advance width="1245.8490505050504"/>
  <unicode hex="0054"/>
  <anchor x="623.1954747474748" y="0.0" name="bottom"/>
  <anchor x="623.1954747474748" y="745.810101010101" name="center"/>
  <anchor x="623.1954747474748" y="1520.0" name="top"/>
  <outline>
    <contour>
      <point x="489.4860606060606" y="0.0" type="line"/>
      <point x="756.3629898989899" y="0.0" type="line"/>
      <point x="756.3629898989899" y="1256.307393939394" type="line"/>
      <point x="1232.3909494949494" y="1256.307393939394" type="line"/>
      <point x="1232.3909494949494" y="1480.0" type="line"/>
      <point x="13.45810101010101" y="1480.0" type="line"/>
      <point x="13.45810101010101" y="1256.307393939394" type="line"/>
      <point x="489.4860606060606" y="1256.307393939394" type="line"/>
    </contour>
  </outline>
</glyph>
<glyph name="U" format="2">
  <advance width="1466.8323232323232"/>
  <unicode hex="0055"/>
  <anchor x="736.312808080808" y="0.0" name="bottom"/>
  <anchor x="936.3406868686869" y="0.91620202020202" name="ogonek"/>
  <anchor x="736.312808080808" y="1520.0" name="top"/>
  <anchor x="1084.9832727272728" y="1480.0" name="topright"/>
  <outline>
    <contour>
      <point x="736.312808080808" y="-19.08379797979798" type="curve" smooth="yes"/>
      <point x="1145.089292929293" y="-19.08379797979798"/>
      <point x="1327.6423434343435" y="178.17874747474747"/>
      <point x="1327.6423434343435" y="594.0278787878788" type="curve" smooth="yes"/>
      <point x="1327.6423434343435" y="1480.0" type="line"/>
      <point x="1066.558707070707" y="1480.0" type="line"/>
      <point x="1066.558707070707" y="567.2290101010101" type="line" smooth="yes"/>
      <point x="1066.558707070707" y="311.05018181818184"/>
      <point x="960.5698585858586" y="201.89931313131316"/>
      <point x="736.312808080808" y="201.89931313131316" type="curve" smooth="yes"/>
      <point x="512.0557575757576" y="201.89931313131316"/>
      <point x="405.52501010101014" y="311.05018181818184"/>
      <point x="405.52501010101014" y="567.2290101010101" type="curve" smooth="yes"/>
      <point x="405.52501010101014" y="1480.0" type="line"/>
      <point x="139.1899797979798" y="1480.0" type="line"/>
      <point x="139.1899797979798" y="594.0278787878788" type="line" smooth="yes"/>
      <point x="139.1899797979798" y="178.17874747474747"/>
      <point x="323.7430303030303" y="-19.08379797979798"/>
    </contour>
  </outline>
</glyph>
<glyph name="V" format="2">
  <advance width="1389.0613333333333"/>
  <unicode hex="0056"/>
  <outline>
    <contour>
      <point x="498.5084444444444" y="0.0" type="line"/>
      <point x="890.5528888888889" y="0.0" type="line"/>
      <point x="1384.5250101010101" y="1480.0" type="line"/>
      <point x="1123.8603636363637" y="1480.0" type="line"/>
      <point x="672.273696969697" y="112.07256565656567" type="line"/>
      <point x="730.5418181818181" y="112.07256565656567" type="line"/>
      <point x="283.83224242424245" y="1480.0" type="line"/>
      <point x="4.53632323232323" y="1480.0" type="line"/>
    </contour>
  </outline>
</glyph>
<glyph name="W" format="2">
  <advance width="2219.876929292929"/>
  <unicode hex="0057"/>
  <anchor x="1110.625616161616" y="0.0" name="bottom"/>
  <anchor x="1110.625616161616" y="1520.0" name="top"/>
  <outline>
    <contour>
      <point x="439.68161616161615" y="0.0" type="line"/>
      <point x="782.9551515151516" y="0.0" type="line"/>
      <point x="1150.1395555555555" y="1316.0336161616162" type="line"/>
      <point x="1080.0334545454546" y="1316.0336161616162" type="line"/>
      <point x="1436.9217777777778" y="0.0" type="line"/>
      <point x="1780.1953131313132" y="0.0" type="line"/>
      <point x="2180.2232727272726" y="1480.0" type="line"/>
      <point x="1926.9776161616162" y="1480.0" type="line"/>
      <point x="1567.960808080808" y="119.65915151515154" type="line"/>
      <point x="1628.9384242424244" y="119.65915151515154" type="line"/>
      <point x="1266.631111111111" y="1480.0" type="line"/>
      <point x="967.7932929292929" y="1480.0" type="line"/>
      <point x="595.648" y="119.65915151515154" type="line"/>
      <point x="662.586505050505" y="119.65915151515154" type="line"/>
      <point x="309.4467878787879" y="1480.0" type="line"/>
      <point x="39.19555555555555" y="1480.0" type="line"/>
    </contour>
  </outline>
</glyph>
<glyph name="X" format="2">
  <advance width="1340.675878787879"/>
  <unicode hex="0058"/>
  <outline>
    <contour>
      <point x="1057.7318787878787" y="0.0" type="line"/>
      <point x="1354.530585858586" y="0.0" type="line"/>
      <point x="825.4076767676768" y="765.3407676767677" type="line"/>
      <point x="670.6088888888889" y="960.4412121212122" type="line"/>
      <point x="310.99426262626264" y="1480.0" type="line"/>
      <point x="13.027959595959594" y="1480.0" type="line"/>
      <point x="512.6425050505051" y="762.1731717171717" type="line"/>
      <point x="667.441292929293" y="568.2403232323232" type="line"/>
    </contour>
    <contour>
      <point x="-16.480404040404046" y="0.0" type="line"/>
      <point x="276.69260606060607" y="0.0" type="line"/>
      <point x="667.441292929293" y="568.2403232323232" type="line"/>
      <point x="825.4076767676768" y="765.3407676767677" type="line"/>
      <point x="1320.1451313131313" y="1480.0" type="line"/>
      <point x="1030.1397171717172" y="1480.0" type="line"/>
      <point x="670.6088888888889" y="960.4412121212122" type="line"/>
      <point x="512.6425050505051" y="762.1731717171717" type="line"/>
    </contour>
  </outline>
</glyph>
<glyph name="Y" format="2">
  <advance width="1245.8490505050504"/>
  <unicode hex="0059"/>
  <anchor x="622.6535757575757" y="0.0" name="bottom"/>
  <anchor x="623.1954747474747" y="1520.0" name="top"/>
  <anchor x="-2.7988686868686905" y="1480.0" name="topleft"/>
  <outline>
    <contour>
      <point x="491.11175757575757" y="0.0" type="line"/>
      <point x="757.446787878788" y="0.0" type="line"/>
      <point x="757.446787878788" y="742.7653333333334" type="line"/>
      <point x="702.5976565656566" y="549.5810909090909" type="line"/>
      <point x="1279.608808080808" y="1480.0" type="line"/>
      <point x="1014.2793535353535" y="1480.0" type="line"/>
      <point x="590.938505050505" y="801.8267474747474" type="line"/>
      <point x="669.3742222222222" y="801.8267474747474" type="line"/>
      <point x="240.65907070707073" y="1480.0" type="line"/>
      <point x="-44.46925252525253" y="1480.0" type="line"/>
      <point x="545.9608888888889" y="549.5810909090909" type="line"/>
      <point x="491.11175757575757" y="746.0167272727273" type="line"/>
    </contour>
  </outline>
</glyph>
<glyph name="Z" format="2">
  <advance width="1208.1284040404041"/>
  <unicode hex="005A"/>
  <anchor x="602.938505050505" y="0.0" name="bottom"/>
  <anchor x="605.106101010101" y="1520.0" name="top"/>
  <outline>
    <contour>
      <point x="60.29050505050505" y="0.0" type="line"/>
      <point x="1147.837898989899" y="0.0" type="line"/>
      <point x="1147.837898989899" y="222.77640404040406" type="line"/>
      <point x="364.35175757575763" y="222.77640404040406" type="line"/>
      <point x="370.7651717171717" y="169.5976565656566" type="line"/>
      <point x="1136.921696969697" y="1333.245898989899" type="line"/>
      <point x="1136.921696969697" y="1480.0" type="line"/>
      <point x="71.20670707070707" y="1480.0" type="line"/>
      <point x="71.20670707070707" y="1257.223595959596" type="line"/>
      <point x="832.8604444444444" y="1257.223595959596" type="line"/>
      <point x="826.4470303030303" y="1310.4023434343435" type="line"/>
      <point x="60.29050505050505" y="146.754101010101" type="line"/>
    </contour>
  </outline>
</glyph>
<glyph name="bracketleft" format="2">
  <advance width="695.3630707070707"/>
  <unicode hex="005B"/>
  <outline>
    <contour>
      <point x="166.10618181818182" y="-440.0" type="line"/>
      <point x="722.3574949494949" y="-440.0" type="line"/>
      <point x="722.3574949494949" y="-231.85486868686866" type="line"/>
      <point x="427.5641212121212" y="-231.85486868686866" type="line"/>
      <point x="427.5641212121212" y="1407.8548686868687" type="line"/>
      <point x="727.7764848484849" y="1407.8548686868687" type="line"/>
      <point x="727.7764848484849" y="1616.0" type="line"/>
      <point x="166.10618181818182" y="1616.0" type="line"/>
    </contour>
  </outline>
</glyph>
<glyph name="backslash" format="2">
  <advance width="728.0054141414141"/>
  <unicode hex="005C"/>
  <outline>
    <contour>
      <point x="468.96646464646466" y="-240.0" type="line"/>
      <point x="728.0054141414141" y="-240.0" type="line"/>
      <point x="259.0389494949495" y="1616.0" type="line"/>
      <point x="0.0" y="1616.0" type="line"/>
    </contour>
  </outline>
</glyph>
<glyph name="bracketright" format="2">
  <advance width="695.3630707070707"/>
  <unicode hex="005D"/>
  <outline>
    <contour>
      <point x="-26.99442424242424" y="-440.0" type="line"/>
      <point x="529.2568888888889" y="-440.0" type="line"/>
      <point x="529.2568888888889" y="1616.0" type="line"/>
      <point x="-32.41341414141414" y="1616.0" type="line"/>
      <point x="-32.41341414141414" y="1407.8548686868687" type="line"/>
      <point x="267.7989494949495" y="1407.8548686868687" type="line"/>
      <point x="267.7989494949495" y="-231.85486868686866" type="line"/>
      <point x="-26.99442424242424" y="-231.85486868686866" type="line"/>
    </contour>
  </outline>
</glyph>
<glyph name="asciicircum" format="2">
  <advance width="1219.2177777777779"/>
  <unicode hex="005E"/>
  <outline>
    <contour>
      <point x="76.0670707070707" y="740.0" type="line"/>
      <point x="333.3518383838384" y="740.0" type="line"/>
      <point x="660.7541010101011" y="1349.8380606060605" type="line"/>
      <point x="558.4636767676768" y="1349.8380606060605" type="line"/>
      <point x="885.8659393939394" y="740.0" type="line"/>
      <point x="1143.150707070707" y="740.0" type="line"/>
      <point x="736.3518383838384" y="1480.0" type="line"/>
      <point x="481.9497373737374" y="1480.0" type="line"/>
    </contour>
  </outline>
</glyph>
<glyph name="underscore" format="2">
  <advance width="1178.212202020202"/>
  <unicode hex="005F"/>
  <outline>
    <contour>
      <point x="89.5810101010101" y="-208.68703030303033" type="line"/>
      <point x="1088.631191919192" y="-208.68703030303033" type="line"/>
      <point x="1088.631191919192" y="-0.54189898989899" type="line"/>
      <point x="89.5810101010101" y="-0.54189898989899" type="line"/>
    </contour>
  </outline>
</glyph>
<glyph name="a" format="2">
  <advance width="1085.754101010101"/>
  <unicode hex="0061"/>
  <anchor x="545.6033131313131" y="0.0" name="bottom"/>
  <anchor x="964.9775353535354" y="0.0" name="ogonek"/>
  <anchor x="539.189898989899" y="1200.0" name="top"/>
  <outline>
    <contour>
      <point x="418.74860606060605" y="-19.25139393939394" type="curve" smooth="yes"/>
      <point x="540.4525252525252" y="-19.25139393939394"/>
      <point x="649.5307474747475" y="23.91062626262626"/>
      <point x="717.0279595959596" y="113.36872727272727" type="curve"/>
      <point x="730.4469494949495" y="113.36872727272727" type="line"/>
      <point x="748.9106262626262" y="0.0" type="line"/>
      <point x="964.9775353535354" y="0.0" type="line"/>
      <point x="964.9775353535354" y="672.3017373737373" type="line" smooth="yes"/>
      <point x="964.9775353535354" y="1000.0782222222222"/>
      <point x="814.7205656565657" y="1107.9217777777778"/>
      <point x="493.3072323232323" y="1107.9217777777778" type="curve" smooth="yes"/>
      <point x="386.9273535353535" y="1107.9217777777778"/>
      <point x="256.0446868686869" y="1092.0055757575758"/>
      <point x="154.07822222222222" y="1061.0893737373738" type="curve"/>
      <point x="154.07822222222222" y="860.3241212121212" type="line"/>
      <point x="253.7430303030303" y="891.9051313131313"/>
      <point x="365.2458181818182" y="905.9051313131313"/>
      <point x="449.41341414141414" y="905.9051313131313" type="curve" smooth="yes"/>
      <point x="632.3687272727273" y="905.9051313131313"/>
      <point x="709.4804848484848" y="855.4917171717171"/>
      <point x="709.4804848484848" y="688.0168080808081" type="curve" smooth="yes"/>
      <point x="709.4804848484848" y="259.0167272727273" type="line"/>
      <point x="649.3687272727273" y="192.29042424242425"/>
      <point x="571.8044444444445" y="167.05018181818184"/>
      <point x="499.7820606060606" y="167.05018181818184" type="curve" smooth="yes"/>
      <point x="389.80436363636363" y="167.05018181818184"/>
      <point x="332.6479191919192" y="219.1228282828283"/>
      <point x="332.6479191919192" y="314.72622222222225" type="curve" smooth="yes"/>
      <point x="332.6479191919192" y="408.37430303030305"/>
      <point x="390.26246464646465" y="461.6983434343434"/>
      <point x="530.5697777777777" y="474.94416161616164" type="curve" smooth="yes"/>
      <point x="785.6201212121211" y="498.2290909090909" type="line"/>
      <point x="758.2346666666666" y="649.3072323232324" type="line"/>
      <point x="506.0167272727273" y="626.0223030303031" type="line" smooth="yes"/>
      <point x="201.82682828282827" y="602.4412929292929"/>
      <point x="73.31846464646465" y="489.26812121212123"/>
      <point x="73.31846464646465" y="289.7597575757576" type="curve" smooth="yes"/>
      <point x="73.31846464646465" y="102.2569696969697"/>
      <point x="201.9050505050505" y="-19.25139393939394"/>
    </contour>
  </outline>
</glyph>
<glyph name="b" format="2">
  <advance width="1193.4691717171718"/>
  <unicode hex="0062"/>
  <anchor x="600.8602828282828" y="0.0" name="bottom"/>
  <anchor x="261.44129292929296" y="1616.0" name="top"/>
  <outline>
    <contour>
      <point x="520.6535757575757" y="-19.62569696969697" type="curve" smooth="yes"/>
      <point x="916.9328484848486" y="-20.16759595959596"/>
      <point x="1115.2736161616162" y="178.7150707070707"/>
      <point x="1115.2736161616162" y="567.0446868686869" type="curve" smooth="yes"/>
      <point x="1115.2736161616162" y="952.2458181818182"/>
      <point x="922.6032323232323" y="1107.9217777777778"/>
      <point x="694.3518383838384" y="1107.9217777777778" type="curve" smooth="yes"/>
      <point x="568.1060202020202" y="1107.9217777777778"/>
      <point x="469.23450505050505" y="1059.0502626262626"/>
      <point x="404.944" y="982.3407676767677" type="curve"/>
      <point x="391.8993131313132" y="982.3407676767677" type="line"/>
      <point x="391.8993131313132" y="1616.0" type="line"/>
      <point x="130.44137373737374" y="1616.0" type="line"/>
      <point x="130.44137373737374" y="37.005575757575755" type="line"/>
      <point x="247.87151515151515" y="-1.3743030303030301"/>
      <point x="390.05583838383836" y="-19.62569696969697"/>
    </contour>
    <contour>
      <point x="542.5362424242425" y="181.8490505050505" type="curve" smooth="yes"/>
      <point x="486.089292929293" y="181.8490505050505"/>
      <point x="431.64234343434345" y="189.97195959595962"/>
      <point x="391.8993131313132" y="201.01107070707073" type="curve"/>
      <point x="391.8993131313132" y="803.9721212121212" type="line"/>
      <point x="444.76525252525255" y="863.5755151515151"/>
      <point x="523.1228282828283" y="891.2738585858585"/>
      <point x="599.854707070707" y="891.2738585858585" type="curve" smooth="yes"/>
      <point x="747.9608888888889" y="891.2738585858585"/>
      <point x="851.4413737373737" y="814.994505050505"/>
      <point x="851.4413737373737" y="545.4972121212121" type="curve" smooth="yes"/>
      <point x="851.4413737373737" y="284.8714343434344"/>
      <point x="745.9608888888889" y="181.8490505050505"/>
    </contour>
  </outline>
</glyph>
<glyph name="c" format="2">
  <advance width="930.5865050505051"/>
  <unicode hex="0063"/>
  <anchor x="540.3519191919193" y="0.0" name="bottom"/>
  <anchor x="528.7206464646465" y="1200.0" name="top"/>
  <outline>
    <contour>
      <point x="614.4077575757576" y="-20.16759595959596" type="curve" smooth="yes"/>
      <point x="709.8714343434344" y="-20.16759595959596"/>
      <point x="804.6256161616161" y="-5.16759595959596"/>
      <point x="886.7485252525253" y="22.49721212121212" type="curve"/>
      <point x="886.7485252525253" y="232.47474747474752" type="line"/>
      <point x="793.0837171717171" y="205.06133333333335"/>
      <point x="723.379797979798" y="193.2289292929293"/>
      <point x="654.463595959596" y="193.2289292929293" type="curve" smooth="yes"/>
      <point x="452.77082828282835" y="193.2289292929293"/>
      <point x="347.9886868686869" y="289.17309090909094"/>
      <point x="347.9886868686869" y="547.2513939393939" type="curve" smooth="yes"/>
      <point x="347.9886868686869" y="797.704"/>
      <point x="453.72614141414147" y="894.5252525252524"/>
      <point x="684.7094141414142" y="894.5252525252524" type="curve" smooth="yes"/>
      <point x="750.7932121212122" y="894.5252525252524"/>
      <point x="816.3742222222222" y="886.6928484848485"/>
      <point x="886.7485252525253" y="871.6537373737374" type="curve"/>
      <point x="886.7485252525253" y="1081.6312727272727" type="line"/>
      <point x="814.2457373737374" y="1099.4636767676768"/>
      <point x="733.9105454545454" y="1107.9217777777778"/>
      <point x="650.1954747474747" y="1107.9217777777778" type="curve" smooth="yes"/>
      <point x="284.7541818181818" y="1107.9217777777778"/>
      <point x="78.19555555555556" y="933.122909090909"/>
      <point x="78.19555555555556" y="543.7932929292929" type="curve" smooth="yes"/>
      <point x="78.19555555555556" y="157.7988686868687"/>
      <point x="269.4189898989899" y="-20.16759595959596"/>
    </contour>
  </outline>
</glyph>
<glyph name="d" format="2">
  <advance width="1193.4691717171718"/>
  <unicode hex="0064"/>
  <anchor x="602.3630707070707" y="0.0" name="bottom"/>
  <anchor x="1166.7708282828285" y="1616.0" name="caronalt"/>
  <anchor x="593.6926868686869" y="542.7094949494949" name="center"/>
  <anchor x="1063.027797979798" y="1354.374303030303" name="stroke"/>
  <anchor x="587.189898989899" y="1200.0" name="top"/>
  <anchor x="1146.8043636363636" y="1090.8379797979799" name="topright"/>
  <outline>
    <contour>
      <point x="519.2067070707071" y="-19.08379797979798" type="curve" smooth="yes"/>
      <point x="648.6648080808081" y="-19.08379797979798"/>
      <point x="749.6201212121211" y="35.20670707070707"/>
      <point x="812.9106262626262" y="115.74860606060606" type="curve"/>
      <point x="826.3296161616162" y="115.74860606060606" type="line"/>
      <point x="842.625696969697" y="0.0" type="line"/>
      <point x="1063.027797979798" y="0.0" type="line"/>
      <point x="1063.027797979798" y="1616.0" type="line"/>
      <point x="801.5698585858586" y="1616.0" type="line"/>
      <point x="801.5698585858586" y="1098.0502626262626" type="line"/>
      <point x="758.9106262626262" y="1103.7150707070707"/>
      <point x="707.2122828282828" y="1108.4636767676768"/>
      <point x="656.8044444444445" y="1108.4636767676768" type="curve" smooth="yes"/>
      <point x="278.1620202020202" y="1108.4636767676768"/>
      <point x="78.19555555555556" y="907.9553131313131"/>
      <point x="78.19555555555556" y="522.877090909091" type="curve" smooth="yes"/>
      <point x="78.19555555555556" y="134.3798787878788"/>
      <point x="278.1620202020202" y="-19.08379797979798"/>
    </contour>
    <contour>
      <point x="592.1116767676767" y="197.02222222222224" type="curve" smooth="yes"/>
      <point x="443.75967676767675" y="197.02222222222224"/>
      <point x="342.02779797979804" y="275.1339797979798"/>
      <point x="342.02779797979804" y="543.8826666666666" type="curve" smooth="yes"/>
      <point x="342.02779797979804" y="803.4246464646465"/>
      <point x="447.50828282828286" y="906.4470303030303"/>
      <point x="655.9720404040404" y="906.4470303030303" type="curve" smooth="yes"/>
      <point x="705.7541818181818" y="906.4470303030303"/>
      <point x="761.8268282828283" y="900.1565252525252"/>
      <point x="801.5698585858586" y="891.5755151515151" type="curve"/>
      <point x="801.5698585858586" y="292.86585858585863" type="line"/>
      <point x="749.2458181818182" y="226.34626262626264"/>
      <point x="669.1787474747475" y="197.02222222222224"/>
    </contour>
  </outline>
</glyph>
<glyph name="e" format="2">
  <advance width="1080.4580202020202"/>
  <unicode hex="0065"/>
  <anchor x="556.7709090909091" y="0.0" name="bottom"/>
  <anchor x="905.2791919191919" y="0.0" name="ogonek"/>
  <anchor x="556.7709090909091" y="1200.0" name="top"/>
  <outline>
    <contour>
      <point x="647.8658585858586" y="-20.16759595959596" type="curve" smooth="yes"/>
      <point x="746.7876363636364" y="-20.16759595959596"/>
      <point x="844.7094141414141" y="-8.87709090909091"/>
      <point x="957.3406868686868" y="19.24581818181818" type="curve"/>
      <point x="957.3406868686868" y="218.92727272727274" type="line"/>
      <point x="860.3015757575758" y="194.5976565656566"/>
      <point x="767.0892929292929" y="180.76525252525255"/>
      <point x="683.296" y="180.76525252525255" type="curve" smooth="yes"/>
      <point x="431.379797979798" y="180.76525252525255"/>
      <point x="339.86020202020205" y="264.7038383838384"/>
      <point x="339.86020202020205" y="501.94416161616164" type="curve" smooth="yes"/>
      <point x="339.86020202020205" y="603.648" type="line" smooth="yes"/>
      <point x="339.86020202020205" y="852.4357979797979"/>
      <point x="419.54739393939394" y="936.7933737373737"/>
      <point x="558.480404040404" y="936.7933737373737" type="curve" smooth="yes"/>
      <point x="696.4134141414141" y="936.7933737373737"/>
      <point x="770.5195959595959" y="851.4357979797979"/>
      <point x="770.5195959595959" y="603.106101010101" type="curve"/>
      <point x="815.9441616161616" y="624.2290101010101" type="line"/>
      <point x="225.53624242424243" y="624.2290101010101" type="line"/>
      <point x="225.53624242424243" y="467.1899797979798" type="line"/>
      <point x="1015.4691717171718" y="467.1899797979798" type="line"/>
      <point x="1015.4691717171718" y="538.374303030303" type="line" smooth="yes"/>
      <point x="1015.4691717171718" y="916.1173333333334"/>
      <point x="855.379797979798" y="1107.9217777777778"/>
      <point x="561.189898989899" y="1107.9217777777778" type="curve" smooth="yes"/>
      <point x="256.53632323232324" y="1107.9217777777778"/>
      <point x="78.19555555555556" y="915.6592323232323"/>
      <point x="78.19555555555556" y="545.9608888888889" type="curve" smooth="yes"/>
      <point x="78.19555555555556" y="147.50278787878787"/>
      <point x="261.8268282828283" y="-20.16759595959596"/>
    </contour>
  </outline>
</glyph>
<glyph name="f" format="2">
  <advance width="771.5865050505051"/>
  <unicode hex="0066"/>
  <outline>
    <contour>
      <point x="210.07264646464645" y="0.0" type="line"/>
      <point x="469.90488888888893" y="0.0" type="line"/>
      <point x="469.90488888888893" y="1212.0056565656566" type="line" smooth="yes"/>
      <point x="469.90488888888893" y="1362.1509494949496"/>
      <point x="542.1060202020202" y="1425.8548686868687"/>
      <point x="702.8490505050505" y="1425.8548686868687" type="curve" smooth="yes"/>
      <point x="742.6367676767677" y="1425.8548686868687"/>
      <point x="779.8825858585859" y="1422.4805656565657"/>
      <point x="821.379797979798" y="1416.1900606060606" type="curve"/>
      <point x="821.379797979798" y="1624.0" type="line"/>
      <point x="770.9608080808081" y="1632.0"/>
      <point x="720.0446060606062" y="1636.0"/>
      <point x="666.2066262626263" y="1636.0" type="curve" smooth="yes"/>
      <point x="368.5921616161616" y="1636.0"/>
      <point x="210.07264646464645" y="1477.9385858585858"/>
      <point x="210.07264646464645" y="1199.7933737373737" type="curve" smooth="yes"/>
    </contour>
    <contour>
      <point x="22.58658585858586" y="882.6928484848485" type="line"/>
      <point x="776.9608080808081" y="882.6928484848485" type="line"/>
      <point x="776.9608080808081" y="1090.8379797979799" type="line"/>
      <point x="22.58658585858586" y="1090.8379797979799" type="line"/>
    </contour>
  </outline>
</glyph>
<glyph name="g" format="2">
  <advance width="1193.4691717171718"/>
  <unicode hex="0067"/>
  <anchor x="604.480404040404" y="-440.0" name="bottom"/>
  <anchor x="619.6535757575757" y="1200.0" name="top"/>
  <outline>
    <contour>
      <point x="501.22343434343435" y="-460.0" type="curve" smooth="yes"/>
      <point x="878.2624646464647" y="-460.0"/>
      <point x="1063.027797979798" y="-302.5698585858586"/>
      <point x="1063.027797979798" y="78.07814141414144" type="curve" smooth="yes"/>
      <point x="1063.027797979798" y="1051.290505050505" type="line"/>
      <point x="951.3909494949495" y="1087.5865858585857"/>
      <point x="803.4133333333334" y="1107.9217777777778"/>
      <point x="673.3574949494949" y="1107.9217777777778" type="curve" smooth="yes"/>
      <point x="276.53632323232324" y="1107.3798787878789"/>
      <point x="78.19555555555556" y="905.2458181818182"/>
      <point x="78.19555555555556" y="523.4189898989899" type="curve" smooth="yes"/>
      <point x="78.19555555555556" y="146.88824242424243"/>
      <point x="274.65923232323235" y="-9.32961616161616"/>
      <point x="499.11733333333336" y="-9.32961616161616" type="curve" smooth="yes"/>
      <point x="625.3631515151515" y="-9.32961616161616"/>
      <point x="724.2346666666666" y="39.54189898989899"/>
      <point x="788.5251717171717" y="116.25139393939394" type="curve"/>
      <point x="801.5698585858586" y="116.25139393939394" type="line"/>
      <point x="801.5698585858586" y="31.89381818181819" type="line" smooth="yes"/>
      <point x="801.5698585858586" y="-176.7822222222222"/>
      <point x="703.2458181818182" y="-255.81575757575754"/>
      <point x="482.1731717171717" y="-255.81575757575754" type="curve" smooth="yes"/>
      <point x="383.6703838383838" y="-255.81575757575754"/>
      <point x="270.7877171717172" y="-240.35765656565653"/>
      <point x="151.86593939393939" y="-206.06715151515152" type="curve"/>
      <point x="151.86593939393939" y="-413.8770909090909" type="line"/>
      <point x="263.3351919191919" y="-445.79329292929293"/>
      <point x="391.1731717171717" y="-460.0"/>
    </contour>
    <contour>
      <point x="593.6144646464646" y="205.6926060606061" type="curve" smooth="yes"/>
      <point x="444.42448484848484" y="205.6926060606061"/>
      <point x="342.02779797979804" y="281.43006060606064"/>
      <point x="342.02779797979804" y="546.0502626262627" type="curve" smooth="yes"/>
      <point x="342.02779797979804" y="803.4246464646465"/>
      <point x="450.7596767676768" y="906.4470303030303"/>
      <point x="650.9329292929293" y="906.4470303030303" type="curve" smooth="yes"/>
      <point x="707.3798787878789" y="906.4470303030303"/>
      <point x="761.8268282828283" y="898.7822222222222"/>
      <point x="801.5698585858586" y="889.2012121212122" type="curve"/>
      <point x="801.5698585858586" y="292.9943434343435" type="line"/>
      <point x="748.7039191919192" y="233.3909494949495"/>
      <point x="669.4301414141414" y="205.6926060606061"/>
    </contour>
  </outline>
</glyph>
<glyph name="h" format="2">
  <advance width="1191.586505050505"/>
  <unicode hex="0068"/>
  <anchor x="601.396606060606" y="0.0" name="bottom"/>
  <anchor x="601.396606060606" y="545.4189898989899" name="center"/>
  <anchor x="130.44137373737374" y="1352.748606060606" name="stroke"/>
  <anchor x="601.396606060606" y="1616.0" name="top"/>
  <outline>
    <contour>
      <point x="130.44137373737374" y="0.0" type="line"/>
      <point x="391.8993131313132" y="0.0" type="line"/>
      <point x="391.8993131313132" y="771.2570505050505" type="line"/>
      <point x="451.7596767676768" y="847.1509494949495"/>
      <point x="546.4468686868687" y="880.0615757575757"/>
      <point x="628.6815353535353" y="880.0615757575757" type="curve" smooth="yes"/>
      <point x="738.7430303030303" y="880.0615757575757"/>
      <point x="809.352" y="831.2794343434343"/>
      <point x="809.352" y="678.7654141414141" type="curve" smooth="yes"/>
      <point x="809.352" y="0.0" type="line"/>
      <point x="1070.8099393939394" y="0.0" type="line"/>
      <point x="1070.8099393939394" y="695.1061818181818" type="line" smooth="yes"/>
      <point x="1070.8099393939394" y="995.8715151515152"/>
      <point x="918.1786666666667" y="1107.9217777777778"/>
      <point x="718.9272727272728" y="1107.9217777777778" type="curve" smooth="yes"/>
      <point x="591.8881616161616" y="1107.9217777777778"/>
      <point x="484.2289292929293" y="1062.5474747474748"/>
      <point x="404.944" y="976.8435555555556" type="curve"/>
      <point x="391.8993131313132" y="976.8435555555556" type="line"/>
      <point x="391.8993131313132" y="1616.0" type="line"/>
      <point x="130.44137373737374" y="1616.0" type="line"/>
    </contour>
  </outline>
</glyph>
<glyph name="k" format="2">
  <advance width="1128.2400808080808"/>
  <unicode hex="006B"/>
  <anchor x="599.2010505050505" y="0.0" name="bottom"/>
  <anchor x="261.44129292929296" y="1616.0" name="top"/>
  <outline>
    <contour>
      <point x="870.2011313131313" y="0.0" type="line"/>
      <point x="1157.3294545454546" y="0.0" type="line"/>
      <point x="732.4746666666667" y="599.3072323232324" type="line"/>
      <point x="732.4746666666667" y="529.6201212121213" type="line"/>
      <point x="1122.6199595959597" y="1090.8379797979799" type="line"/>
      <point x="841.3687272727273" y="1090.8379797979799" type="line"/>
      <point x="465.8100202020202" y="559.5865858585859" type="line"/>
    </contour>
    <contour>
      <point x="367.22892929292937" y="453.8883232323232" type="line"/>
      <point x="562.4580202020202" y="453.8883232323232" type="line"/>
      <point x="562.4580202020202" y="665.2848484848485" type="line"/>
      <point x="367.22892929292937" y="665.2848484848485" type="line"/>
    </contour>
    <contour>
      <point x="130.44137373737374" y="0.0" type="line"/>
      <point x="391.8993131313132" y="0.0" type="line"/>
      <point x="391.8993131313132" y="1616.0" type="line"/>
      <point x="130.44137373737374" y="1616.0" type="line"/>
    </contour>
  </outline>
</glyph>
<glyph name="l" format="2">
  <advance width="522.3406868686869"/>
  <unicode hex="006C"/>
  <anchor x="260.8993939393939" y="0.0" name="bottom"/>
  <anchor x="495.64234343434345" y="1616.0" name="caronalt"/>
  <anchor x="616.4690909090909" y="794.0" name="periodcentered"/>
  <anchor x="261.44129292929296" y="714.0" name="slash"/>
  <anchor x="261.44129292929296" y="1616.0" name="top"/>
  <outline>
    <contour>
      <point x="130.44137373737374" y="0.0" type="line"/>
      <point x="391.8993131313132" y="0.0" type="line"/>
      <point x="391.8993131313132" y="1616.0" type="line"/>
      <point x="130.44137373737374" y="1616.0" type="line"/>
    </contour>
  </outline>
</glyph>
<glyph name="m" format="2">
  <advance width="1764.7652525252524"/>
  <unicode hex="006D"/>
  <anchor x="891.5697777777777" y="0.0" name="bottom"/>
  <anchor x="891.5697777777777" y="1200.0" name="top"/>
  <outline>
    <contour>
      <point x="130.44137373737374" y="0.0" type="line"/>
      <point x="391.8993131313132" y="0.0" type="line"/>
      <point x="391.8993131313132" y="768.9665454545454" type="line"/>
      <point x="444.9272727272728" y="847.1509494949495"/>
      <point x="528.9496565656566" y="880.9777777777778"/>
      <point x="603.2290101010101" y="880.9777777777778" type="curve" smooth="yes"/>
      <point x="699.877090909091" y="880.9777777777778"/>
      <point x="762.7374545454545" y="831.8213333333333"/>
      <point x="762.7374545454545" y="680.5587070707071" type="curve" smooth="yes"/>
      <point x="762.7374545454545" y="0.0" type="line"/>
      <point x="1019.318303030303" y="0.0" type="line"/>
      <point x="1019.318303030303" y="702.1508686868686" type="line" smooth="yes"/>
      <point x="1019.318303030303" y="996.9553131313131"/>
      <point x="877.5194343434343" y="1107.9217777777778"/>
      <point x="687.7205656565657" y="1107.9217777777778" type="curve" smooth="yes"/>
      <point x="563.7596767676769" y="1107.9217777777778"/>
      <point x="457.3462626262626" y="1062.6312727272727"/>
      <point x="378.3909494949495" y="974.9273535353535" type="curve"/>
      <point x="364.9719595959596" y="974.9273535353535" type="line"/>
      <point x="347.05018181818184" y="1090.8379797979799" type="line"/>
      <point x="130.44137373737374" y="1090.8379797979799" type="line"/>
    </contour>
    <contour>
      <point x="1383.0726464646464" y="0.0" type="line"/>
      <point x="1643.988686868687" y="0.0" type="line"/>
      <point x="1643.988686868687" y="694.0223838383838" type="line" smooth="yes"/>
      <point x="1643.988686868687" y="995.8715151515152"/>
      <point x="1496.1060202020203" y="1107.9217777777778"/>
      <point x="1294.0948686868687" y="1107.9217777777778" type="curve" smooth="yes"/>
      <point x="1172.13397979798" y="1107.9217777777778"/>
      <point x="1040.8043636363636" y="1059.8379797979799"/>
      <point x="940.4747474747476" y="934.0558383838384" type="curve"/>
      <point x="995.737292929293" y="755.2235151515151" type="line"/>
      <point x="1050.3071515151514" y="847.1509494949495"/>
      <point x="1140.4915555555556" y="880.9777777777778"/>
      <point x="1218.022303030303" y="880.9777777777778" type="curve" smooth="yes"/>
      <point x="1314.5865858585857" y="880.9777777777778"/>
      <point x="1383.0726464646464" y="831.8213333333333"/>
      <point x="1383.0726464646464" y="680.5587070707071" type="curve" smooth="yes"/>
    </contour>
  </outline>
</glyph>
<glyph name="n" format="2">
  <advance width="1191.586505050505"/>
  <unicode hex="006E"/>
  <anchor x="11.91620202020202" y="1200.0" name="apostrophe"/>
  <anchor x="601.396606060606" y="0.0" name="bottom"/>
  <anchor x="601.396606060606" y="1200.0" name="top"/>
  <outline>
    <contour>
      <point x="130.44137373737374" y="0.0" type="line"/>
      <point x="391.8993131313132" y="0.0" type="line"/>
      <point x="391.8993131313132" y="771.7151515151515" type="line"/>
      <point x="452.6758787878788" y="848.9833535353536"/>
      <point x="548.1116767676767" y="880.9777777777778"/>
      <point x="628.6815353535353" y="880.9777777777778" type="curve" smooth="yes"/>
      <point x="740.1173333333334" y="880.9777777777778"/>
      <point x="809.352" y="830.9051313131313"/>
      <point x="809.352" y="679.474909090909" type="curve" smooth="yes"/>
      <point x="809.352" y="0.0" type="line"/>
      <point x="1070.8099393939394" y="0.0" type="line"/>
      <point x="1070.8099393939394" y="694.6480808080807" type="line" smooth="yes"/>
      <point x="1070.8099393939394" y="994.8715151515152"/>
      <point x="918.1786666666667" y="1107.9217777777778"/>
      <point x="706.5473939393939" y="1107.9217777777778" type="curve" smooth="yes"/>
      <point x="576.8825858585859" y="1107.9217777777778"/>
      <point x="461.6367676767677" y="1060.7988686868687"/>
      <point x="378.3909494949495" y="975.3854545454545" type="curve"/>
      <point x="364.9719595959596" y="975.3854545454545" type="line"/>
      <point x="347.05018181818184" y="1090.8379797979799" type="line"/>
      <point x="130.44137373737374" y="1090.8379797979799" type="line"/>
    </contour>
  </outline>
</glyph>
<glyph name="o" format="2">
  <advance width="1170.7149898989899"/>
  <unicode hex="006F"/>
  <anchor x="585.3574949494949" y="0.0" name="bottom"/>
  <anchor x="585.3574949494949" y="545.4189898989899" name="center"/>
  <anchor x="750.2457373737374" y="0.0" name="ogonek"/>
  <anchor x="585.3574949494949" y="1200.0" name="top"/>
  <anchor x="643.6201212121211" y="1090.8379797979799" name="topright"/>
  <outline>
    <contour>
      <point x="585.3574949494949" y="-20.16759595959596" type="curve" smooth="yes"/>
      <point x="895.3406868686868" y="-20.16759595959596"/>
      <point x="1092.5194343434343" y="160.88266666666667"/>
      <point x="1092.5194343434343" y="544.335191919192" type="curve" smooth="yes"/>
      <point x="1092.5194343434343" y="927.4525252525252"/>
      <point x="901.3015757575757" y="1107.9217777777778"/>
      <point x="585.3574949494949" y="1107.9217777777778" type="curve" smooth="yes"/>
      <point x="269.41341414141414" y="1107.9217777777778"/>
      <point x="78.19555555555556" y="928.3296161616162"/>
      <point x="78.19555555555556" y="543.2513939393939" type="curve" smooth="yes"/>
      <point x="78.19555555555556" y="159.05026262626262"/>
      <point x="275.37430303030305" y="-20.16759595959596"/>
    </contour>
    <contour>
      <point x="585.3574949494949" y="181.30715151515153" type="curve" smooth="yes"/>
      <point x="432.9663838383839" y="181.30715151515153"/>
      <point x="342.02779797979804" y="267.9161212121212"/>
      <point x="342.02779797979804" y="545.7094949494949" type="curve" smooth="yes"/>
      <point x="342.02779797979804" y="820.7542626262626"/>
      <point x="434.05018181818184" y="906.4470303030303"/>
      <point x="585.3574949494949" y="906.4470303030303" type="curve" smooth="yes"/>
      <point x="736.6648080808081" y="906.4470303030303"/>
      <point x="828.687191919192" y="820.7542626262626"/>
      <point x="828.687191919192" y="541.877090909091" type="curve" smooth="yes"/>
      <point x="828.687191919192" y="267.9161212121212"/>
      <point x="737.7486060606061" y="181.30715151515153"/>
    </contour>
  </outline>
</glyph>
<glyph name="p" format="2">
  <advance width="1193.4691717171718"/>
  <unicode hex="0070"/>
  <outline>
    <contour>
      <point x="130.44137373737374" y="-440.0" type="line"/>
      <point x="391.8993131313132" y="-440.0" type="line"/>
      <point x="391.8993131313132" y="-9.67038383838384" type="line"/>
      <point x="434.5585454545455" y="-14.87709090909091"/>
      <point x="486.25688888888897" y="-19.62569696969697"/>
      <point x="536.6647272727273" y="-19.62569696969697" type="curve" smooth="yes"/>
      <point x="915.7652525252525" y="-19.62569696969697"/>
      <point x="1115.2736161616162" y="180.88266666666667"/>
      <point x="1115.2736161616162" y="565.9608888888889" type="curve" smooth="yes"/>
      <point x="1115.2736161616162" y="957.664808080808"/>
      <point x="913.4747474747475" y="1107.9217777777778"/>
      <point x="674.2624646464647" y="1107.9217777777778" type="curve" smooth="yes"/>
      <point x="544.8043636363636" y="1107.9217777777778"/>
      <point x="443.8490505050505" y="1053.6312727272727"/>
      <point x="380.5585454545455" y="973.0893737373738" type="curve"/>
      <point x="367.5976565656566" y="973.0893737373738" type="line"/>
      <point x="350.8434747474748" y="1090.8379797979799" type="line"/>
      <point x="130.44137373737374" y="1090.8379797979799" type="line"/>
    </contour>
    <contour>
      <point x="537.4971313131314" y="182.39094949494952" type="curve" smooth="yes"/>
      <point x="487.7149898989899" y="182.39094949494952"/>
      <point x="431.64234343434345" y="188.68145454545456"/>
      <point x="391.8993131313132" y="197.26246464646468" type="curve"/>
      <point x="391.8993131313132" y="795.9721212121212" type="line"/>
      <point x="444.22335353535357" y="862.4917171717171"/>
      <point x="524.2904242424243" y="891.8157575757575"/>
      <point x="601.3574949494949" y="891.8157575757575" type="curve" smooth="yes"/>
      <point x="747.4189898989899" y="891.8157575757575"/>
      <point x="851.4413737373737" y="815.536404040404"/>
      <point x="851.4413737373737" y="544.9553131313131" type="curve" smooth="yes"/>
      <point x="851.4413737373737" y="285.41333333333336"/>
      <point x="745.9608888888889" y="182.39094949494952"/>
    </contour>
  </outline>
</glyph>
<glyph name="q" format="2">
  <advance width="1193.4691717171718"/>
  <unicode hex="0071"/>
  <outline>
    <contour>
      <point x="801.5698585858586" y="-440.0" type="line"/>
      <point x="1063.027797979798" y="-440.0" type="line"/>
      <point x="1063.027797979798" y="1051.290505050505" type="line"/>
      <point x="951.3909494949495" y="1087.5865858585857"/>
      <point x="803.4133333333334" y="1107.9217777777778"/>
      <point x="672.815595959596" y="1107.9217777777778" type="curve" smooth="yes"/>
      <point x="276.53632323232324" y="1107.9217777777778"/>
      <point x="78.19555555555556" y="909.5810101010101"/>
      <point x="78.19555555555556" y="521.2513939393939" type="curve" smooth="yes"/>
      <point x="78.19555555555556" y="136.05026262626262"/>
      <point x="270.8659393939394" y="-19.62569696969697"/>
      <point x="499.11733333333336" y="-19.62569696969697" type="curve" smooth="yes"/>
      <point x="625.3631515151515" y="-19.62569696969697"/>
      <point x="724.2346666666666" y="29.24581818181818"/>
      <point x="788.5251717171717" y="105.95531313131313" type="curve"/>
      <point x="801.5698585858586" y="105.95531313131313" type="line"/>
    </contour>
    <contour>
      <point x="593.6144646464646" y="197.02222222222224" type="curve" smooth="yes"/>
      <point x="445.50828282828286" y="197.02222222222224"/>
      <point x="342.02779797979804" y="273.3015757575758"/>
      <point x="342.02779797979804" y="542.7988686868687" type="curve" smooth="yes"/>
      <point x="342.02779797979804" y="803.4246464646465"/>
      <point x="450.7596767676768" y="906.4470303030303"/>
      <point x="650.3910303030303" y="906.4470303030303" type="curve" smooth="yes"/>
      <point x="707.3798787878789" y="906.4470303030303"/>
      <point x="761.8268282828283" y="898.7822222222222"/>
      <point x="801.5698585858586" y="889.2012121212122" type="curve"/>
      <point x="801.5698585858586" y="284.3239595959596" type="line"/>
      <point x="748.7039191919192" y="224.72056565656567"/>
      <point x="669.4301414141414" y="197.02222222222224"/>
    </contour>
  </outline>
</glyph>
<glyph name="r" format="2">
  <advance width="778.6703030303031"/>
  <unicode hex="0072"/>
  <anchor x="261.44129292929296" y="0.0" name="bottom"/>
  <anchor x="443.18432323232327" y="1200.0" name="top"/>
  <outline>
    <contour>
      <point x="130.44137373737374" y="0.0" type="line"/>
      <point x="391.8993131313132" y="0.0" type="line"/>
      <point x="391.8993131313132" y="743.8771717171717" type="line"/>
      <point x="452.30715151515153" y="825.0671515151515"/>
      <point x="565.586505050505" y="866.2682828282827"/>
      <point x="663.8714343434343" y="866.2682828282827" type="curve" smooth="yes"/>
      <point x="697.9552323232323" y="866.2682828282827"/>
      <point x="733.8770101010101" y="864.7263838383838"/>
      <point x="766.7541010101011" y="858.5587878787878" type="curve"/>
      <point x="766.7541010101011" y="1096.7150707070707" type="line"/>
      <point x="741.379797979798" y="1101.1731717171717"/>
      <point x="711.4189090909091" y="1104.2569696969697"/>
      <point x="678.9608080808081" y="1104.2569696969697" type="curve" smooth="yes"/>
      <point x="556.9608080808081" y="1104.2569696969697"/>
      <point x="445.30157575757573" y="1054.2178585858585"/>
      <point x="379.4747474747475" y="948.1731717171717" type="curve"/>
      <point x="366.05575757575764" y="948.1731717171717" type="line"/>
      <point x="345.42448484848484" y="1090.8379797979799" type="line"/>
      <point x="130.44137373737374" y="1090.8379797979799" type="line"/>
    </contour>
  </outline>
</glyph>
<glyph name="s" format="2">
  <advance width="950.2904242424243"/>
  <unicode hex="0073"/>
  <anchor x="480.06141414141416" y="0.0" name="bottom"/>
  <anchor x="480.06141414141416" y="1200.0" name="top"/>
  <outline>
    <contour>
      <point x="429.39103030303033" y="-20.16759595959596" type="curve" smooth="yes"/>
      <point x="728.2010505050505" y="-20.16759595959596"/>
      <point x="894.1339797979798" y="109.00557575757576"/>
      <point x="894.1339797979798" y="319.55862626262626" type="curve" smooth="yes"/>
      <point x="894.1339797979798" y="500.24016161616163"/>
      <point x="800.2904242424243" y="588.4468686868687"/>
      <point x="603.7932121212122" y="627.4021818181818" type="curve" smooth="yes"/>
      <point x="437.4021818181818" y="658.6535757575757" type="line" smooth="yes"/>
      <point x="347.38537373737375" y="677.5642020202021"/>
      <point x="316.4356363636364" y="715.9664646464646"/>
      <point x="316.4356363636364" y="777.2793535353535" type="curve" smooth="yes"/>
      <point x="316.4356363636364" y="851.7151515151515"/>
      <point x="372.463595959596" y="913.4917171717171"/>
      <point x="563.0334545454546" y="913.4917171717171" type="curve" smooth="yes"/>
      <point x="658.6647272727273" y="913.4917171717171"/>
      <point x="749.1339797979798" y="901.6984242424243"/>
      <point x="834.8825858585859" y="878.2403232323232" type="curve"/>
      <point x="834.8825858585859" y="1074.128484848485" type="line"/>
      <point x="755.0892929292929" y="1095.212282828283"/>
      <point x="657.2457373737374" y="1107.9217777777778"/>
      <point x="555.9887676767677" y="1107.9217777777778" type="curve" smooth="yes"/>
      <point x="227.083797979798" y="1107.9217777777778"/>
      <point x="71.4860606060606" y="971.083797979798"/>
      <point x="71.4860606060606" y="771.0279595959596" type="curve" smooth="yes"/>
      <point x="71.4860606060606" y="603.726303030303"/>
      <point x="156.03353535353534" y="502.68161616161615"/>
      <point x="359.2458181818182" y="463.100606060606" type="curve" smooth="yes"/>
      <point x="525.6368484848485" y="431.8492121212121" type="line" smooth="yes"/>
      <point x="615.6536565656565" y="412.93858585858584"/>
      <point x="649.184404040404" y="379.49163636363636"/>
      <point x="649.184404040404" y="309.22343434343435" type="curve" smooth="yes"/>
      <point x="649.184404040404" y="224.29042424242425"/>
      <point x="586.8659393939394" y="174.26246464646468"/>
      <point x="426.4301414141414" y="174.26246464646468" type="curve" smooth="yes"/>
      <point x="313.58658585858586" y="174.26246464646468"/>
      <point x="203.2402424242424" y="190.13955555555557"/>
      <point x="97.24024242424242" y="222.1395555555556" type="curve"/>
      <point x="97.24024242424242" y="26.25139393939394" type="line"/>
      <point x="196.7877171717172" y="-5.0"/>
      <point x="309.7988686868687" y="-20.16759595959596"/>
    </contour>
  </outline>
</glyph>
<glyph name="t" format="2">
  <advance width="808.8825858585858"/>
  <unicode hex="0074"/>
  <anchor x="491.59773737373735" y="0.0" name="bottom"/>
  <anchor x="611.4244848484849" y="1616.0" name="caronalt"/>
  <anchor x="202.07264646464645" y="604.184404040404" name="stroke"/>
  <anchor x="333.07256565656564" y="1501.6759595959595" name="top"/>
  <anchor x="740.2848484848485" y="1616.0" name="topright"/>
  <outline>
    <contour>
      <point x="591.312808080808" y="-19.62569696969697" type="curve" smooth="yes"/>
      <point x="655.4859797979798" y="-19.62569696969697"/>
      <point x="724.3295353535354" y="-10.83240404040404"/>
      <point x="780.6647272727273" y="2.2513939393939397" type="curve"/>
      <point x="780.6647272727273" y="212.2289292929293" type="line"/>
      <point x="732.7094141414142" y="203.02222222222227"/>
      <point x="696.2122020202021" y="198.10602020202023"/>
      <point x="659.2568888888889" y="198.10602020202023" type="curve" smooth="yes"/>
      <point x="524.4356363636364" y="198.10602020202023"/>
      <point x="463.53058585858594" y="252.13955555555557"/>
      <point x="463.53058585858594" y="413.58092929292934" type="curve" smooth="yes"/>
      <point x="463.53058585858594" y="1480.0" type="line"/>
      <point x="248.54747474747475" y="1480.0" type="line"/>
      <point x="202.07264646464645" y="1090.8379797979799" type="line"/>
      <point x="202.07264646464645" y="372.31838383838385" type="line" smooth="yes"/>
      <point x="202.07264646464645" y="99.59216161616162"/>
      <point x="342.29050505050503" y="-19.62569696969697"/>
    </contour>
    <contour>
      <point x="14.58658585858586" y="882.6928484848485" type="line"/>
      <point x="770.586505050505" y="882.6928484848485" type="line"/>
      <point x="770.586505050505" y="1090.8379797979799" type="line"/>
      <point x="14.58658585858586" y="1090.8379797979799" type="line"/>
    </contour>
  </outline>
</glyph>
<glyph name="u" format="2">
  <advance width="1182.1284040404041"/>
  <unicode hex="0075"/>
  <anchor x="586.731797979798" y="0.0" name="bottom"/>
  <anchor x="1051.6870303030303" y="0.0" name="ogonek"/>
  <anchor x="586.731797979798" y="1200.0" name="top"/>
  <anchor x="815.6983434343434" y="1090.8379797979799" name="topright"/>
  <outline>
    <contour>
      <point x="486.541898989899" y="-18.54189898989899" type="curve" smooth="yes"/>
      <point x="607.4972121212121" y="-18.54189898989899"/>
      <point x="718.9497373737374" y="26.29050505050505"/>
      <point x="804.8212525252525" y="113.1620202020202" type="curve"/>
      <point x="817.1564444444444" y="113.1620202020202" type="line"/>
      <point x="835.0782222222222" y="0.0" type="line"/>
      <point x="1051.6870303030303" y="0.0" type="line"/>
      <point x="1051.6870303030303" y="1090.8379797979799" type="line"/>
      <point x="790.2290909090909" y="1090.8379797979799" type="line"/>
      <point x="790.2290909090909" y="317.6647272727273" type="line"/>
      <point x="730.8268282828283" y="242.2289292929293"/>
      <point x="636.1396363636363" y="208.40210101010103"/>
      <point x="557.9049696969697" y="208.40210101010103" type="curve" smooth="yes"/>
      <point x="452.8434747474748" y="208.40210101010103"/>
      <point x="382.23450505050505" y="258.1004444444445"/>
      <point x="382.23450505050505" y="409.53066666666666" type="curve" smooth="yes"/>
      <point x="382.23450505050505" y="1090.8379797979799" type="line"/>
      <point x="120.77656565656565" y="1090.8379797979799" type="line"/>
      <point x="120.77656565656565" y="393.189898989899" type="line" smooth="yes"/>
      <point x="120.77656565656565" y="93.50836363636364"/>
      <point x="274.49163636363636" y="-18.54189898989899"/>
    </contour>
  </outline>
</glyph>
<glyph name="v" format="2">
  <advance width="1126.6814545454545"/>
  <unicode hex="0076"/>
  <anchor x="564.0278787878788" y="0.0" name="bottom"/>
  <anchor x="564.0278787878788" y="1200.0" name="top"/>
  <outline>
    <contour>
      <point x="398.43579797979794" y="0.0" type="line"/>
      <point x="727.7037575757577" y="0.0" type="line"/>
      <point x="1121.7317171717173" y="1090.8379797979799" type="line"/>
      <point x="862.8603636363637" y="1090.8379797979799" type="line"/>
      <point x="559.9049696969697" y="202.90488888888893" type="line"/>
      <point x="582.2401616161617" y="202.90488888888893" type="line"/>
      <point x="279.28476767676773" y="1090.8379797979799" type="line"/>
      <point x="4.949737373737369" y="1090.8379797979799" type="line"/>
    </contour>
  </outline>
</glyph>
<glyph name="w" format="2">
  <advance width="1768.1451313131313"/>
  <unicode hex="0077"/>
  <anchor x="885.0725656565656" y="0.0" name="bottom"/>
  <anchor x="885.5306666666667" y="1200.0" name="top"/>
  <outline>
    <contour>
      <point x="352.2290909090909" y="0.0" type="line"/>
      <point x="645.6479191919192" y="0.0" type="line"/>
      <point x="895.7820606060607" y="872.5141010101011" type="line"/>
      <point x="877.6982626262627" y="872.5141010101011" type="line"/>
      <point x="1124.0391111111112" y="0.0" type="line"/>
      <point x="1417.4579393939393" y="0.0" type="line"/>
      <point x="1718.7372929292928" y="1090.8379797979799" type="line"/>
      <point x="1479.2067070707071" y="1090.8379797979799" type="line"/>
      <point x="1251.2848484848485" y="248.63111111111112" type="line"/>
      <point x="1271.6200404040405" y="248.63111111111112" type="line"/>
      <point x="1036.6590707070707" y="1090.8379797979799" type="line"/>
      <point x="743.2402424242424" y="1090.8379797979799" type="line"/>
      <point x="506.02787878787876" y="248.63111111111115" type="line"/>
      <point x="521.4859797979798" y="248.63111111111115" type="line"/>
      <point x="299.0669090909091" y="1090.8379797979799" type="line"/>
      <point x="49.40783838383838" y="1090.8379797979799" type="line"/>
    </contour>
  </outline>
</glyph>
<glyph name="x" format="2">
  <advance width="1083.5194343434343"/>
  <unicode hex="0078"/>
  <anchor x="542.4468686868687" y="0.0" name="bottom"/>
  <anchor x="542.9887676767677" y="1200.0" name="top"/>
  <outline>
    <contour>
      <point x="794.3184646464647" y="0.0" type="line"/>
      <point x="1084.614383838384" y="0.0" type="line"/>
      <point x="695.0780606060607" y="553.0446868686869" type="line"/>
      <point x="545.1563636363637" y="735.9328484848485" type="line"/>
      <point x="298.11717171717174" y="1090.8379797979799" type="line"/>
      <point x="7.821252525252522" y="1090.8379797979799" type="line"/>
      <point x="387.27377777777775" y="549.4189898989899" type="line"/>
      <point x="539.9049696969697" y="368.07272727272726" type="line"/>
    </contour>
    <contour>
      <point x="0.82125252525252" y="0.0" type="line"/>
      <point x="283.6143838383839" y="0.0" type="line"/>
      <point x="539.9049696969697" y="368.07272727272726" type="line"/>
      <point x="695.0780606060607" y="553.0446868686869" type="line"/>
      <point x="1072.904888888889" y="1090.8379797979799" type="line"/>
      <point x="791.0279595959596" y="1090.8379797979799" type="line"/>
      <point x="545.1563636363637" y="735.9328484848485" type="line"/>
      <point x="387.27377777777775" y="549.4189898989899" type="line"/>
    </contour>
  </outline>
</glyph>
<glyph name="y" format="2">
  <advance width="1126.6814545454545"/>
  <unicode hex="0079"/>
  <anchor x="916.4579393939393" y="0.0" name="bottom"/>
  <anchor x="564.0278787878788" y="1200.0" name="top"/>
  <outline>
    <contour>
      <point x="310.9217777777778" y="-440.0" type="line"/>
      <point x="568.2512323232323" y="-440.0" type="line"/>
      <point x="1121.7317171717173" y="1090.8379797979799" type="line"/>
      <point x="862.8603636363637" y="1090.8379797979799" type="line"/>
      <point x="559.9049696969697" y="202.90488888888893" type="line"/>
      <point x="471.37430303030305" y="0.0" type="line"/>
    </contour>
    <contour>
      <point x="398.43579797979794" y="0.0" type="line"/>
      <point x="642.9272727272728" y="0.0" type="line"/>
      <point x="279.28476767676773" y="1090.8379797979799" type="line"/>
      <point x="4.949737373737369" y="1090.8379797979799" type="line"/>
    </contour>
  </outline>
</glyph>
<glyph name="z" format="2">
  <advance width="978.7987878787878"/>
  <unicode hex="007A"/>
  <anchor x="496.2345858585859" y="0.0" name="bottom"/>
  <anchor x="496.2345858585859" y="1200.0" name="top"/>
  <outline>
    <contour>
      <point x="64.25139393939394" y="0.0" type="line"/>
      <point x="927.2177777777778" y="0.0" type="line"/>
      <point x="927.2177777777778" y="208.14513131313134" type="line"/>
      <point x="350.42440404040406" y="208.14513131313134" type="line"/>
      <point x="350.42440404040406" y="157.6758787878788" type="line"/>
      <point x="916.3015757575758" y="926.201212121212" type="line"/>
      <point x="916.3015757575758" y="1090.8379797979799" type="line"/>
      <point x="75.16759595959596" y="1090.8379797979799" type="line"/>
      <point x="75.16759595959596" y="882.6928484848485" type="line"/>
      <point x="630.1285656565657" y="882.6928484848485" type="line"/>
      <point x="630.1285656565657" y="933.162101010101" type="line"/>
      <point x="64.25139393939394" y="164.6367676767677" type="line"/>
    </contour>
  </outline>
</glyph>
<glyph name="braceleft" format="2">
  <advance width="735.3630707070707"/>
  <unicode hex="007B"/>
  <outline>
    <contour>
      <point x="606.0502626262626" y="-460.0" type="curve" smooth="yes"/>
      <point x="667.9329292929293" y="-460.0"/>
      <point x="723.1452121212121" y="-454.91620202020204"/>
      <point x="767.7764848484849" y="-447.832404040404" type="curve"/>
      <point x="767.7764848484849" y="-247.6872727272727" type="line"/>
      <point x="646.4859797979798" y="-247.6872727272727" type="line" smooth="yes"/>
      <point x="527.4691717171718" y="-247.6872727272727"/>
      <point x="467.5641212121212" y="-199.2403232323232"/>
      <point x="467.5641212121212" y="-80.84921212121212" type="curve" smooth="yes"/>
      <point x="467.5641212121212" y="371.2402424242424" type="line" smooth="yes"/>
      <point x="467.5641212121212" y="539.7541818181818"/>
      <point x="387.9663838383839" y="631.2625454545455"/>
      <point x="188.08937373737373" y="643.1731717171717" type="curve"/>
      <point x="188.08937373737373" y="611.664808080808" type="line"/>
      <point x="387.9663838383839" y="623.5754343434344"/>
      <point x="467.5641212121212" y="715.083797979798"/>
      <point x="467.5641212121212" y="883.5977373737373" type="curve" smooth="yes"/>
      <point x="467.5641212121212" y="1256.849212121212" type="line" smooth="yes"/>
      <point x="467.5641212121212" y="1375.2403232323231"/>
      <point x="527.4691717171718" y="1423.6872727272728"/>
      <point x="646.4859797979798" y="1423.6872727272728" type="curve" smooth="yes"/>
      <point x="767.7764848484849" y="1423.6872727272728" type="line"/>
      <point x="767.7764848484849" y="1623.832404040404" type="line"/>
      <point x="723.1452121212121" y="1630.916202020202"/>
      <point x="667.9329292929293" y="1636.0"/>
      <point x="606.0502626262626" y="1636.0" type="curve" smooth="yes"/>
      <point x="341.2402424242424" y="1636.0"/>
      <point x="206.10618181818182" y="1507.8659393939395"/>
      <point x="206.10618181818182" y="1262.312888888889" type="curve" smooth="yes"/>
      <point x="206.10618181818182" y="875.7653333333334" type="line" smooth="yes"/>
      <point x="206.10618181818182" y="780.0725656565656"/>
      <point x="153.86036363636362" y="731.4915555555556"/>
      <point x="62.74860606060606" y="731.4915555555556" type="curve" smooth="yes"/>
      <point x="19.027959595959587" y="731.4915555555556" type="line"/>
      <point x="19.027959595959587" y="523.3464242424243" type="line"/>
      <point x="62.74860606060606" y="523.3464242424243" type="line" smooth="yes"/>
      <point x="153.86036363636362" y="523.3464242424243"/>
      <point x="206.10618181818182" y="474.7654141414141"/>
      <point x="206.10618181818182" y="379.0726464646465" type="curve" smooth="yes"/>
      <point x="206.10618181818182" y="-86.31288888888888" type="line" smooth="yes"/>
      <point x="206.10618181818182" y="-331.8659393939394"/>
      <point x="341.2402424242424" y="-460.0"/>
    </contour>
  </outline>
</glyph>
<glyph name="braceright" format="2">
  <advance width="735.3630707070707"/>
  <unicode hex="007D"/>
  <outline>
    <contour>
      <point x="129.31280808080808" y="-460.0" type="curve" smooth="yes"/>
      <point x="394.1228282828283" y="-460.0"/>
      <point x="529.2568888888889" y="-331.8659393939394"/>
      <point x="529.2568888888889" y="-86.31288888888888" type="curve" smooth="yes"/>
      <point x="529.2568888888889" y="379.0726464646465" type="line" smooth="yes"/>
      <point x="529.2568888888889" y="474.7654141414141"/>
      <point x="581.5027070707071" y="523.3464242424243"/>
      <point x="672.6144646464646" y="523.3464242424243" type="curve" smooth="yes"/>
      <point x="716.3351111111111" y="523.3464242424243" type="line"/>
      <point x="716.3351111111111" y="731.4915555555556" type="line"/>
      <point x="672.6144646464646" y="731.4915555555556" type="line" smooth="yes"/>
      <point x="581.5027070707071" y="731.4915555555556"/>
      <point x="529.2568888888889" y="780.0725656565656"/>
      <point x="529.2568888888889" y="875.7653333333334" type="curve" smooth="yes"/>
      <point x="529.2568888888889" y="1262.312888888889" type="line" smooth="yes"/>
      <point x="529.2568888888889" y="1507.8659393939395"/>
      <point x="394.1228282828283" y="1636.0"/>
      <point x="129.31280808080808" y="1636.0" type="curve" smooth="yes"/>
      <point x="67.43014141414142" y="1636.0"/>
      <point x="12.21785858585859" y="1630.916202020202"/>
      <point x="-32.41341414141414" y="1623.832404040404" type="curve"/>
      <point x="-32.41341414141414" y="1423.6872727272728" type="line"/>
      <point x="88.87709090909091" y="1423.6872727272728" type="line" smooth="yes"/>
      <point x="207.893898989899" y="1423.6872727272728"/>
      <point x="267.7989494949495" y="1375.2403232323231"/>
      <point x="267.7989494949495" y="1256.849212121212" type="curve" smooth="yes"/>
      <point x="267.7989494949495" y="883.5977373737373" type="line" smooth="yes"/>
      <point x="267.7989494949495" y="715.083797979798"/>
      <point x="349.0223838383838" y="623.5754343434344"/>
      <point x="547.273696969697" y="611.664808080808" type="curve"/>
      <point x="547.273696969697" y="643.1731717171717" type="line"/>
      <point x="349.0223838383838" y="631.2625454545455"/>
      <point x="267.7989494949495" y="539.7541818181818"/>
      <point x="267.7989494949495" y="371.2402424242424" type="curve" smooth="yes"/>
      <point x="267.7989494949495" y="-80.84921212121212" type="line" smooth="yes"/>
      <point x="267.7989494949495" y="-199.2403232323232"/>
      <point x="207.893898989899" y="-247.6872727272727"/>
      <point x="88.87709090909091" y="-247.6872727272727" type="curve" smooth="yes"/>
      <point x="-32.41341414141414" y="-247.6872727272727" type="line"/>
      <point x="-32.41341414141414" y="-447.832404040404" type="line"/>
      <point x="12.21785858585859" y="-454.91620202020204"/>
      <point x="67.43014141414142" y="-460.0"/>
    </contour>
  </outline>
</glyph>
<glyph name="asciitilde" format="2">
  <advance width="1091.2625454545455"/>
  <unicode hex="007E"/>
  <outline>
    <contour>
      <point x="736.0558383838384" y="598.9721212121212" type="curve" smooth="yes"/>
      <point x="831.938505050505" y="598.9721212121212"/>
      <point x="905.189898989899" y="629.8883232323233"/>
      <point x="962.7373737373738" y="695.474909090909" type="curve"/>
      <point x="962.7373737373738" y="907.5306666666667" type="line"/>
      <point x="893.5642020202021" y="832.2792727272728"/>
      <point x="824.6871111111111" y="798.4468686868687"/>
      <point x="737.3072323232324" y="798.4468686868687" type="curve" smooth="yes"/>
      <point x="618.1340606060606" y="798.4468686868687"/>
      <point x="504.5474747474748" y="915.5306666666667"/>
      <point x="355.20670707070707" y="915.5306666666667" type="curve" smooth="yes"/>
      <point x="259.3240404040404" y="915.5306666666667"/>
      <point x="186.07264646464645" y="884.6144646464646"/>
      <point x="128.5251717171717" y="819.0278787878788" type="curve"/>
      <point x="128.5251717171717" y="606.9721212121212" type="line"/>
      <point x="197.69834343434343" y="682.2235151515151"/>
      <point x="266.5754343434343" y="716.0559191919192"/>
      <point x="353.9553131313131" y="716.0559191919192" type="curve" smooth="yes"/>
      <point x="473.12848484848485" y="716.0559191919192"/>
      <point x="586.7150707070707" y="598.9721212121212"/>
    </contour>
  </outline>
</glyph>
<glyph name="exclamdown" format="2">
  <advance width="561.9663838383839"/>
  <unicode hex="00A1"/>
  <outline>
    <contour>
      <point x="201.70949494949494" y="643.6984242424243" type="line"/>
      <point x="142.02238383838383" y="136.35199999999998" type="line"/>
      <point x="142.02238383838383" y="-380.0" type="line"/>
      <point x="419.944" y="-380.0" type="line"/>
      <point x="419.944" y="136.35199999999998" type="line"/>
      <point x="362.9663838383839" y="643.6984242424243" type="line"/>
    </contour>
    <contour>
      <point x="280.98319191919194" y="1106.2569696969697" type="curve" smooth="yes"/>
      <point x="176.1620202020202" y="1106.2569696969697"/>
      <point x="107.35199999999999" y="1043.7821414141415"/>
      <point x="107.35199999999999" y="942.9218585858586" type="curve" smooth="yes"/>
      <point x="107.35199999999999" y="842.0615757575757"/>
      <point x="173.99442424242423" y="778.6705454545454"/>
      <point x="280.98319191919194" y="778.6705454545454" type="curve" smooth="yes"/>
      <point x="387.97195959595956" y="778.6705454545454"/>
      <point x="454.6143838383839" y="844.2291717171717"/>
      <point x="454.6143838383839" y="942.9218585858586" type="curve" smooth="yes"/>
      <point x="454.6143838383839" y="1041.6145454545454"/>
      <point x="385.80436363636363" y="1106.2569696969697"/>
    </contour>
  </outline>
</glyph>
<glyph name="cent" format="2">
  <advance width="935.5865050505051"/>
  <unicode hex="00A2"/>
  <outline>
    <contour>
      <point x="614.4077575757576" y="-20.16759595959596" type="curve" smooth="yes"/>
      <point x="709.8714343434344" y="-20.16759595959596"/>
      <point x="804.6256161616161" y="-5.16759595959596"/>
      <point x="886.7485252525253" y="22.49721212121212" type="curve"/>
      <point x="886.7485252525253" y="232.47474747474752" type="line"/>
      <point x="793.0837171717171" y="205.06133333333335"/>
      <point x="723.379797979798" y="193.2289292929293"/>
      <point x="654.463595959596" y="193.2289292929293" type="curve" smooth="yes"/>
      <point x="452.77082828282835" y="193.2289292929293"/>
      <point x="347.9886868686869" y="289.17309090909094"/>
      <point x="347.9886868686869" y="547.2513939393939" type="curve" smooth="yes"/>
      <point x="347.9886868686869" y="797.704"/>
      <point x="452.3518383838384" y="894.5252525252524"/>
      <point x="682.8770101010101" y="894.5252525252524" type="curve" smooth="yes"/>
      <point x="750.3351111111111" y="894.5252525252524"/>
      <point x="815.4580202020202" y="886.6928484848485"/>
      <point x="886.7485252525253" y="871.6537373737374" type="curve"/>
      <point x="886.7485252525253" y="1081.6312727272727" type="line"/>
      <point x="812.4133333333334" y="1099.4636767676768"/>
      <point x="734.8267474747474" y="1107.9217777777778"/>
      <point x="650.6535757575757" y="1107.9217777777778" type="curve" smooth="yes"/>
      <point x="284.29608080808083" y="1107.9217777777778"/>
      <point x="78.19555555555556" y="933.122909090909"/>
      <point x="78.19555555555556" y="543.7932929292929" type="curve" smooth="yes"/>
      <point x="78.19555555555556" y="157.7988686868687"/>
      <point x="268.9608888888889" y="-20.16759595959596"/>
    </contour>
    <contour>
      <point x="478.3631515151515" y="-240.0" type="line"/>
      <point x="702.7652525252525" y="-240.0" type="line"/>
      <point x="702.7652525252525" y="32.5139393939394" type="line"/>
      <point x="478.3631515151515" y="32.5139393939394" type="line"/>
    </contour>
    <contour>
      <point x="478.3631515151515" y="1058.3240404040405" type="line"/>
      <point x="702.7652525252525" y="1058.3240404040405" type="line"/>
      <point x="702.7652525252525" y="1330.8379797979799" type="line"/>
      <point x="478.3631515151515" y="1330.8379797979799" type="line"/>
    </contour>
  </outline>
</glyph>
<glyph name="sterling" format="2">
  <advance width="1315.7485252525253"/>
  <unicode hex="00A3"/>
  <outline>
    <contour>
      <point x="279.31846464646463" y="81.85470707070708" type="line"/>
      <point x="538.0669090909091" y="81.85470707070708" type="line"/>
      <point x="538.0669090909091" y="1026.9832727272728" type="line" smooth="yes"/>
      <point x="538.0669090909091" y="1210.1565252525252"/>
      <point x="638.6311919191919" y="1281.8939797979797"/>
      <point x="889.9161212121212" y="1281.8939797979797" type="curve" smooth="yes"/>
      <point x="993.9161212121212" y="1281.8939797979797"/>
      <point x="1111.173090909091" y="1266.8101818181817"/>
      <point x="1208.0446060606062" y="1238.6872727272728" type="curve"/>
      <point x="1208.0446060606062" y="1457.8770909090908" type="line"/>
      <point x="1114.87701010101" y="1483.541898989899"/>
      <point x="994.2904242424243" y="1499.083797979798"/>
      <point x="874.4915555555556" y="1499.083797979798" type="curve" smooth="yes"/>
      <point x="477.4972121212121" y="1499.083797979798"/>
      <point x="279.31846464646463" y="1335.4469494949494"/>
      <point x="279.31846464646463" y="1017.2290909090909" type="curve" smooth="yes"/>
    </contour>
    <contour>
      <point x="74.5810101010101" y="0.0" type="line"/>
      <point x="1250.921696969697" y="0.0" type="line"/>
      <point x="1250.921696969697" y="214.64791919191921" type="line"/>
      <point x="74.5810101010101" y="214.64791919191921" type="line"/>
    </contour>
    <contour>
      <point x="74.5810101010101" y="651.3464242424243" type="line"/>
      <point x="1021.7876363636364" y="651.3464242424243" type="line"/>
      <point x="1021.7876363636364" y="848.6535757575757" type="line"/>
      <point x="74.5810101010101" y="848.6535757575757" type="line"/>
    </contour>
  </outline>
</glyph>
<glyph name="yen" format="2">
  <advance width="1268.5865050505051"/>
  <unicode hex="00A5"/>
  <outline>
    <contour>
      <point x="502.4804848484848" y="0.0" type="line"/>
      <point x="768.8155151515152" y="0.0" type="line"/>
      <point x="768.8155151515152" y="742.7653333333334" type="line"/>
      <point x="713.9663838383839" y="549.5810909090909" type="line"/>
      <point x="1292.8099393939394" y="1480.0" type="line"/>
      <point x="1027.4804848484848" y="1480.0" type="line"/>
      <point x="602.3072323232324" y="801.8267474747474" type="line"/>
      <point x="680.7429494949495" y="801.8267474747474" type="line"/>
      <point x="253.86020202020205" y="1480.0" type="line"/>
      <point x="-31.268121212121223" y="1480.0" type="line"/>
      <point x="557.3296161616162" y="549.5810909090909" type="line"/>
      <point x="502.4804848484848" y="746.0167272727273" type="line"/>
    </contour>
    <contour>
      <point x="187.89947474747476" y="275.0223838383838" type="line"/>
      <point x="1083.3965252525252" y="275.0223838383838" type="line"/>
      <point x="1083.3965252525252" y="435.48040404040404" type="line"/>
      <point x="187.89947474747476" y="435.48040404040404" type="line"/>
    </contour>
    <contour>
      <point x="187.89947474747476" y="612.5195959595959" type="line"/>
      <point x="1083.3965252525252" y="612.5195959595959" type="line"/>
      <point x="1083.3965252525252" y="772.9776161616162" type="line"/>
      <point x="187.89947474747476" y="772.9776161616162" type="line"/>
    </contour>
  </outline>
</glyph>
<glyph name="brokenbar" format="2">
  <advance width="529.2848484848485"/>
  <unicode hex="00A6"/>
  <outline>
    <contour>
      <point x="146.10618181818182" y="836.0" type="line"/>
      <point x="383.1786666666667" y="836.0" type="line"/>
      <point x="383.1786666666667" y="1616.0" type="line"/>
      <point x="146.10618181818182" y="1616.0" type="line"/>
    </contour>
    <contour>
      <point x="146.10618181818182" y="-440.0" type="line"/>
      <point x="383.1786666666667" y="-440.0" type="line"/>
      <point x="383.1786666666667" y="340.0" type="line"/>
      <point x="146.10618181818182" y="340.0" type="line"/>
    </contour>
  </outline>
</glyph>
<glyph name="section" format="2">
  <advance width="1074.882585858586"/>
  <unicode hex="00A7"/>
  <outline>
    <contour>
      <point x="459.39103030303033" y="-20.16759595959596" type="curve" smooth="yes"/>
      <point x="772.8323232323232" y="-20.16759595959596"/>
      <point x="933.3462626262626" y="109.00557575757576"/>
      <point x="933.3462626262626" y="315.22343434343435" type="curve" smooth="yes"/>
      <point x="933.3462626262626" y="471.5195151515152"/>
      <point x="841.128404040404" y="557.7262222222222"/>
      <point x="652.7596767676768" y="597.7653333333334" type="curve" smooth="yes"/>
      <point x="457.10610101010104" y="636.6033131313131" type="line" smooth="yes"/>
      <point x="354.0837171717172" y="658.7653333333334"/>
      <point x="318.5920808080808" y="707.2960808080808"/>
      <point x="318.5920808080808" y="778.3631515151515" type="curve" smooth="yes"/>
      <point x="318.5920808080808" y="831.2290909090909"/>
      <point x="342.29600000000005" y="876.8045252525252"/>
      <point x="395.4971313131313" y="921.5978181818182" type="curve"/>
      <point x="255.08379797979796" y="1017.1620202020202" type="line"/>
      <point x="159.65923232323232" y="959.2849292929293"/>
      <point x="101.4860606060606" y="874.9497373737373"/>
      <point x="101.4860606060606" y="764.5251717171717" type="curve" smooth="yes"/>
      <point x="101.4860606060606" y="595.5978181818182"/>
      <point x="197.95531313131312" y="501.13971717171717"/>
      <point x="375.15644444444445" y="463.64250505050506" type="curve" smooth="yes"/>
      <point x="570.2681212121213" y="424.80452525252525" type="line" smooth="yes"/>
      <point x="658.6592323232323" y="405.89389898989896"/>
      <point x="694.3575757575758" y="371.3631515151515"/>
      <point x="694.3575757575758" y="300.01115151515154" type="curve" smooth="yes"/>
      <point x="694.3575757575758" y="216.7038383838384"/>
      <point x="633.664808080808" y="165.05018181818184"/>
      <point x="457.5139393939394" y="165.05018181818184" type="curve" smooth="yes"/>
      <point x="352.7988686868687" y="165.05018181818184"/>
      <point x="249.49721212121213" y="177.67587878787882"/>
      <point x="141.87151515151515" y="207.50828282828286" type="curve"/>
      <point x="141.87151515151515" y="21.37430303030303" type="line"/>
      <point x="241.4189898989899" y="-6.625696969696969"/>
      <point x="354.4301414141414" y="-20.16759595959596"/>
    </contour>
    <contour>
      <point x="812.2513131313132" y="456.79329292929293" type="line"/>
      <point x="910.8043636363636" y="515.2960808080808"/>
      <point x="973.3965252525253" y="600.4245656565656"/>
      <point x="973.3965252525253" y="717.9329292929293" type="curve" smooth="yes"/>
      <point x="973.3965252525253" y="888.8602828282828"/>
      <point x="881.1786666666667" y="979.2345858585859"/>
      <point x="697.6870303030303" y="1017.106101010101" type="curve" smooth="yes"/>
      <point x="497.15636363636366" y="1054.8602828282828" type="line" smooth="yes"/>
      <point x="408.76525252525255" y="1073.770909090909"/>
      <point x="375.1060202020202" y="1112.7150707070707"/>
      <point x="375.1060202020202" y="1175.6536565656565" type="curve" smooth="yes"/>
      <point x="375.1060202020202" y="1249.0056565656566"/>
      <point x="434.38537373737375" y="1311.86602020202"/>
      <point x="646.0892929292929" y="1311.86602020202" type="curve" smooth="yes"/>
      <point x="730.3406868686868" y="1311.86602020202"/>
      <point x="807.2624646464647" y="1303.86602020202"/>
      <point x="894.0948686868687" y="1283.1174141414142" type="curve"/>
      <point x="894.0948686868687" y="1469.251393939394" type="line"/>
      <point x="814.3015757575757" y="1487.083797979798"/>
      <point x="721.8770101010101" y="1497.083797979798"/>
      <point x="628.2066262626263" y="1497.083797979798" type="curve" smooth="yes"/>
      <point x="284.6703838383838" y="1497.083797979798"/>
      <point x="136.11733333333333" y="1360.245818181818"/>
      <point x="136.11733333333333" y="1161.8156767676767" type="curve" smooth="yes"/>
      <point x="136.11733333333333" y="1012.9385858585858"/>
      <point x="231.50278787878787" y="921.0223838383838"/>
      <point x="420.08379797979796" y="881.8994747474748" type="curve" smooth="yes"/>
      <point x="615.1954747474747" y="843.061494949495" type="line" smooth="yes"/>
      <point x="718.2178585858586" y="820.8994747474748"/>
      <point x="756.2905050505051" y="776.7821414141414"/>
      <point x="756.2905050505051" y="700.0111515151515" type="curve" smooth="yes"/>
      <point x="756.2905050505051" y="642.854707070707"/>
      <point x="730.4189898989899" y="600.8211717171718"/>
      <point x="666.0446868686869" y="555.2345858585859" type="curve"/>
    </contour>
  </outline>
</glyph>
<glyph name="copyright" format="2">
  <advance width="1677.3966868686869"/>
  <unicode hex="00A9"/>
  <outline>
    <contour>
      <point x="838.6983434343434" y="-22.0" type="curve" smooth="yes"/>
      <point x="1287.9497373737374" y="-22.0"/>
      <point x="1585.9497373737374" y="282.0"/>
      <point x="1585.9497373737374" y="740.0" type="curve" smooth="yes"/>
      <point x="1585.9497373737374" y="1198.0"/>
      <point x="1287.9497373737374" y="1502.0"/>
      <point x="838.6983434343434" y="1502.0" type="curve" smooth="yes"/>
      <point x="389.4469494949495" y="1502.0"/>
      <point x="91.4469494949495" y="1198.0"/>
      <point x="91.4469494949495" y="740.0" type="curve" smooth="yes"/>
      <point x="91.4469494949495" y="282.0"/>
      <point x="389.4469494949495" y="-22.0"/>
    </contour>
    <contour>
      <point x="892.2067070707071" y="324.0" type="curve" smooth="yes"/>
      <point x="972.374303030303" y="324.0"/>
      <point x="1044.374303030303" y="336.0"/>
      <point x="1102.6201212121211" y="359.4972121212121" type="curve"/>
      <point x="1102.6201212121211" y="525.2066262626263" type="line"/>
      <point x="1022.7877171717172" y="500.79321212121215"/>
      <point x="967.0446868686869" y="492.9608080808081"/>
      <point x="910.1284848484848" y="492.9608080808081" type="curve" smooth="yes"/>
      <point x="759.648" y="492.9608080808081"/>
      <point x="670.1619393939394" y="572.6144646464646"/>
      <point x="670.1619393939394" y="734.7486060606061" type="curve" smooth="yes"/>
      <point x="670.1619393939394" y="895.2179393939393"/>
      <point x="756.396606060606" y="975.0391919191919"/>
      <point x="926.7094949494949" y="975.0391919191919" type="curve" smooth="yes"/>
      <point x="989.122909090909" y="975.0391919191919"/>
      <point x="1041.703919191919" y="967.2067878787878"/>
      <point x="1102.6201212121211" y="953.5419797979798" type="curve"/>
      <point x="1102.6201212121211" y="1119.251393939394" type="line"/>
      <point x="1042.9553131313132" y="1136.0"/>
      <point x="981.8715151515152" y="1144.0"/>
      <point x="910.6201212121213" y="1144.0" type="curve" smooth="yes"/>
      <point x="637.9497373737373" y="1144.0"/>
      <point x="474.60896969696967" y="993.8324040404041"/>
      <point x="474.60896969696967" y="732.916202020202" type="curve" smooth="yes"/>
      <point x="474.60896969696967" y="468.5027878787879"/>
      <point x="639.4469494949495" y="324.0"/>
    </contour>
    <contour>
      <point x="838.6983434343434" y="124.03345454545456" type="curve" smooth="yes"/>
      <point x="469.5474747474748" y="124.03345454545456"/>
      <point x="242.89939393939395" y="364.26812121212123"/>
      <point x="242.89939393939395" y="740.0" type="curve" smooth="yes"/>
      <point x="242.89939393939395" y="1115.7318787878787"/>
      <point x="469.5474747474748" y="1355.9665454545454"/>
      <point x="838.6983434343434" y="1355.9665454545454" type="curve" smooth="yes"/>
      <point x="1207.849212121212" y="1355.9665454545454"/>
      <point x="1434.4972929292928" y="1115.7318787878787"/>
      <point x="1434.4972929292928" y="740.0" type="curve" smooth="yes"/>
      <point x="1434.4972929292928" y="364.26812121212123"/>
      <point x="1207.849212121212" y="124.03345454545456"/>
    </contour>
  </outline>
</glyph>
<glyph name="ordfeminine" format="2">
  <advance width="911.4524444444445"/>
  <unicode hex="00AA"/>
  <outline>
    <contour>
      <point x="339.53632323232324" y="593.8324040404041" type="curve" smooth="yes"/>
      <point x="439.6983434343434" y="593.8324040404041"/>
      <point x="532.4022626262627" y="628.6201212121213"/>
      <point x="587.7318787878788" y="700.6201212121213" type="curve"/>
      <point x="599.6927676767676" y="700.6201212121213" type="line"/>
      <point x="617.6145454545455" y="610.0" type="line"/>
      <point x="819.3853737373738" y="610.0" type="line"/>
      <point x="819.3853737373738" y="1135.8045252525253" type="line" smooth="yes"/>
      <point x="819.3853737373738" y="1405.7430303030303"/>
      <point x="690.0446060606062" y="1497.4189898989898"/>
      <point x="409.0111515151515" y="1497.4189898989898" type="curve" smooth="yes"/>
      <point x="316.63127272727274" y="1497.4189898989898"/>
      <point x="207.91620202020204" y="1484.5027878787878"/>
      <point x="118.57543434343434" y="1458.5865858585857" type="curve"/>
      <point x="118.57543434343434" y="1278.078303030303" type="line"/>
      <point x="200.61454545454546" y="1302.6593131313132"/>
      <point x="290.4078383838384" y="1315.1174141414142"/>
      <point x="364.8268282828283" y="1315.1174141414142" type="curve" smooth="yes"/>
      <point x="522.4078383838383" y="1315.1174141414142"/>
      <point x="578.184404040404" y="1275.787797979798"/>
      <point x="578.184404040404" y="1164.8994747474746" type="curve" smooth="yes"/>
      <point x="578.184404040404" y="822.5139393939394" type="line"/>
      <point x="534.1564444444444" y="777.7429494949495"/>
      <point x="476.0502626262626" y="759.3351111111111"/>
      <point x="424.02787878787876" y="759.3351111111111" type="curve" smooth="yes"/>
      <point x="334.7149898989899" y="759.3351111111111"/>
      <point x="288.9328484848485" y="799.1172525252525"/>
      <point x="288.9328484848485" y="873.1005252525252" type="curve" smooth="yes"/>
      <point x="288.9328484848485" y="942.7094949494949"/>
      <point x="333.54739393939394" y="981.1173333333334"/>
      <point x="442.93850505050506" y="990.4469494949495" type="curve" smooth="yes"/>
      <point x="649.8659393939394" y="1006.3575757575758" type="line"/>
      <point x="621.9385858585858" y="1130.9273535353536" type="line"/>
      <point x="409.4245656565657" y="1113.9329292929292" type="line" smooth="yes"/>
      <point x="154.78214141414142" y="1097.4357171717172"/>
      <point x="49.69276767676767" y="1008.9329292929293"/>
      <point x="49.69276767676767" y="844.3407676767677" type="curve" smooth="yes"/>
      <point x="49.69276767676767" y="695.4636767676768"/>
      <point x="153.77656565656565" y="593.8324040404041"/>
    </contour>
  </outline>
</glyph>
<glyph name="logicalnot" format="2">
  <advance width="1332.916202020202"/>
  <unicode hex="00AC"/>
  <outline>
    <contour>
      <point x="999.994505050505" y="196.3351919191919" type="line"/>
      <point x="1212.1396363636363" y="196.3351919191919" type="line"/>
      <point x="1212.1396363636363" y="861.3630707070707" type="line"/>
      <point x="128.5251717171717" y="861.3630707070707" type="line"/>
      <point x="128.5251717171717" y="658.6369292929293" type="line"/>
      <point x="999.994505050505" y="658.6369292929293" type="line"/>
    </contour>
  </outline>
</glyph>
<glyph name="registered" format="2">
  <advance width="1460.8827474747475"/>
  <unicode hex="00AE"/>
  <outline>
    <contour>
      <point x="730.4413737373737" y="268.0" type="curve" smooth="yes"/>
      <point x="1092.4413737373736" y="268.0"/>
      <point x="1340.4413737373736" y="518.0"/>
      <point x="1340.4413737373736" y="882.0" type="curve" smooth="yes"/>
      <point x="1340.4413737373736" y="1246.0"/>
      <point x="1092.4413737373736" y="1498.0"/>
      <point x="730.4413737373737" y="1498.0" type="curve" smooth="yes"/>
      <point x="368.44137373737374" y="1498.0"/>
      <point x="120.44137373737374" y="1246.0"/>
      <point x="120.44137373737374" y="882.0" type="curve" smooth="yes"/>
      <point x="120.44137373737374" y="518.0"/>
      <point x="368.44137373737374" y="268.0"/>
    </contour>
    <contour>
      <point x="869.4246464646465" y="600.0" type="line"/>
      <point x="1002.8659393939394" y="600.0" type="line"/>
      <point x="839.8715151515152" y="838.3240404040404" type="line"/>
      <point x="723.5140202020202" y="812.3240404040404" type="line"/>
    </contour>
    <contour>
      <point x="730.4413737373737" y="382.7709090909091" type="curve" smooth="yes"/>
      <point x="434.9553131313131" y="382.7709090909091"/>
      <point x="242.63127272727274" y="579.2625454545455"/>
      <point x="242.63127272727274" y="882.0" type="curve" smooth="yes"/>
      <point x="242.63127272727274" y="1185.8212525252525"/>
      <point x="434.9553131313131" y="1383.229090909091"/>
      <point x="730.4413737373737" y="1383.229090909091" type="curve" smooth="yes"/>
      <point x="1025.9274343434342" y="1383.229090909091"/>
      <point x="1218.2514747474747" y="1185.8212525252525"/>
      <point x="1218.2514747474747" y="882.0" type="curve" smooth="yes"/>
      <point x="1218.2514747474747" y="579.2625454545455"/>
      <point x="1025.9274343434342" y="382.7709090909091"/>
    </contour>
    <contour>
      <point x="514.8547878787879" y="600.0" type="line"/>
      <point x="635.0446868686869" y="600.0" type="line"/>
      <point x="638.2960808080808" y="804.3240404040404" type="line"/>
      <point x="719.6927676767676" y="804.3240404040404" type="line" smooth="yes"/>
      <point x="891.4469494949495" y="804.3240404040404"/>
      <point x="974.5307474747475" y="869.2402424242424"/>
      <point x="974.5307474747475" y="997.1620202020202" type="curve" smooth="yes"/>
      <point x="974.5307474747475" y="1125.083797979798"/>
      <point x="889.4469494949495" y="1192.0"/>
      <point x="719.6927676767676" y="1192.0" type="curve" smooth="yes"/>
      <point x="514.8547878787879" y="1192.0" type="line"/>
    </contour>
    <contour>
      <point x="638.2960808080808" y="904.2569696969697" type="line"/>
      <point x="638.2960808080808" y="1092.0670707070708" type="line"/>
      <point x="739.2793535353535" y="1092.0670707070708" type="line" smooth="yes"/>
      <point x="816.5978181818182" y="1092.0670707070708"/>
      <point x="856.5084444444444" y="1060.7374545454545"/>
      <point x="856.5084444444444" y="997.1620202020202" type="curve" smooth="yes"/>
      <point x="856.5084444444444" y="933.5865858585859"/>
      <point x="818.5978181818182" y="904.2569696969697"/>
      <point x="739.2793535353535" y="904.2569696969697" type="curve" smooth="yes"/>
    </contour>
  </outline>
</glyph>
<glyph name="degree" format="2">
  <advance width="974.2458181818182"/>
  <unicode hex="00B0"/>
  <outline>
    <contour>
      <point x="487.1229090909091" y="772.3911111111111" type="curve" smooth="yes"/>
      <point x="699.5474747474748" y="772.3911111111111"/>
      <point x="853.8044444444445" y="925.3966868686869"/>
      <point x="853.8044444444445" y="1135.8212525252525" type="curve" smooth="yes"/>
      <point x="853.8044444444445" y="1346.245818181818"/>
      <point x="699.5474747474748" y="1498.167595959596"/>
      <point x="487.1229090909091" y="1498.167595959596" type="curve" smooth="yes"/>
      <point x="274.6983434343434" y="1498.167595959596"/>
      <point x="120.44137373737374" y="1346.245818181818"/>
      <point x="120.44137373737374" y="1135.8212525252525" type="curve" smooth="yes"/>
      <point x="120.44137373737374" y="925.3966868686869"/>
      <point x="274.6983434343434" y="772.3911111111111"/>
    </contour>
    <contour>
      <point x="487.1229090909091" y="930.1396363636363" type="curve" smooth="yes"/>
      <point x="372.22343434343435" y="930.1396363636363"/>
      <point x="288.2345858585859" y="1009.2122828282828"/>
      <point x="288.2345858585859" y="1135.8212525252525" type="curve" smooth="yes"/>
      <point x="288.2345858585859" y="1262.9721212121212"/>
      <point x="373.3072323232323" y="1340.4190707070707"/>
      <point x="487.1229090909091" y="1340.4190707070707" type="curve" smooth="yes"/>
      <point x="600.9385858585858" y="1340.4190707070707"/>
      <point x="686.0112323232323" y="1262.9721212121212"/>
      <point x="686.0112323232323" y="1135.8212525252525" type="curve" smooth="yes"/>
      <point x="686.0112323232323" y="1009.2122828282828"/>
      <point x="602.0223838383838" y="930.1396363636363"/>
    </contour>
  </outline>
</glyph>
<glyph name="plusminus" format="2">
  <advance width="1091.2625454545455"/>
  <unicode hex="00B1"/>
  <outline>
    <contour>
      <point x="439.55870707070704" y="360.43571717171716" type="line"/>
      <point x="651.7038383838384" y="360.43571717171716" type="line"/>
      <point x="651.7038383838384" y="670.335191919192" type="line"/>
      <point x="962.7373737373738" y="670.335191919192" type="line"/>
      <point x="962.7373737373738" y="873.0613333333333" type="line"/>
      <point x="651.7038383838384" y="873.0613333333333" type="line"/>
      <point x="651.7038383838384" y="1182.9608080808082" type="line"/>
      <point x="439.55870707070704" y="1182.9608080808082" type="line"/>
      <point x="439.55870707070704" y="873.0613333333333" type="line"/>
      <point x="128.5251717171717" y="873.0613333333333" type="line"/>
      <point x="128.5251717171717" y="670.335191919192" type="line"/>
      <point x="439.55870707070704" y="670.335191919192" type="line"/>
    </contour>
    <contour>
      <point x="128.5251717171717" y="0.54189898989899" type="line"/>
      <point x="962.7373737373738" y="0.54189898989899" type="line"/>
      <point x="962.7373737373738" y="203.26804040404042" type="line"/>
      <point x="128.5251717171717" y="203.26804040404042" type="line"/>
    </contour>
  </outline>
</glyph>
<glyph name="paragraph" format="2">
  <advance width="1286.4189090909092"/>
  <unicode hex="00B6"/>
  <outline>
    <contour>
      <point x="630.4581818181817" y="0.0" type="line"/>
      <point x="820.3854545454545" y="0.0" type="line"/>
      <point x="820.3854545454545" y="1480.0" type="line"/>
      <point x="737.0502626262627" y="1490.709494949495"/>
      <point x="639.5474747474748" y="1497.251393939394"/>
      <point x="542.4636767676768" y="1497.251393939394" type="curve" smooth="yes"/>
      <point x="228.86593939393939" y="1497.251393939394"/>
      <point x="78.94973737373738" y="1335.9553131313132"/>
      <point x="78.94973737373738" y="973.4022626262627" type="curve" smooth="yes"/>
      <point x="78.94973737373738" y="630.3073131313131"/>
      <point x="223.2011313131313" y="449.17882828282825"/>
      <point x="521.9385858585858" y="449.17882828282825" type="curve" smooth="yes"/>
      <point x="561.9721212121212" y="449.17882828282825"/>
      <point x="593.7989494949495" y="451.0950303030303"/>
      <point x="630.4581818181817" y="454.30173737373735" type="curve"/>
    </contour>
    <contour>
      <point x="950.3854545454545" y="0.0" type="line"/>
      <point x="1140.3127272727272" y="0.0" type="line"/>
      <point x="1140.3127272727272" y="1480.0" type="line"/>
      <point x="950.3854545454545" y="1480.0" type="line"/>
    </contour>
  </outline>
</glyph>
<glyph name="ordmasculine" format="2">
  <advance width="985.2848484848485"/>
  <unicode hex="00BA"/>
  <outline>
    <contour>
      <point x="492.6424242424242" y="593.8324040404041" type="curve" smooth="yes"/>
      <point x="765.2513131313132" y="593.8324040404041"/>
      <point x="929.0501818181818" y="750.2178585858586"/>
      <point x="929.0501818181818" y="1046.541898989899" type="curve" smooth="yes"/>
      <point x="929.0501818181818" y="1342.8659393939395"/>
      <point x="765.2513131313132" y="1497.4189898989898"/>
      <point x="492.6424242424242" y="1497.4189898989898" type="curve" smooth="yes"/>
      <point x="220.03353535353534" y="1497.4189898989898"/>
      <point x="56.23466666666666" y="1345.5754343434344"/>
      <point x="56.23466666666666" y="1046.541898989899" type="curve" smooth="yes"/>
      <point x="56.23466666666666" y="747.5083636363636"/>
      <point x="220.03353535353534" y="593.8324040404041"/>
    </contour>
    <contour>
      <point x="492.6424242424242" y="776.5920808080808" type="curve" smooth="yes"/>
      <point x="376.33511111111113" y="776.5920808080808"/>
      <point x="299.80993939393943" y="841.9943434343435"/>
      <point x="299.80993939393943" y="1046.541898989899" type="curve" smooth="yes"/>
      <point x="299.80993939393943" y="1251.6313535353536"/>
      <point x="376.33511111111113" y="1314.6593131313132"/>
      <point x="492.6424242424242" y="1314.6593131313132" type="curve" smooth="yes"/>
      <point x="610.0335353535354" y="1314.6593131313132"/>
      <point x="685.474909090909" y="1251.6313535353536"/>
      <point x="685.474909090909" y="1046.541898989899" type="curve" smooth="yes"/>
      <point x="685.474909090909" y="841.9943434343435"/>
      <point x="610.0335353535354" y="776.5920808080808"/>
    </contour>
  </outline>
</glyph>
<glyph name="questiondown" format="2">
  <advance width="959.7541010101011"/>
  <unicode hex="00BF"/>
  <outline>
    <contour>
      <point x="610.5920808080808" y="665.1174141414141" type="line"/>
      <point x="449.3351919191919" y="665.1174141414141" type="line"/>
      <point x="429.0391111111111" y="411.2569696969697" type="line"/>
      <point x="176.2178585858586" y="326.60331313131314"/>
      <point x="53.70391919191919" y="196.72622222222222"/>
      <point x="53.70391919191919" y="-12.86036363636363" type="curve" smooth="yes"/>
      <point x="53.70391919191919" y="-258.3296161616162"/>
      <point x="228.3798787878788" y="-400.0"/>
      <point x="568.0334545454546" y="-400.0" type="curve" smooth="yes"/>
      <point x="690.7876363636364" y="-400.0"/>
      <point x="830.2568888888889" y="-378.832404040404"/>
      <point x="925.5082828282829" y="-345.458101010101" type="curve"/>
      <point x="925.5082828282829" y="-137.1062626262626" type="line"/>
      <point x="823.8434747474748" y="-173.39676767676764"/>
      <point x="706.7541010101011" y="-192.5643636363636"/>
      <point x="596.6703030303031" y="-192.5643636363636" type="curve" smooth="yes"/>
      <point x="400.97753535353536" y="-192.5643636363636"/>
      <point x="309.57527272727276" y="-121.07830303030302"/>
      <point x="309.57527272727276" y="7.731797979797989" type="curve" smooth="yes"/>
      <point x="309.57527272727276" y="133.83240404040404"/>
      <point x="387.9440000000001" y="218.11175757575757"/>
      <point x="655.6479191919192" y="283.34642424242423" type="curve"/>
    </contour>
    <contour>
      <point x="529.6926868686869" y="1106.2569696969697" type="curve" smooth="yes"/>
      <point x="423.9553131313131" y="1106.2569696969697"/>
      <point x="356.06149494949494" y="1042.8659393939395"/>
      <point x="356.06149494949494" y="949.9665454545454" type="curve" smooth="yes"/>
      <point x="356.06149494949494" y="856.1509494949495"/>
      <point x="422.70391919191917" y="792.7599191919192"/>
      <point x="529.6926868686869" y="792.7599191919192" type="curve" smooth="yes"/>
      <point x="636.6814545454546" y="792.7599191919192"/>
      <point x="703.3238787878788" y="853.9833535353536"/>
      <point x="703.3238787878788" y="949.9665454545454" type="curve" smooth="yes"/>
      <point x="703.3238787878788" y="1045.0335353535354"/>
      <point x="634.5138585858585" y="1106.2569696969697"/>
    </contour>
  </outline>
</glyph>
<glyph name="AE" format="2">
  <advance width="1948.4579393939393"/>
  <unicode hex="00C6"/>
  <anchor x="1029.0334545454546" y="0.0" name="bottom"/>
  <anchor x="987.3462626262626" y="1520.0" name="top"/>
  <outline>
    <contour>
      <point x="19.11733333333333" y="0.0" type="line"/>
      <point x="281.78197979797983" y="0.0" type="line"/>
      <point x="702.1452121212121" y="1264.4358787878787" type="line"/>
      <point x="980.5529696969697" y="1264.4358787878787" type="line"/>
      <point x="981.4691717171718" y="1480.0" type="line"/>
      <point x="521.5866666666667" y="1480.0" type="line"/>
    </contour>
    <contour>
      <point x="334.9776161616162" y="425.0391919191919" type="line"/>
      <point x="1004.0781414141414" y="425.0391919191919" type="line"/>
      <point x="1004.0781414141414" y="640.6033131313131" type="line"/>
      <point x="393.4524444444445" y="640.6033131313131" type="line"/>
    </contour>
    <contour>
      <point x="964.0614141414142" y="0.0" type="line"/>
      <point x="1876.9160404040404" y="0.0" type="line"/>
      <point x="1876.9160404040404" y="215.56412121212122" type="line"/>
      <point x="1210.5975757575757" y="215.56412121212122" type="line"/>
      <point x="1130.1841616161616" y="1264.4358787878787" type="line"/>
      <point x="1866.9160404040404" y="1264.4358787878787" type="line"/>
      <point x="1866.9160404040404" y="1480.0" type="line"/>
      <point x="857.0558383838384" y="1480.0" type="line"/>
    </contour>
    <contour>
      <point x="1050.5138585858585" y="649.9665454545454" type="line"/>
      <point x="1766.4970505050505" y="649.9665454545454" type="line"/>
      <point x="1766.4970505050505" y="865.5306666666667" type="line"/>
      <point x="1050.5138585858585" y="865.5306666666667" type="line"/>
    </contour>
  </outline>
</glyph>
<glyph name="multiply" format="2">
  <advance width="1025.854707070707"/>
  <unicode hex="00D7"/>
  <outline>
    <contour>
      <point x="240.69268686868688" y="345.13971717171717" type="line"/>
      <point x="512.9273535353535" y="617.3743838383838" type="line"/>
      <point x="785.1620202020202" y="345.13971717171717" type="line"/>
      <point x="927.7876363636364" y="487.76533333333333" type="line"/>
      <point x="655.5529696969697" y="760.0" type="line"/>
      <point x="927.7876363636364" y="1032.2346666666667" type="line"/>
      <point x="785.1620202020202" y="1174.8602828282828" type="line"/>
      <point x="512.9273535353535" y="902.6256161616162" type="line"/>
      <point x="240.69268686868688" y="1174.8602828282828" type="line"/>
      <point x="98.0670707070707" y="1032.2346666666667" type="line"/>
      <point x="370.30173737373735" y="760.0" type="line"/>
      <point x="98.0670707070707" y="487.76533333333333" type="line"/>
    </contour>
  </outline>
</glyph>
<glyph name="Thorn" format="2">
  <advance width="1296.4189090909092"/>
  <unicode hex="00DE"/>
  <outline>
    <contour>
      <point x="146.10618181818182" y="0.0" type="line"/>
      <point x="412.4412121212122" y="0.0" type="line"/>
      <point x="412.4412121212122" y="242.35757575757575" type="line"/>
      <point x="468.1395555555556" y="238.6927676767677"/>
      <point x="517.8825858585859" y="236.23466666666667"/>
      <point x="576.2904242424243" y="236.23466666666667" type="curve" smooth="yes"/>
      <point x="999.3742222222222" y="236.23466666666667"/>
      <point x="1207.4691717171718" y="416.27935353535355"/>
      <point x="1207.4691717171718" y="760.458101010101" type="curve" smooth="yes"/>
      <point x="1207.4691717171718" y="1123.0111515151516"/>
      <point x="992.7932121212122" y="1284.3072323232323"/>
      <point x="573.3519191919193" y="1284.3072323232323" type="curve" smooth="yes"/>
      <point x="511.2066262626263" y="1284.3072323232323"/>
      <point x="455.3462626262626" y="1278.6424242424243"/>
      <point x="412.4412121212122" y="1273.1452121212121" type="curve"/>
      <point x="412.4412121212122" y="1480.458101010101" type="line"/>
      <point x="146.10618181818182" y="1480.458101010101" type="line"/>
    </contour>
    <contour>
      <point x="577.6647272727273" y="439.8770101010101" type="curve" smooth="yes"/>
      <point x="515.798787878788" y="439.8770101010101"/>
      <point x="466.47474747474746" y="442.79321212121215"/>
      <point x="412.4412121212122" y="449.5418181818182" type="curve"/>
      <point x="412.4412121212122" y="1066.2514747474747" type="line"/>
      <point x="467.80436363636363" y="1075.9162828282829"/>
      <point x="522.8323232323232" y="1080.664888888889"/>
      <point x="592.3183838383839" y="1080.664888888889" type="curve" smooth="yes"/>
      <point x="832.8659393939394" y="1080.664888888889"/>
      <point x="947.4302222222223" y="984.0950303030303"/>
      <point x="947.4302222222223" y="758.0" type="curve" smooth="yes"/>
      <point x="947.4302222222223" y="536.525090909091"/>
      <point x="834.6983434343434" y="439.8770101010101"/>
    </contour>
  </outline>
</glyph>
<glyph name="germandbls" format="2">
  <advance width="1503.675797979798"/>
  <unicode hex="00DF"/>
  <outline>
    <contour>
      <point x="969.0613333333333" y="-20.16759595959596" type="curve" smooth="yes"/>
      <point x="1281.5864242424243" y="-20.16759595959596"/>
      <point x="1447.5193535353535" y="109.00557575757576"/>
      <point x="1447.5193535353535" y="319.55862626262626" type="curve" smooth="yes"/>
      <point x="1447.5193535353535" y="500.24016161616163"/>
      <point x="1354.592" y="587.9887676767677"/>
      <point x="1157.1785858585858" y="627.4021818181818" type="curve" smooth="yes"/>
      <point x="990.7875555555556" y="658.6535757575757" type="line" smooth="yes"/>
      <point x="901.6869494949495" y="677.5642020202021"/>
      <point x="869.8210101010102" y="715.9664646464646"/>
      <point x="869.8210101010102" y="777.2793535353535" type="curve" smooth="yes"/>
      <point x="869.8210101010102" y="851.7151515151515"/>
      <point x="925.8489696969698" y="913.4917171717171"/>
      <point x="1128.8825050505052" y="913.4917171717171" type="curve" smooth="yes"/>
      <point x="1190.9216161616162" y="913.4917171717171"/>
      <point x="1238.592" y="909.2012121212122"/>
      <point x="1282.01098989899" y="902.8269090909091" type="curve"/>
      <point x="1299.4299797979797" y="970.5028686868686"/>
      <point x="1313.5975757575757" y="1051.8771717171717"/>
      <point x="1313.5975757575757" y="1132.5922424242424" type="curve" smooth="yes"/>
      <point x="1313.5975757575757" y="1485.3631515151515"/>
      <point x="1098.2065454545454" y="1636.0"/>
      <point x="796.4691717171718" y="1636.0" type="curve" smooth="yes"/>
      <point x="427.17874747474747" y="1636.0"/>
      <point x="210.07264646464645" y="1433.519595959596"/>
      <point x="210.07264646464645" y="1065.2961616161615" type="curve" smooth="yes"/>
      <point x="210.07264646464645" y="0.0" type="line"/>
      <point x="471.53058585858594" y="0.0" type="line"/>
      <point x="471.53058585858594" y="1066.3408484848485" type="line" smooth="yes"/>
      <point x="471.53058585858594" y="1334.6984242424242"/>
      <point x="588.8546262626263" y="1450.7822222222221"/>
      <point x="814.8937373737374" y="1450.7822222222221" type="curve" smooth="yes"/>
      <point x="995.0948686868687" y="1450.7822222222221"/>
      <point x="1123.8770101010102" y="1370.078303030303"/>
      <point x="1123.4189090909092" y="1150.726303030303" type="curve" smooth="yes"/>
      <point x="1123.4189090909092" y="1092.1788282828284"/>
      <point x="1114.709414141414" y="1033.2179393939393"/>
      <point x="1100.3742222222222" y="977.9218585858586" type="curve"/>
      <point x="1246.2959191919192" y="1092.670383838384" type="line"/>
      <point x="1203.9216161616162" y="1098.0446868686868"/>
      <point x="1134.2847676767678" y="1100.5027878787878"/>
      <point x="1094.7428686868689" y="1100.5027878787878" type="curve" smooth="yes"/>
      <point x="781.0110707070708" y="1100.5027878787878"/>
      <point x="624.8714343434344" y="970.625696969697"/>
      <point x="624.8714343434344" y="770.1117575757576" type="curve" smooth="yes"/>
      <point x="624.8714343434344" y="603.726303030303"/>
      <point x="709.4189090909091" y="502.22351515151513"/>
      <point x="912.6311919191919" y="463.100606060606" type="curve" smooth="yes"/>
      <point x="1079.0222222222224" y="431.8492121212121" type="line" smooth="yes"/>
      <point x="1169.0390303030304" y="412.93858585858584"/>
      <point x="1202.5697777777777" y="379.49163636363636"/>
      <point x="1202.5697777777777" y="309.22343434343435" type="curve" smooth="yes"/>
      <point x="1202.5697777777777" y="224.29042424242425"/>
      <point x="1140.251313131313" y="174.26246464646468"/>
      <point x="966.2680404040404" y="174.26246464646468" type="curve" smooth="yes"/>
      <point x="864.8043636363636" y="174.26246464646468"/>
      <point x="751.2066262626263" y="189.13955555555557"/>
      <point x="650.6256161616161" y="216.80436363636366" type="curve"/>
      <point x="650.6256161616161" y="20.91620202020202" type="line"/>
      <point x="750.1730909090909" y="-7.08379797979798"/>
      <point x="864.8099393939394" y="-20.16759595959596"/>
    </contour>
    <contour>
      <point x="22.58658585858586" y="878.5252525252524" type="line"/>
      <point x="314.88824242424243" y="878.5252525252524" type="line"/>
      <point x="314.88824242424243" y="1090.8379797979799" type="line"/>
      <point x="22.58658585858586" y="1090.8379797979799" type="line"/>
    </contour>
  </outline>
</glyph>
<glyph name="ae" format="2">
  <advance width="1697.5753535353535"/>
  <unicode hex="00E6"/>
  <anchor x="842.106101010101" y="0.0" name="bottom"/>
  <anchor x="842.106101010101" y="1200.0" name="top"/>
  <outline>
    <contour>
      <point x="1267.899393939394" y="-20.16759595959596" type="curve" smooth="yes"/>
      <point x="1364.8211717171716" y="-20.16759595959596"/>
      <point x="1462.7429494949495" y="-8.87709090909091"/>
      <point x="1574.4580202020202" y="19.24581818181818" type="curve"/>
      <point x="1574.4580202020202" y="218.92727272727274" type="line"/>
      <point x="1478.335111111111" y="194.5976565656566"/>
      <point x="1385.1228282828283" y="180.76525252525255"/>
      <point x="1302.2457373737375" y="180.76525252525255" type="curve" smooth="yes"/>
      <point x="1056.4971313131314" y="180.76525252525255"/>
      <point x="964.9775353535354" y="264.7038383838384"/>
      <point x="964.9775353535354" y="501.94416161616164" type="curve" smooth="yes"/>
      <point x="964.9775353535354" y="603.648" type="line" smooth="yes"/>
      <point x="964.9775353535354" y="852.4357979797979"/>
      <point x="1043.2904242424243" y="937.2514747474747"/>
      <point x="1178.6815353535353" y="937.2514747474747" type="curve" smooth="yes"/>
      <point x="1313.5307474747474" y="937.2514747474747"/>
      <point x="1387.6369292929294" y="852.810101010101"/>
      <point x="1387.6369292929294" y="600.3574949494949" type="curve"/>
      <point x="1433.061494949495" y="624.2290101010101" type="line"/>
      <point x="915.7596767676768" y="624.2290101010101" type="line"/>
      <point x="915.7596767676768" y="467.1899797979798" type="line"/>
      <point x="1632.5865050505051" y="467.1899797979798" type="line"/>
      <point x="1632.5865050505051" y="539.2905050505051" type="line" smooth="yes"/>
      <point x="1632.5865050505051" y="920.8268282828283"/>
      <point x="1468.1619393939395" y="1108.3798787878789"/>
      <point x="1192.22901010101" y="1108.3798787878789" type="curve" smooth="yes"/>
      <point x="916.0446868686869" y="1108.3798787878789"/>
      <point x="750.7039191919192" y="915.7821414141414"/>
      <point x="750.7039191919192" y="567.2569696969697" type="curve"/>
      <point x="711.6480808080807" y="546.877090909091" type="line"/>
      <point x="711.6480808080807" y="147.50278787878787"/>
      <point x="889.1117575757576" y="-20.16759595959596"/>
    </contour>
    <contour>
      <point x="441.34076767676765" y="-19.25139393939394" type="curve" smooth="yes"/>
      <point x="584.5083636363636" y="-19.25139393939394"/>
      <point x="723.7988686868687" y="29.03911111111111"/>
      <point x="839.4189898989899" y="180.6089696969697" type="curve"/>
      <point x="760.3184646464647" y="309.2625454545455" type="line"/>
      <point x="683.5363232323232" y="201.37422222222222"/>
      <point x="594.0167272727273" y="167.59208080808082"/>
      <point x="502.86585858585863" y="167.59208080808082" type="curve" smooth="yes"/>
      <point x="391.6367676767677" y="167.59208080808082"/>
      <point x="332.6479191919192" y="218.58092929292928"/>
      <point x="332.6479191919192" y="312.6424242424242" type="curve" smooth="yes"/>
      <point x="332.6479191919192" y="405.74860606060605"/>
      <point x="388.26246464646465" y="472.0670707070707"/>
      <point x="544.312808080808" y="472.0670707070707" type="curve" smooth="yes"/>
      <point x="763.8659393939394" y="472.0670707070707" type="line"/>
      <point x="763.8659393939394" y="624.2290101010101" type="line"/>
      <point x="521.6759595959596" y="624.2290101010101" type="line" smooth="yes"/>
      <point x="202.53632323232324" y="624.2290101010101"/>
      <point x="73.31846464646465" y="488.8100202020202"/>
      <point x="73.31846464646465" y="291.4692525252525" type="curve" smooth="yes"/>
      <point x="73.31846464646465" y="100.71507070707071"/>
      <point x="204.19555555555556" y="-19.25139393939394"/>
    </contour>
    <contour>
      <point x="711.6480808080807" y="546.877090909091" type="line"/>
      <point x="926.463595959596" y="537.7150707070707" type="line"/>
      <point x="926.463595959596" y="680.1788282828282" type="line" smooth="yes"/>
      <point x="926.463595959596" y="990.3240404040404"/>
      <point x="786.2513131313132" y="1107.9217777777778"/>
      <point x="483.0111515151515" y="1107.9217777777778" type="curve" smooth="yes"/>
      <point x="379.34076767676765" y="1107.9217777777778"/>
      <point x="261.46367676767676" y="1093.0893737373738"/>
      <point x="154.6201212121212" y="1061.0893737373738" type="curve"/>
      <point x="154.6201212121212" y="860.3241212121212" type="line"/>
      <point x="254.2849292929293" y="891.9051313131313"/>
      <point x="365.7877171717172" y="905.9051313131313"/>
      <point x="448.3296161616162" y="905.9051313131313" type="curve" smooth="yes"/>
      <point x="629.6592323232323" y="905.9051313131313"/>
      <point x="711.6480808080807" y="856.0336161616161"/>
      <point x="711.6480808080807" y="687.7654141414141" type="curve" smooth="yes"/>
    </contour>
  </outline>
</glyph>
<glyph name="eth" format="2">
  <advance width="1170.7149898989899"/>
  <unicode hex="00F0"/>
  <outline>
    <contour>
      <point x="586.273696969697" y="-21.25139393939394" type="curve" smooth="yes"/>
      <point x="900.2177777777778" y="-21.25139393939394"/>
      <point x="1092.1451313131313" y="166.67038383838383"/>
      <point x="1093.2289292929293" y="597.6368484848485" type="curve" smooth="yes"/>
      <point x="1094.3127272727272" y="983.4189898989899"/>
      <point x="868.3127272727273" y="1399.703919191919"/>
      <point x="578.8099393939394" y="1616.0" type="curve"/>
      <point x="266.5084444444444" y="1616.0" type="line"/>
      <point x="528.9218585858586" y="1423.296080808081"/>
      <point x="711.6927676767676" y="1181.3351919191919"/>
      <point x="785.1508686868686" y="935.374303030303" type="curve"/>
      <point x="875.2960808080808" y="930.3072323232324" type="line"/>
      <point x="801.4245656565656" y="1056.9608888888888"/>
      <point x="685.2178585858586" y="1102.5027878787878"/>
      <point x="563.1396363636363" y="1102.5027878787878" type="curve" smooth="yes"/>
      <point x="273.74860606060605" y="1102.5027878787878"/>
      <point x="78.19555555555556" y="929.4134141414141"/>
      <point x="78.19555555555556" y="543.2513939393939" type="curve" smooth="yes"/>
      <point x="78.19555555555556" y="159.5921616161616"/>
      <point x="273.74860606060605" y="-21.25139393939394"/>
    </contour>
    <contour>
      <point x="586.273696969697" y="180.22335353535354" type="curve" smooth="yes"/>
      <point x="431.88258585858586" y="180.22335353535354"/>
      <point x="342.02779797979804" y="267.91612121212125"/>
      <point x="342.02779797979804" y="544.083797979798" type="curve" smooth="yes"/>
      <point x="342.02779797979804" y="818.0447676767676"/>
      <point x="432.9663838383839" y="905.9051313131313"/>
      <point x="585.3574949494949" y="905.9051313131313" type="curve" smooth="yes"/>
      <point x="737.7486060606061" y="905.9051313131313"/>
      <point x="828.687191919192" y="818.0447676767676"/>
      <point x="828.687191919192" y="540.2513939393939" type="curve" smooth="yes"/>
      <point x="828.687191919192" y="274.78763636363635"/>
      <point x="737.916202020202" y="180.22335353535354"/>
    </contour>
    <contour>
      <point x="192.86593939393939" y="1197.603393939394" type="line"/>
      <point x="1064.6423434343435" y="1351.0782222222222" type="line"/>
      <point x="1036.13397979798" y="1498.4915555555556" type="line"/>
      <point x="164.35757575757575" y="1345.0167272727272" type="line"/>
    </contour>
  </outline>
</glyph>
<glyph name="divide" format="2">
  <advance width="1091.2625454545455"/>
  <unicode hex="00F7"/>
  <outline>
    <contour>
      <point x="128.5251717171717" y="658.6369292929293" type="line"/>
      <point x="962.7373737373738" y="658.6369292929293" type="line"/>
      <point x="962.7373737373738" y="861.3630707070707" type="line"/>
      <point x="128.5251717171717" y="861.3630707070707" type="line"/>
    </contour>
    <contour>
      <point x="545.6312727272727" y="222.7710707070707" type="curve" smooth="yes"/>
      <point x="641.7820606060607" y="222.7710707070707"/>
      <point x="705.1730909090909" y="281.99450505050504"/>
      <point x="705.1730909090909" y="372.55870707070704" type="curve" smooth="yes"/>
      <point x="705.1730909090909" y="463.1229090909091"/>
      <point x="643.9496565656566" y="523.2625454545455"/>
      <point x="545.6312727272727" y="523.2625454545455" type="curve" smooth="yes"/>
      <point x="447.3128888888889" y="523.2625454545455"/>
      <point x="386.08945454545454" y="465.29050505050503"/>
      <point x="386.08945454545454" y="372.55870707070704" type="curve" smooth="yes"/>
      <point x="386.08945454545454" y="279.82690909090906"/>
      <point x="449.4804848484848" y="222.7710707070707"/>
    </contour>
    <contour>
      <point x="545.6312727272727" y="996.7374545454545" type="curve" smooth="yes"/>
      <point x="641.7820606060607" y="996.7374545454545"/>
      <point x="705.1730909090909" y="1055.9608888888888"/>
      <point x="705.1730909090909" y="1146.525090909091" type="curve" smooth="yes"/>
      <point x="705.1730909090909" y="1237.089292929293"/>
      <point x="643.9496565656566" y="1297.2289292929293"/>
      <point x="545.6312727272727" y="1297.2289292929293" type="curve" smooth="yes"/>
      <point x="447.3128888888889" y="1297.2289292929293"/>
      <point x="386.08945454545454" y="1239.2568888888889"/>
      <point x="386.08945454545454" y="1146.525090909091" type="curve" smooth="yes"/>
      <point x="386.08945454545454" y="1053.7932929292929"/>
      <point x="449.4804848484848" y="996.7374545454545"/>
    </contour>
  </outline>
</glyph>
<glyph name="thorn" format="2">
  <advance width="1193.4691717171718"/>
  <unicode hex="00FE"/>
  <outline>
    <contour>
      <point x="130.44137373737374" y="-440.0" type="line"/>
      <point x="391.8993131313132" y="-440.0" type="line"/>
      <point x="391.8993131313132" y="-9.67038383838384" type="line"/>
      <point x="434.5585454545455" y="-14.87709090909091"/>
      <point x="486.25688888888897" y="-19.62569696969697"/>
      <point x="536.6647272727273" y="-19.62569696969697" type="curve" smooth="yes"/>
      <point x="915.7652525252525" y="-19.62569696969697"/>
      <point x="1115.2736161616162" y="180.88266666666667"/>
      <point x="1115.2736161616162" y="565.9608888888889" type="curve" smooth="yes"/>
      <point x="1115.2736161616162" y="952.2458181818182"/>
      <point x="922.6032323232323" y="1107.9217777777778"/>
      <point x="694.8099393939394" y="1107.9217777777778" type="curve" smooth="yes"/>
      <point x="568.1060202020202" y="1107.9217777777778"/>
      <point x="469.69260606060607" y="1059.5083636363636"/>
      <point x="404.944" y="981.4245656565656" type="curve"/>
      <point x="391.8993131313132" y="981.4245656565656" type="line"/>
      <point x="391.8993131313132" y="1616.0" type="line"/>
      <point x="130.44137373737374" y="1616.0" type="line"/>
    </contour>
    <contour>
      <point x="537.4971313131314" y="182.39094949494952" type="curve" smooth="yes"/>
      <point x="487.7149898989899" y="182.39094949494952"/>
      <point x="431.64234343434345" y="188.68145454545456"/>
      <point x="391.8993131313132" y="197.26246464646468" type="curve"/>
      <point x="391.8993131313132" y="798.9721212121212" type="line"/>
      <point x="443.6814545454546" y="863.0336161616161"/>
      <point x="524.0390303030304" y="891.2738585858585"/>
      <point x="600.396606060606" y="891.2738585858585" type="curve" smooth="yes"/>
      <point x="747.4189898989899" y="891.2738585858585"/>
      <point x="851.4413737373737" y="814.994505050505"/>
      <point x="851.4413737373737" y="544.9553131313131" type="curve" smooth="yes"/>
      <point x="851.4413737373737" y="285.41333333333336"/>
      <point x="745.9608888888889" y="182.39094949494952"/>
    </contour>
  </outline>
</glyph>
<glyph name="eogonek" format="2">
  <advance width="1080.4580202020202"/>
  <unicode hex="0119"/>
  <outline>
    <contour>
      <point x="791.0837171717171" y="-432.5139393939394" type="curve" smooth="yes"/>
      <point x="856.3406868686869" y="-432.5139393939394"/>
      <point x="910.5473939393939" y="-418.5977373737374"/>
      <point x="957.3406868686868" y="-397.4748282828283" type="curve"/>
      <point x="957.3406868686868" y="-287.8268282828283" type="line"/>
      <point x="909.5082828282829" y="-311.3240404040404"/>
      <point x="864.4691717171718" y="-321.98884848484846"/>
      <point x="823.3071515151515" y="-321.98884848484846" type="curve" smooth="yes"/>
      <point x="743.3909494949495" y="-321.98884848484846"/>
      <point x="699.8099393939394" y="-282.3240404040404"/>
      <point x="699.8099393939394" y="-216.7039191919192" type="curve" smooth="yes"/>
      <point x="699.8099393939394" y="-138.0391111111111"/>
      <point x="749.1004444444445" y="-52.04468686868687"/>
      <point x="957.3406868686868" y="19.24581818181818" type="curve"/>
      <point x="957.3406868686868" y="218.92727272727274" type="line"/>
      <point x="860.3015757575758" y="194.5976565656566"/>
      <point x="767.0892929292929" y="180.76525252525255"/>
      <point x="683.296" y="180.76525252525255" type="curve" smooth="yes"/>
      <point x="431.379797979798" y="180.76525252525255"/>
      <point x="339.86020202020205" y="264.7038383838384"/>
      <point x="339.86020202020205" y="501.94416161616164" type="curve" smooth="yes"/>
      <point x="339.86020202020205" y="598.2290101010101" type="line" smooth="yes"/>
      <point x="339.86020202020205" y="847.0168080808081"/>
      <point x="419.54739393939394" y="931.3743838383838"/>
      <point x="558.480404040404" y="931.3743838383838" type="curve" smooth="yes"/>
      <point x="696.4134141414141" y="931.3743838383838"/>
      <point x="770.5195959595959" y="846.0168080808081"/>
      <point x="770.5195959595959" y="597.6871111111111" type="curve"/>
      <point x="815.9441616161616" y="618.8100202020202" type="line"/>
      <point x="225.53624242424243" y="618.8100202020202" type="line"/>
      <point x="225.53624242424243" y="467.1899797979798" type="line"/>
      <point x="1015.4691717171718" y="467.1899797979798" type="line"/>
      <point x="1015.4691717171718" y="538.374303030303" type="line" smooth="yes"/>
      <point x="1015.4691717171718" y="916.1173333333334"/>
      <point x="855.379797979798" y="1107.9217777777778"/>
      <point x="561.189898989899" y="1107.9217777777778" type="curve" smooth="yes"/>
      <point x="256.53632323232324" y="1107.9217777777778"/>
      <point x="78.19555555555556" y="915.6592323232323"/>
      <point x="78.19555555555556" y="545.9608888888889" type="curve" smooth="yes"/>
      <point x="78.19555555555556" y="147.50278787878787"/>
      <point x="261.8268282828283" y="-20.16759595959596"/>
      <point x="647.8658585858586" y="-20.16759595959596" type="curve" smooth="yes"/>
      <point x="688.8714343434343" y="-20.16759595959596"/>
      <point x="734.586505050505" y="-18.16759595959596"/>
      <point x="778.9272727272728" y="-13.62569696969697" type="curve"/>
      <point x="770.5082828282829" y="32.05583838383839" type="line"/>
      <point x="606.854707070707" y="-32.69834343434343"/>
      <point x="546.2681212121213" y="-125.53632323232323"/>
      <point x="546.2681212121213" y="-233.70949494949494" type="curve" smooth="yes"/>
      <point x="546.2681212121213" y="-355.50836363636364"/>
      <point x="631.3574949494949" y="-432.5139393939394"/>
    </contour>
  </outline>
</glyph>
<glyph name="idotless" format="2">
  <advance width="522.8825858585859"/>
  <unicode hex="0131"/>
  <anchor x="261.44129292929296" y="0.0" name="bottom"/>
  <anchor x="392.4412121212122" y="0.0" name="ogonek"/>
  <anchor x="261.44129292929296" y="1200.0" name="top"/>
  <outline>
    <contour>
      <point x="130.44137373737374" y="0.0" type="line"/>
      <point x="392.4412121212122" y="0.0" type="line"/>
      <point x="392.4412121212122" y="1090.8379797979799" type="line"/>
      <point x="130.44137373737374" y="1090.8379797979799" type="line"/>
    </contour>
  </outline>
</glyph>
<glyph name="ldot" format="2">
  <advance width="758.6086464646465"/>
  <unicode hex="0140"/>
  <outline>
    <contour>
      <point x="130.44137373737374" y="0.0" type="line"/>
      <point x="391.8993131313132" y="0.0" type="line"/>
      <point x="391.8993131313132" y="1616.0" type="line"/>
      <point x="130.44137373737374" y="1616.0" type="line"/>
    </contour>
    <contour>
      <point x="634.8936565656566" y="650.8827474747475" type="curve" smooth="yes"/>
      <point x="746.7595151515152" y="650.8827474747475"/>
      <point x="800.9382626262627" y="703.061494949495"/>
      <point x="800.9382626262627" y="793.083797979798" type="curve" smooth="yes"/>
      <point x="800.9382626262627" y="883.106101010101"/>
      <point x="746.7595151515152" y="936.2010505050505"/>
      <point x="634.8936565656566" y="936.2010505050505" type="curve" smooth="yes"/>
      <point x="523.027797979798" y="936.2010505050505"/>
      <point x="468.8490505050505" y="883.106101010101"/>
      <point x="468.8490505050505" y="793.083797979798" type="curve" smooth="yes"/>
      <point x="468.8490505050505" y="703.061494949495"/>
      <point x="523.027797979798" y="650.8827474747475"/>
    </contour>
  </outline>
</glyph>
<glyph name="Eng" format="2">
  <advance width="1516.4133333333334"/>
  <unicode hex="014A"/>
  <outline>
    <contour>
      <point x="1150.6145454545454" y="-77.35749494949496" type="line"/>
      <point x="1194.3240404040405" y="290.44113131313134" type="line"/>
      <point x="415.1060202020202" y="1480.0" type="line"/>
      <point x="146.10618181818182" y="1480.0" type="line"/>
      <point x="146.10618181818182" y="0.0" type="line"/>
      <point x="396.8937373737374" y="0.0" type="line"/>
      <point x="396.8937373737374" y="1155.5532929292929" type="line"/>
      <point x="346.4691717171718" y="1155.5532929292929" type="line"/>
    </contour>
    <contour>
      <point x="1113.7038383838385" y="-468.6703838383838" type="line"/>
      <point x="1299.8881616161616" y="-259.832404040404"/>
      <point x="1370.3071515151514" y="-69.57543434343434"/>
      <point x="1370.3071515151514" y="207.13963636363638" type="curve" smooth="yes"/>
      <point x="1370.3071515151514" y="1480.0" type="line"/>
      <point x="1119.519595959596" y="1480.0" type="line"/>
      <point x="1119.519595959596" y="173.58658585858586" type="line" smooth="yes"/>
      <point x="1119.519595959596" y="-47.98884848484848"/>
      <point x="1067.1061818181818" y="-193.2290909090909"/>
      <point x="943.8603636363637" y="-355.0950303030303" type="curve"/>
    </contour>
  </outline>
</glyph>
